<?xml version="1.0" encoding="utf-8"?><!-- Generator: Iparigrafika Gear Generator by Abel Vincze http://geargenerator.com/ --><svg version="1.2" class="svggear" xmlns="http://www.w3.org/2000/svg" xmlns:xlink="http://www.w3.org/1999/xlink" x="0px" y="0px" width="120px" height="120px" viewBox="-60 -60 120 120" overflow="scroll" xml:space="preserve"><polygon id="gearpoly0" data-id="0" class="gear" fill="#ddd" stroke="#444" stroke-width="1" stroke-miterlimit="10" points="38.5,0 44.5571,-0.0001 44.6114,-0.0021 44.7196,-0.0099 44.8816,-0.027 45.0966,-0.0574 45.3638,-0.1047 45.6823,-0.1726 46.051,-0.2646 46.4684,-0.3845 46.9329,-0.5356 47.4429,-0.7214 47.9965,-0.9452 48.5915,-1.2103 49.2256,-1.5198 49.8965,-1.8767 50.6016,-2.2839 51.338,-2.7443 52.1029,-3.2604 52.8933,-3.8348 53.7059,-4.4699 54.5374,-5.1678 55.3844,-5.9307 56.2433,-6.7604 57.1105,-7.6585 57.982,-8.6267 58.8542,-9.6664 59.0461,-10.6564 58.6719,-12.5541 58.1186,-13.3972 56.9171,-14.0279 55.7432,-14.5929 54.6,-15.0947 53.4905,-15.5362 52.4173,-15.9205 51.3831,-16.2505 50.3903,-16.5296 49.441,-16.761 48.5374,-16.9482 47.6814,-17.0946 46.8745,-17.2037 46.1183,-17.2792 45.4142,-17.3248 44.7631,-17.3442 44.166,-17.3412 43.6236,-17.3195 43.1365,-17.2829 42.7049,-17.2354 42.3289,-17.1806 42.0084,-17.1225 41.7432,-17.0648 41.5328,-17.0113 41.3764,-16.9657 41.2733,-16.9318 41.2224,-16.9131 35.6186,-14.614 31.1472,-22.6297 36.0474,-26.1901 36.0901,-26.2236 36.1732,-26.2935 36.2941,-26.4026 36.4501,-26.5535 36.6386,-26.7489 36.8564,-26.991 37.1005,-27.2822 37.3677,-27.6245 37.6547,-28.0198 37.9581,-28.4699 38.2744,-28.9763 38.5999,-29.5405 38.9311,-30.1636 39.2641,-30.8467 39.5951,-31.5906 39.9203,-32.3959 40.2357,-33.2631 40.5375,-34.1923 40.8216,-35.1838 41.0841,-36.2372 41.321,-37.3522 41.5282,-38.5282 41.7018,-39.7646 41.8378,-41.0602 41.9323,-42.4139 41.5056,-43.3277 40.0875,-44.6429 39.1443,-44.9998 37.8015,-44.8039 36.5197,-44.5709 35.2999,-44.3049 34.1428,-44.01 33.0487,-43.69 32.018,-43.3492 31.0507,-42.9914 30.1467,-42.6207 29.3057,-42.241 28.5271,-41.8562 27.8102,-41.4702 27.154,-41.0869 26.5576,-40.7099 26.0194,-40.3429 25.5382,-39.9894 25.1121,-39.6531 24.7395,-39.3372 24.4183,-39.045 24.1462,-38.7797 23.9212,-38.5443 23.7405,-38.3418 23.6017,-38.1748 23.502,-38.046 23.4386,-37.9579 23.4083,-37.9129 20.2261,-32.759 11.8972,-36.6157 13.7688,-42.3764 13.7836,-42.4286 13.8097,-42.534 13.8435,-42.6933 13.881,-42.9071 13.9186,-43.1759 13.9525,-43.4998 13.9788,-43.8789 13.9938,-44.3128 13.9937,-44.8014 13.9746,-45.3438 13.9328,-45.9395 13.8645,-46.5872 13.7662,-47.286 13.6341,-48.0344 13.4646,-48.8307 13.2544,-49.6734 12.9999,-50.5604 12.6978,-51.4895 12.3449,-52.4586 11.9381,-53.4651 11.4743,-54.5064 10.9507,-55.5796 10.3644,-56.6819 9.7129,-57.81 8.9937,-58.9607 8.1114,-59.4492 6.191,-59.6797 5.2182,-59.414 4.247,-58.4662 3.347,-57.5244 2.5165,-56.5922 1.7537,-55.6734 1.0566,-54.7715 0.4231,-53.8899 -0.1492,-53.0319 -0.6626,-52.2006 -1.1198,-51.3991 -1.5235,-50.6302 -1.8767,-49.8965 -2.1822,-49.2007 -2.4431,-48.5451 -2.6628,-47.9319 -2.8444,-47.3631 -2.9913,-46.8406 -3.1071,-46.366 -3.1953,-45.9408 -3.2594,-45.5662 -3.3032,-45.2435 -3.3302,-44.9735 -3.3444,-44.7568 -3.3493,-44.594 -3.3489,-44.4855 -3.3469,-44.4312 -2.892,-38.3912 -11.8972,-36.6157 -13.769,-42.3763 -13.7877,-42.4273 -13.8285,-42.5279 -13.8949,-42.6766 -13.9902,-42.8716 -14.1178,-43.1112 -14.2807,-43.3932 -14.4822,-43.7153 -14.7252,-44.0752 -15.0125,-44.4704 -15.3468,-44.898 -15.7307,-45.3553 -16.1666,-45.8392 -16.6569,-46.3467 -17.2037,-46.8745 -17.8089,-47.4192 -18.4743,-47.9773 -19.2015,-48.5453 -19.9921,-49.1195 -20.8472,-49.6961 -21.7679,-50.2712 -22.7552,-50.841 -23.8096,-51.4015 -24.9318,-51.9487 -26.122,-52.4784 -27.3802,-52.9866 -28.3811,-52.8631 -30.0702,-51.9209 -30.7011,-51.1341 -30.9297,-49.7965 -31.1042,-48.5055 -31.2282,-47.2632 -31.3053,-46.0715 -31.3391,-44.9321 -31.3334,-43.8466 -31.292,-42.8161 -31.2188,-41.8418 -31.1176,-40.9246 -30.9922,-40.0652 -30.8467,-39.2641 -30.6849,-38.5216 -30.5106,-37.8378 -30.3279,-37.2126 -30.1405,-36.6457 -29.9522,-36.1365 -29.7669,-35.6845 -29.5883,-35.2887 -29.4201,-34.948 -29.2658,-34.6612 -29.129,-34.4268 -29.013,-34.2432 -28.9214,-34.1086 -28.8572,-34.0211 -28.8237,-33.9784 -24.9055,-29.3593 -31.1472,-22.6297 -36.0475,-26.1899 -36.0926,-26.2202 -36.1847,-26.2776 -36.3258,-26.3588 -36.5176,-26.4606 -36.7616,-26.5795 -37.0592,-26.7118 -37.4116,-26.854 -37.8197,-27.0024 -38.2844,-27.1532 -38.8062,-27.3026 -39.3856,-27.4469 -40.0227,-27.5822 -40.7177,-27.7046 -41.4702,-27.8102 -42.28,-27.8951 -43.1464,-27.9556 -44.0686,-27.9876 -45.0456,-27.9875 -46.0763,-27.9513 -47.1593,-27.8754 -48.2929,-27.7561 -49.4754,-27.5898 -50.7049,-27.3728 -51.9791,-27.1018 -53.2958,-26.7734 -54.033,-26.0852 -54.8457,-24.33 -54.8936,-23.3227 -54.2923,-22.1062 -53.6747,-20.9592 -53.0448,-19.8813 -52.4067,-18.8719 -51.7643,-17.9302 -51.1216,-17.0553 -50.4824,-16.2459 -49.8505,-15.5007 -49.2295,-14.8182 -48.623,-14.1966 -48.0344,-13.6341 -47.467,-13.1285 -46.9241,-12.6777 -46.4088,-12.2793 -45.9239,-11.9308 -45.4724,-11.6296 -45.0568,-11.3728 -44.6797,-11.1576 -44.3433,-10.9809 -44.0499,-10.8395 -43.8014,-10.7303 -43.5997,-10.6499 -43.4465,-10.5949 -43.3431,-10.5618 -43.2909,-10.5469 -37.4059,-9.1131 -38.5,0 -44.5571,0.0001 -44.6114,0.0021 -44.7196,0.0099 -44.8816,0.027 -45.0966,0.0574 -45.3638,0.1047 -45.6823,0.1726 -46.051,0.2646 -46.4684,0.3845 -46.9329,0.5356 -47.4429,0.7214 -47.9965,0.9452 -48.5915,1.2103 -49.2256,1.5198 -49.8965,1.8767 -50.6016,2.2839 -51.338,2.7443 -52.1029,3.2604 -52.8933,3.8348 -53.7059,4.4699 -54.5374,5.1678 -55.3844,5.9307 -56.2433,6.7604 -57.1105,7.6585 -57.982,8.6267 -58.8542,9.6664 -59.0461,10.6564 -58.6719,12.5541 -58.1186,13.3972 -56.9171,14.0279 -55.7432,14.5929 -54.6,15.0947 -53.4905,15.5362 -52.4173,15.9205 -51.3831,16.2505 -50.3903,16.5296 -49.441,16.761 -48.5374,16.9482 -47.6814,17.0946 -46.8745,17.2037 -46.1183,17.2792 -45.4142,17.3248 -44.7631,17.3442 -44.166,17.3412 -43.6236,17.3195 -43.1365,17.2829 -42.7049,17.2354 -42.3289,17.1806 -42.0084,17.1225 -41.7432,17.0648 -41.5328,17.0113 -41.3764,16.9657 -41.2733,16.9318 -41.2224,16.9131 -35.6186,14.614 -31.1472,22.6297 -36.0474,26.1901 -36.0901,26.2236 -36.1732,26.2935 -36.2941,26.4026 -36.4501,26.5535 -36.6386,26.7489 -36.8564,26.991 -37.1005,27.2822 -37.3677,27.6245 -37.6547,28.0198 -37.9581,28.4699 -38.2744,28.9763 -38.5999,29.5405 -38.9311,30.1636 -39.2641,30.8467 -39.5951,31.5906 -39.9203,32.3959 -40.2357,33.2631 -40.5375,34.1923 -40.8216,35.1838 -41.0841,36.2372 -41.321,37.3522 -41.5282,38.5282 -41.7018,39.7646 -41.8378,41.0602 -41.9323,42.4139 -41.5056,43.3277 -40.0875,44.6429 -39.1443,44.9998 -37.8015,44.8039 -36.5197,44.5709 -35.2999,44.3049 -34.1428,44.01 -33.0487,43.69 -32.018,43.3492 -31.0507,42.9914 -30.1467,42.6207 -29.3057,42.241 -28.5271,41.8562 -27.8102,41.4702 -27.154,41.0869 -26.5576,40.7099 -26.0194,40.3429 -25.5382,39.9894 -25.1121,39.6531 -24.7395,39.3372 -24.4183,39.045 -24.1462,38.7797 -23.9212,38.5443 -23.7405,38.3418 -23.6017,38.1748 -23.502,38.046 -23.4386,37.9579 -23.4083,37.9129 -20.2261,32.759 -11.8972,36.6157 -13.7688,42.3764 -13.7836,42.4286 -13.8097,42.534 -13.8435,42.6933 -13.881,42.9071 -13.9186,43.1759 -13.9525,43.4998 -13.9788,43.8789 -13.9938,44.3128 -13.9937,44.8014 -13.9746,45.3438 -13.9328,45.9395 -13.8645,46.5872 -13.7662,47.286 -13.6341,48.0344 -13.4646,48.8307 -13.2544,49.6734 -12.9999,50.5604 -12.6978,51.4895 -12.3449,52.4586 -11.9381,53.4651 -11.4743,54.5064 -10.9507,55.5796 -10.3644,56.6819 -9.7129,57.81 -8.9937,58.9607 -8.1114,59.4492 -6.191,59.6797 -5.2182,59.414 -4.247,58.4662 -3.347,57.5244 -2.5165,56.5922 -1.7537,55.6734 -1.0566,54.7715 -0.4231,53.8899 0.1492,53.0319 0.6626,52.2006 1.1198,51.3991 1.5235,50.6302 1.8767,49.8965 2.1822,49.2007 2.4431,48.5451 2.6628,47.9319 2.8444,47.3631 2.9913,46.8406 3.1071,46.366 3.1953,45.9408 3.2594,45.5662 3.3032,45.2435 3.3302,44.9735 3.3444,44.7568 3.3493,44.594 3.3489,44.4855 3.3469,44.4312 2.892,38.3912 11.8972,36.6157 13.769,42.3763 13.7877,42.4273 13.8285,42.5279 13.8949,42.6766 13.9902,42.8716 14.1178,43.1112 14.2807,43.3932 14.4822,43.7153 14.7252,44.0752 15.0125,44.4704 15.3468,44.898 15.7307,45.3553 16.1666,45.8392 16.6569,46.3467 17.2037,46.8745 17.8089,47.4192 18.4743,47.9773 19.2015,48.5453 19.9921,49.1195 20.8472,49.6961 21.7679,50.2712 22.7552,50.841 23.8096,51.4015 24.9318,51.9487 26.122,52.4784 27.3802,52.9866 28.3811,52.8631 30.0702,51.9209 30.7011,51.1341 30.9297,49.7965 31.1042,48.5055 31.2282,47.2632 31.3053,46.0715 31.3391,44.9321 31.3334,43.8466 31.292,42.8161 31.2188,41.8418 31.1176,40.9246 30.9922,40.0652 30.8467,39.2641 30.6849,38.5216 30.5106,37.8378 30.3279,37.2126 30.1405,36.6457 29.9522,36.1365 29.7669,35.6845 29.5883,35.2887 29.4201,34.948 29.2658,34.6612 29.129,34.4268 29.013,34.2432 28.9214,34.1086 28.8572,34.0211 28.8237,33.9784 24.9055,29.3593 31.1472,22.6297 36.0475,26.1899 36.0926,26.2202 36.1847,26.2776 36.3258,26.3588 36.5176,26.4606 36.7616,26.5795 37.0592,26.7118 37.4116,26.854 37.8197,27.0024 38.2844,27.1532 38.8062,27.3026 39.3856,27.4469 40.0227,27.5822 40.7177,27.7046 41.4702,27.8102 42.28,27.8951 43.1464,27.9556 44.0686,27.9876 45.0456,27.9875 46.0763,27.9513 47.1593,27.8754 48.2929,27.7561 49.4754,27.5898 50.7049,27.3728 51.9791,27.1018 53.2958,26.7734 54.033,26.0852 54.8457,24.33 54.8936,23.3227 54.2923,22.1062 53.6747,20.9592 53.0448,19.8813 52.4067,18.8719 51.7643,17.9302 51.1216,17.0553 50.4824,16.2459 49.8505,15.5007 49.2295,14.8182 48.623,14.1966 48.0344,13.6341 47.467,13.1285 46.9241,12.6777 46.4088,12.2793 45.9239,11.9308 45.4724,11.6296 45.0568,11.3728 44.6797,11.1576 44.3433,10.9809 44.0499,10.8395 43.8014,10.7303 43.5997,10.6499 43.4465,10.5949 43.3431,10.5618 43.2909,10.5469 37.4059,9.1131 "/><g class="guides"><polyline fill="none" stroke="#444" stroke-width="0.5" stroke-miterlimit="10" points="10,0 -10,0"/><polyline fill="none" stroke="#444" stroke-width="0.5" stroke-miterlimit="10" points="0,10 0,-10"/></g><circle fill="#c00" class="firstmarker" stroke="none" stroke-miterlimit="10" cx="49.0555" cy="-9.6723" r="3.925"/><g class="geartext"><g class="text"><polyline fill="none" stroke="#444" stroke-width="0.5" stroke-linecap="square" stroke-miterlimit="1"  points="-17.34 -23.66 -18.07 -23.11 -18.78 -22.53 -19.48 -21.93 -20.15 -21.32 "/><polyline fill="none" stroke="#444" stroke-width="0.5" stroke-linecap="square" stroke-miterlimit="1"  points="-17.61 -21.12 -19.95 -23.94 "/><polyline fill="none" stroke="#444" stroke-width="0.5" stroke-linecap="square" stroke-miterlimit="1"  points="-18.42 -25.14 -18.63 -23.83 -18.78 -22.53 -18.87 -21.25 -18.89 -19.98 "/><polyline fill="none" stroke="#444" stroke-width="0.5" stroke-linecap="square" stroke-miterlimit="1"  points="-16.25 -22.18 -17.5 -22.39 -18.78 -22.53 -20.08 -22.62 -21.41 -22.65 "/><polyline fill="none" stroke="#444" stroke-width="0.5" stroke-linecap="square" stroke-miterlimit="1"  points="-12.6 -24.44 -12.92 -23.24 -13.64 -22.82 -14.84 -23.15 -16.81 -26.24 -16.46 -27.54 -15.59 -28.04 -14.28 -27.7 -12.6 -24.44 "/><polyline fill="none" stroke="#444" stroke-width="0.5" stroke-linecap="square" stroke-miterlimit="1"  points="-4.23 -31.8 -3.51 -26.35 -4.55 -27.59 -5.68 -28.78 -6.88 -29.93 -8.17 -31.03 -6.77 -25.71 "/><polyline fill="none" stroke="#444" stroke-width="0.5" stroke-linecap="square" stroke-miterlimit="1"  points="1.67 -30.2 0.72 -30.24 -0.22 -30.25 -1.17 -30.23 -2.11 -30.18 "/><polyline fill="none" stroke="#444" stroke-width="0.5" stroke-linecap="square" stroke-miterlimit="1"  points="1.57 -28.37 0.68 -28.41 -0.21 -28.42 -1.1 -28.4 -1.98 -28.35 "/><polyline fill="none" stroke="#444" stroke-width="0.5" stroke-linecap="square" stroke-miterlimit="1"  points="3.66 -30.95 4.76 -31.73 3.94 -26.29 "/><polyline fill="none" stroke="#444" stroke-width="0.5" stroke-linecap="square" stroke-miterlimit="1"  points="4.76 -26.15 3.94 -26.29 3.12 -26.4 "/><polyline fill="none" stroke="#444" stroke-width="0.5" stroke-linecap="square" stroke-miterlimit="1"  points="9.08 -25.96 7.99 -25.36 7.19 -25.59 6.61 -26.69 7.49 -30.25 8.68 -30.89 9.64 -30.6 10.29 -29.42 9.08 -25.96 "/><polyline fill="none" stroke="#444" stroke-width="0.5" stroke-linecap="square" stroke-miterlimit="1"  points="15.46 -24.93 16.23 -24.43 16.99 -23.91 17.73 -23.37 19.03 -23.52 19.6 -24.23 19.39 -25.56 18.58 -26.16 17.75 -26.72 16.91 -27.26 14.01 -22.59 "/><polyline fill="none" stroke="#444" stroke-width="0.5" stroke-linecap="square" stroke-miterlimit="1"  points="17.98 -19.58 20.46 -22.28 "/><polyline fill="none" stroke="#444" stroke-width="0.5" stroke-linecap="square" stroke-miterlimit="1"  points="21.08 -22.96 21.7 -23.63 "/><polyline fill="none" stroke="#444" stroke-width="0.5" stroke-linecap="square" stroke-miterlimit="1"  points="22.05 -16.44 20.81 -16.55 20.98 -17.78 24.47 -20.75 "/><polyline fill="none" stroke="#444" stroke-width="0.5" stroke-linecap="square" stroke-miterlimit="1"  points="24.25 -18.08 23.68 -18.83 23.08 -19.56 22.45 -20.27 21.81 -20.96 "/><polyline fill="none" stroke="#444" stroke-width="0.5" stroke-linecap="square" stroke-miterlimit="1"  points="23.9 -11.64 23.53 -12.38 23.13 -13.11 22.71 -13.82 23.03 -15.03 24.57 -16.03 25.84 -15.73 26.32 -14.92 26.77 -14.09 27.2 -13.24 "/><polyline fill="none" stroke="#444" stroke-width="0.5" stroke-linecap="square" stroke-miterlimit="1"  points="26.28 -10.82 27.46 -10.32 28.64 -9.75 28.93 -8.85 28.3 -7.7 25.65 -6.98 "/><polyline fill="none" stroke="#444" stroke-width="0.5" stroke-linecap="square" stroke-miterlimit="1"  points="24.58 -10.12 29.67 -12.22 "/><polyline fill="none" stroke="#444" stroke-width="0.5" stroke-linecap="square" stroke-miterlimit="1"  points="26.55 -1.25 26.58 -0.42 26.58 0.42 26.55 1.25 27.42 2.15 31.07 2.43 32.05 1.5 32.08 0.5 32.08 -0.5 32.05 -1.5 "/><polyline fill="none" stroke="#444" stroke-width="0.5" stroke-linecap="square" stroke-miterlimit="1"  points="32.08 -0.5 26.58 -0.42 "/><polyline fill="none" stroke="#444" stroke-width="0.5" stroke-linecap="square" stroke-miterlimit="1"  points="29.19 7.94 29.42 7.03 29.63 6.1 29.8 5.17 29.95 4.24 "/><polyline fill="none" stroke="#444" stroke-width="0.5" stroke-linecap="square" stroke-miterlimit="1"  points="27.42 7.46 27.64 6.6 27.83 5.73 28 4.86 28.14 3.98 "/><polyline fill="none" stroke="#444" stroke-width="0.5" stroke-linecap="square" stroke-miterlimit="1"  points="29.5 10.04 30.03 11.28 24.89 9.35 "/><polyline fill="none" stroke="#444" stroke-width="0.5" stroke-linecap="square" stroke-miterlimit="1"  points="24.58 10.12 24.89 9.35 25.17 8.57 "/><polyline fill="none" stroke="#444" stroke-width="0.5" stroke-linecap="square" stroke-miterlimit="1"  points="24.05 16.79 23.52 17.53 22.96 18.26 22.38 18.97 22.45 20.27 23.13 20.89 24.47 20.75 25.11 19.97 25.72 19.18 26.31 18.36 21.8 15.22 "/><polyline fill="none" stroke="#444" stroke-width="0.5" stroke-linecap="square" stroke-miterlimit="1"  points="18.28 24.1 19.03 23.52 19.75 22.91 20.46 22.28 21.14 21.63 "/><polyline fill="none" stroke="#444" stroke-width="0.5" stroke-linecap="square" stroke-miterlimit="1"  points="17.17 22.64 17.87 22.09 18.55 21.52 19.22 20.93 19.86 20.32 "/><polyline fill="none" stroke="#444" stroke-width="0.5" stroke-linecap="square" stroke-miterlimit="1"  points="17.25 25.96 16.91 27.26 14.01 22.59 "/><polyline fill="none" stroke="#444" stroke-width="0.5" stroke-linecap="square" stroke-miterlimit="1"  points="13.3 23.02 14.01 22.59 14.71 22.14 "/><polyline fill="none" stroke="#444" stroke-width="0.5" stroke-linecap="square" stroke-miterlimit="1"  points="9.88 25.66 10.33 24.5 11.09 24.16 12.24 24.62 13.88 27.91 13.38 29.16 12.46 29.56 11.2 29.08 9.88 25.66 "/><polyline fill="none" stroke="#444" stroke-width="0.5" stroke-linecap="square" stroke-miterlimit="1"  points="4.35 29.01 3.44 29.13 2.53 29.22 1.62 29.29 0.72 30.24 0.75 31.16 1.77 32.03 2.77 31.96 3.77 31.86 4.76 31.73 3.94 26.29 "/><polyline fill="none" stroke="#444" stroke-width="0.5" stroke-linecap="square" stroke-miterlimit="1"  points="-1.03 26.56 -1.1 28.4 -2.11 30.18 -3.24 31.92 -3.99 29.99 -4.63 28.04 -4.33 26.23 "/><polyline fill="none" stroke="#444" stroke-width="0.5" stroke-linecap="square" stroke-miterlimit="1"  points="-1.1 28.4 -1.98 28.35 -2.87 28.27 -3.75 28.17 -4.63 28.04 "/><polyline fill="none" stroke="#444" stroke-width="0.5" stroke-linecap="square" stroke-miterlimit="1"  points="-10.4 28.4 -9.51 28.72 -8.61 29 -7.7 29.25 -6.78 29.48 "/><polyline fill="none" stroke="#444" stroke-width="0.5" stroke-linecap="square" stroke-miterlimit="1"  points="-9.77 26.68 -8.93 26.98 -8.09 27.24 -7.23 27.48 -6.37 27.69 "/><polyline fill="none" stroke="#444" stroke-width="0.5" stroke-linecap="square" stroke-miterlimit="1"  points="-13.64 22.82 -12.92 23.24 -12.18 23.63 -11.44 24 -10.68 24.34 -11.42 26.02 -12.62 26.48 -13.44 26.07 -14.25 25.64 -15.52 25.97 -15.99 26.75 -15.59 28.04 -14.7 28.52 -13.81 28.96 -12.53 28.54 "/><polyline fill="none" stroke="#444" stroke-width="0.5" stroke-linecap="square" stroke-miterlimit="1"  points="-18.14 26.46 -18.96 25.88 -19.76 25.28 -20.54 24.65 -21.3 23.99 -18.78 22.53 -16.37 20.94 "/></g></g><g class="guides gearguides" opacity="0.2"><circle class="pitch" fill="none" stroke="#f00" stroke-miterlimit="10" cx="0" cy="0" r="50"/><circle class="outer" fill="none" stroke="#ccc" stroke-miterlimit="10" stroke-dasharray="2,2" cx="0" cy="0" r="60"/><circle class="base" fill="none" stroke="#00f" stroke-miterlimit="10" stroke-dasharray="2,2" cx="0" cy="0" r="44.55"/></g></svg>