<?xml version="1.0" encoding="utf-8"?><!-- Generator: Iparigrafika Gear Generator by Abel Vincze http://geargenerator.com/ --><svg version="1.2" class="svggear" xmlns="http://www.w3.org/2000/svg" xmlns:xlink="http://www.w3.org/1999/xlink" x="0px" y="0px" width="116px" height="116px" viewBox="-58 -58 116 116" overflow="scroll" xml:space="preserve"><polygon id="gearpoly0" data-id="0" class="gear" fill="#ddd" stroke="#444" stroke-width="1" stroke-miterlimit="10" points="41.7857,0 44.5571,-0.0001 44.5903,-0.0011 44.6512,-0.0045 44.7395,-0.0116 44.8552,-0.0239 44.998,-0.0425 45.1676,-0.069 45.3638,-0.1047 45.5862,-0.1509 45.8343,-0.2089 46.1077,-0.28 46.4058,-0.3655 46.7282,-0.4668 47.0741,-0.585 47.4429,-0.7214 47.834,-0.8772 48.2465,-1.0536 48.6797,-1.2517 49.1327,-1.4727 49.6047,-1.7177 50.0946,-1.9878 50.6016,-2.2839 51.1246,-2.6072 51.6625,-2.9585 52.2144,-3.3388 52.779,-3.7491 53.3551,-4.1902 53.9417,-4.6628 54.5374,-5.1678 55.141,-5.706 55.7513,-6.278 56.3668,-6.8844 56.651,-7.4817 56.3917,-9.2348 55.9468,-9.7243 55.1821,-10.1266 54.4325,-10.4975 53.6989,-10.8379 52.9825,-11.1489 52.2843,-11.4316 51.6051,-11.687 50.9459,-11.9163 50.3076,-12.1207 49.691,-12.3013 49.0969,-12.4593 48.5259,-12.596 47.9788,-12.7127 47.4561,-12.8106 46.9585,-12.8911 46.4865,-12.9554 46.0406,-13.0048 45.6212,-13.0407 45.2286,-13.0646 44.8633,-13.0776 44.5254,-13.0812 44.2153,-13.0768 43.933,-13.0658 43.6787,-13.0495 43.4525,-13.0293 43.2544,-13.0066 43.0844,-12.9829 42.9423,-12.9595 42.828,-12.9377 42.7414,-12.9189 42.6822,-12.9046 42.6501,-12.896 39.9973,-12.0939 37.6476,-18.1301 40.1445,-19.3327 40.174,-19.348 40.2273,-19.3775 40.3038,-19.4222 40.4028,-19.4834 40.5233,-19.5622 40.6647,-19.6597 40.826,-19.7769 41.0063,-19.915 41.2046,-20.0749 41.4201,-20.2576 41.6516,-20.4641 41.8981,-20.6951 42.1585,-20.9517 42.4316,-21.2347 42.7164,-21.5447 43.0115,-21.8826 43.3158,-22.2491 43.6281,-22.6448 43.947,-23.0703 44.2712,-23.5262 44.5995,-24.0129 44.9304,-24.5311 45.2627,-25.081 45.5948,-25.6632 45.9255,-26.2778 46.2533,-26.9251 46.5767,-27.6055 46.8943,-28.319 47.2046,-29.0657 47.5062,-29.8458 47.7977,-30.6593 47.7946,-31.3207 46.8003,-32.7878 46.1871,-33.0357 45.3236,-33.0664 44.4873,-33.0753 43.6787,-33.0637 42.8983,-33.0331 42.1465,-32.9848 41.4238,-32.9202 40.7304,-32.8408 40.0667,-32.748 39.4328,-32.6432 38.8289,-32.5278 38.2551,-32.4032 37.7115,-32.271 37.1981,-32.1324 36.7149,-31.989 36.2618,-31.8421 35.8386,-31.6932 35.4451,-31.5436 35.0811,-31.3947 34.7463,-31.2479 34.4403,-31.1046 34.1628,-30.9661 33.9133,-30.8337 33.6912,-30.7087 33.4962,-30.5923 33.3275,-30.486 33.1846,-30.3908 33.0668,-30.308 32.9733,-30.2388 32.9034,-30.1843 32.8562,-30.1457 32.8311,-30.124 30.789,-28.2504 26.053,-32.6694 27.7808,-34.8362 27.8007,-34.8628 27.836,-34.9125 27.8855,-34.986 27.9481,-35.0841 28.0225,-35.2074 28.1076,-35.3565 28.202,-35.5321 28.3046,-35.7348 28.4139,-35.9649 28.5288,-36.223 28.6478,-36.5094 28.7696,-36.8246 28.8928,-37.1687 29.0162,-37.5422 29.1382,-37.9451 29.2575,-38.3776 29.3727,-38.8398 29.4823,-39.3317 29.585,-39.8535 29.6794,-40.4049 29.7639,-40.9859 29.8373,-41.5963 29.898,-42.236 29.9447,-42.9046 29.976,-43.6018 29.9904,-44.3272 29.9866,-45.0805 29.9631,-45.8612 29.9187,-46.6686 29.852,-47.5024 29.7617,-48.3617 29.4719,-48.9563 27.9396,-49.8466 27.2795,-49.804 26.4882,-49.457 25.7308,-49.1021 25.0073,-48.7409 24.3175,-48.3747 23.6611,-48.005 23.038,-47.6332 22.4477,-47.2608 21.89,-46.8892 21.3643,-46.5197 20.8703,-46.1537 20.4074,-45.7926 19.9751,-45.4376 19.5726,-45.09 19.1995,-44.7511 18.855,-44.4222 18.5383,-44.1044 18.2487,-43.7988 17.9853,-43.5068 17.7473,-43.2293 17.5339,-42.9674 17.3439,-42.7222 17.1766,-42.4946 17.0308,-42.2856 16.9055,-42.0962 16.7997,-41.9272 16.7122,-41.7794 16.642,-41.6537 16.5878,-41.5508 16.5484,-41.4714 16.5227,-41.4161 16.5094,-41.3857 15.4825,-38.8116 9.2982,-40.7381 9.9148,-43.44 9.9212,-43.4726 9.9314,-43.5327 9.9441,-43.6204 9.9579,-43.7359 9.9715,-43.8792 9.9834,-44.0505 9.9923,-44.2497 9.9968,-44.4768 9.9955,-44.7316 9.987,-45.0139 9.9699,-45.3237 9.9429,-45.6605 9.9046,-46.024 9.8537,-46.414 9.7889,-46.8299 9.7087,-47.2713 9.6119,-47.7378 9.4973,-48.2286 9.3634,-48.7432 9.2092,-49.281 9.0333,-49.8411 8.8345,-50.4229 8.6117,-51.0256 8.3637,-51.6482 8.0893,-52.2899 7.7875,-52.9498 7.4573,-53.6268 7.0974,-54.32 6.7071,-55.0283 6.2852,-55.7505 5.831,-56.4855 5.3119,-56.8954 3.545,-57.0328 2.9689,-56.708 2.4064,-56.052 1.878,-55.4037 1.3829,-54.7643 0.9203,-54.135 0.4894,-53.5172 0.0892,-52.9119 -0.281,-52.3203 -0.6223,-51.7434 -0.9355,-51.1825 -1.2218,-50.6384 -1.4822,-50.1121 -1.7177,-49.6047 -1.9295,-49.1169 -2.1186,-48.6497 -2.2863,-48.2039 -2.4337,-47.7801 -2.5621,-47.3792 -2.6727,-47.0018 -2.7667,-46.6485 -2.8454,-46.3199 -2.9101,-46.0166 -2.9622,-45.7389 -3.0028,-45.4874 -3.0335,-45.2624 -3.0555,-45.0642 -3.0702,-44.8931 -3.079,-44.7494 -3.0832,-44.6331 -3.0842,-44.5445 -3.0833,-44.4836 -3.0821,-44.4504 -2.8905,-41.6856 -9.2982,-40.7381 -9.915,-43.44 -9.9234,-43.4721 -9.9402,-43.5307 -9.9668,-43.6152 -10.0045,-43.7253 -10.0545,-43.8603 -10.118,-44.0198 -10.1965,-44.2031 -10.291,-44.4097 -10.4027,-44.6386 -10.5329,-44.8893 -10.6826,-45.161 -10.8531,-45.4527 -11.0453,-45.7637 -11.2604,-46.0929 -11.4993,-46.4395 -11.763,-46.8025 -12.0526,-47.1807 -12.3689,-47.5732 -12.7127,-47.9788 -13.085,-48.3963 -13.4866,-48.8247 -13.9181,-49.2626 -14.3803,-49.7089 -14.8739,-50.1623 -15.3995,-50.6214 -15.9577,-51.085 -16.5491,-51.5517 -17.174,-52.0201 -17.833,-52.4888 -18.5264,-52.9565 -19.2546,-53.4216 -19.9001,-53.5658 -21.5516,-52.9229 -21.9298,-52.3803 -22.1519,-51.5452 -22.3467,-50.7318 -22.5153,-49.9409 -22.6591,-49.1733 -22.7793,-48.4296 -22.8772,-47.7107 -22.9541,-47.017 -23.0113,-46.3492 -23.0501,-45.7079 -23.072,-45.0935 -23.0783,-44.5064 -23.0703,-43.947 -23.0494,-43.4156 -23.0171,-42.9126 -22.9748,-42.4382 -22.9237,-41.9924 -22.8655,-41.5755 -22.8013,-41.1875 -22.7327,-40.8284 -22.6611,-40.4983 -22.5878,-40.1969 -22.5142,-39.9241 -22.4417,-39.6799 -22.3717,-39.4638 -22.3056,-39.2757 -22.2446,-39.1152 -22.1901,-38.9819 -22.1434,-38.8753 -22.1059,-38.7951 -22.0787,-38.7405 -22.0632,-38.7111 -20.6909,-36.3033 -26.053,-32.6694 -27.781,-34.8361 -27.8025,-34.8614 -27.8431,-34.9069 -27.9037,-34.9715 -27.9854,-35.0543 -28.089,-35.1543 -28.2155,-35.2704 -28.3657,-35.4016 -28.5405,-35.5466 -28.7405,-35.7045 -28.9665,-35.8739 -29.2193,-36.0536 -29.4995,-36.2425 -29.8076,-36.4393 -30.1442,-36.6426 -30.5098,-36.8512 -30.9049,-37.0638 -31.3299,-37.2789 -31.7852,-37.4953 -32.271,-37.7115 -32.7876,-37.9262 -33.3352,-38.1379 -33.914,-38.3453 -34.5241,-38.5468 -35.1655,-38.7411 -35.8383,-38.9267 -36.5424,-39.1022 -37.2776,-39.2661 -38.0439,-39.417 -38.841,-39.5534 -39.6687,-39.6738 -40.5266,-39.777 -41.1707,-39.6267 -42.3797,-38.331 -42.485,-37.678 -42.3228,-36.8293 -42.1454,-36.0119 -41.9542,-35.2262 -41.7507,-34.4722 -41.5363,-33.75 -41.3125,-33.0598 -41.0808,-32.4015 -40.8426,-31.775 -40.5994,-31.1803 -40.3525,-30.6172 -40.1034,-30.0856 -39.8535,-29.585 -39.6042,-29.1154 -39.3568,-28.6762 -39.1128,-28.2671 -38.8734,-27.8876 -38.64,-27.5373 -38.4139,-27.2156 -38.1963,-26.9218 -37.9885,-26.6554 -37.7916,-26.4156 -37.607,-26.2018 -37.4357,-26.0132 -37.2789,-25.8489 -37.1377,-25.7082 -37.0131,-25.59 -36.9062,-25.4935 -36.8179,-25.4178 -36.7492,-25.3618 -36.7011,-25.3244 -36.6744,-25.3047 -34.3933,-23.7307 -37.6476,-18.1301 -40.1446,-19.3325 -40.175,-19.346 -40.2313,-19.3693 -40.314,-19.4012 -40.4235,-19.4404 -40.5602,-19.4856 -40.7246,-19.5353 -40.9168,-19.5883 -41.1372,-19.6432 -41.3859,-19.6986 -41.663,-19.7531 -41.9688,-19.8054 -42.3031,-19.854 -42.6661,-19.8976 -43.0576,-19.9348 -43.4776,-19.9641 -43.9258,-19.9841 -44.402,-19.9936 -44.9061,-19.991 -45.4376,-19.9751 -45.9961,-19.9443 -46.5814,-19.8975 -47.1929,-19.8331 -47.83,-19.75 -48.4922,-19.6468 -49.1789,-19.5221 -49.8894,-19.3747 -50.6229,-19.2034 -51.3788,-19.0068 -52.1561,-18.7839 -52.9541,-18.5333 -53.7718,-18.254 -54.2869,-17.8392 -54.814,-16.1471 -54.6256,-15.5131 -54.1112,-14.8188 -53.5967,-14.1594 -53.0835,-13.5345 -52.573,-12.9434 -52.0665,-12.3858 -51.5654,-11.861 -51.071,-11.3684 -50.5846,-10.9073 -50.1074,-10.4771 -49.6406,-10.0769 -49.1855,-9.706 -48.7432,-9.3634 -48.3148,-9.0484 -47.9014,-8.7601 -47.504,-8.4974 -47.1237,-8.2593 -46.7614,-8.045 -46.4181,-7.8532 -46.0946,-7.683 -45.7918,-7.5331 -45.5104,-7.4025 -45.2513,-7.29 -45.0151,-7.1943 -44.8026,-7.1144 -44.6143,-7.0488 -44.4508,-6.9964 -44.3126,-6.9559 -44.2002,-6.9259 -44.114,-6.9053 -44.0544,-6.8925 -44.0218,-6.8863 -41.2837,-6.4579 -41.7857,0 -44.5571,0.0001 -44.5903,0.0011 -44.6512,0.0045 -44.7395,0.0116 -44.8552,0.0239 -44.998,0.0425 -45.1676,0.069 -45.3638,0.1047 -45.5862,0.1509 -45.8343,0.2089 -46.1077,0.28 -46.4058,0.3655 -46.7282,0.4668 -47.0741,0.585 -47.4429,0.7214 -47.834,0.8772 -48.2465,1.0536 -48.6797,1.2517 -49.1327,1.4727 -49.6047,1.7177 -50.0946,1.9878 -50.6016,2.2839 -51.1246,2.6072 -51.6625,2.9585 -52.2144,3.3388 -52.779,3.7491 -53.3551,4.1902 -53.9417,4.6628 -54.5374,5.1678 -55.141,5.706 -55.7513,6.278 -56.3668,6.8844 -56.651,7.4817 -56.3917,9.2348 -55.9468,9.7243 -55.1821,10.1266 -54.4325,10.4975 -53.6989,10.8379 -52.9825,11.1489 -52.2843,11.4316 -51.6051,11.687 -50.9459,11.9163 -50.3076,12.1207 -49.691,12.3013 -49.0969,12.4593 -48.5259,12.596 -47.9788,12.7127 -47.4561,12.8106 -46.9585,12.8911 -46.4865,12.9554 -46.0406,13.0048 -45.6212,13.0407 -45.2286,13.0646 -44.8633,13.0776 -44.5254,13.0812 -44.2153,13.0768 -43.933,13.0658 -43.6787,13.0495 -43.4525,13.0293 -43.2544,13.0066 -43.0844,12.9829 -42.9423,12.9595 -42.828,12.9377 -42.7414,12.9189 -42.6822,12.9046 -42.6501,12.896 -39.9973,12.0939 -37.6476,18.1301 -40.1445,19.3327 -40.174,19.348 -40.2273,19.3775 -40.3038,19.4222 -40.4028,19.4834 -40.5233,19.5622 -40.6647,19.6597 -40.826,19.7769 -41.0063,19.915 -41.2046,20.0749 -41.4201,20.2576 -41.6516,20.4641 -41.8981,20.6951 -42.1585,20.9517 -42.4316,21.2347 -42.7164,21.5447 -43.0115,21.8826 -43.3158,22.2491 -43.6281,22.6448 -43.947,23.0703 -44.2712,23.5262 -44.5995,24.0129 -44.9304,24.5311 -45.2627,25.081 -45.5948,25.6632 -45.9255,26.2778 -46.2533,26.9251 -46.5767,27.6055 -46.8943,28.319 -47.2046,29.0657 -47.5062,29.8458 -47.7977,30.6593 -47.7946,31.3207 -46.8003,32.7878 -46.1871,33.0357 -45.3236,33.0664 -44.4873,33.0753 -43.6787,33.0637 -42.8983,33.0331 -42.1465,32.9848 -41.4238,32.9202 -40.7304,32.8408 -40.0667,32.748 -39.4328,32.6432 -38.8289,32.5278 -38.2551,32.4032 -37.7115,32.271 -37.1981,32.1324 -36.7149,31.989 -36.2618,31.8421 -35.8386,31.6932 -35.4451,31.5436 -35.0811,31.3947 -34.7463,31.2479 -34.4403,31.1046 -34.1628,30.9661 -33.9133,30.8337 -33.6912,30.7087 -33.4962,30.5923 -33.3275,30.486 -33.1846,30.3908 -33.0668,30.308 -32.9733,30.2388 -32.9034,30.1843 -32.8562,30.1457 -32.8311,30.124 -30.789,28.2504 -26.053,32.6694 -27.7808,34.8362 -27.8007,34.8628 -27.836,34.9125 -27.8855,34.986 -27.9481,35.0841 -28.0225,35.2074 -28.1076,35.3565 -28.202,35.5321 -28.3046,35.7348 -28.4139,35.9649 -28.5288,36.223 -28.6478,36.5094 -28.7696,36.8246 -28.8928,37.1687 -29.0162,37.5422 -29.1382,37.9451 -29.2575,38.3776 -29.3727,38.8398 -29.4823,39.3317 -29.585,39.8535 -29.6794,40.4049 -29.7639,40.9859 -29.8373,41.5963 -29.898,42.236 -29.9447,42.9046 -29.976,43.6018 -29.9904,44.3272 -29.9866,45.0805 -29.9631,45.8612 -29.9187,46.6686 -29.852,47.5024 -29.7617,48.3617 -29.4719,48.9563 -27.9396,49.8466 -27.2795,49.804 -26.4882,49.457 -25.7308,49.1021 -25.0073,48.7409 -24.3175,48.3747 -23.6611,48.005 -23.038,47.6332 -22.4477,47.2608 -21.89,46.8892 -21.3643,46.5197 -20.8703,46.1537 -20.4074,45.7926 -19.9751,45.4376 -19.5726,45.09 -19.1995,44.7511 -18.855,44.4222 -18.5383,44.1044 -18.2487,43.7988 -17.9853,43.5068 -17.7473,43.2293 -17.5339,42.9674 -17.3439,42.7222 -17.1766,42.4946 -17.0308,42.2856 -16.9055,42.0962 -16.7997,41.9272 -16.7122,41.7794 -16.642,41.6537 -16.5878,41.5508 -16.5484,41.4714 -16.5227,41.4161 -16.5094,41.3857 -15.4825,38.8116 -9.2982,40.7381 -9.9148,43.44 -9.9212,43.4726 -9.9314,43.5327 -9.9441,43.6204 -9.9579,43.7359 -9.9715,43.8792 -9.9834,44.0505 -9.9923,44.2497 -9.9968,44.4768 -9.9955,44.7316 -9.987,45.0139 -9.9699,45.3237 -9.9429,45.6605 -9.9046,46.024 -9.8537,46.414 -9.7889,46.8299 -9.7087,47.2713 -9.6119,47.7378 -9.4973,48.2286 -9.3634,48.7432 -9.2092,49.281 -9.0333,49.8411 -8.8345,50.4229 -8.6117,51.0256 -8.3637,51.6482 -8.0893,52.2899 -7.7875,52.9498 -7.4573,53.6268 -7.0974,54.32 -6.7071,55.0283 -6.2852,55.7505 -5.831,56.4855 -5.3119,56.8954 -3.545,57.0328 -2.9689,56.708 -2.4064,56.052 -1.878,55.4037 -1.3829,54.7643 -0.9203,54.135 -0.4894,53.5172 -0.0892,52.9119 0.281,52.3203 0.6223,51.7434 0.9355,51.1825 1.2218,50.6384 1.4822,50.1121 1.7177,49.6047 1.9295,49.1169 2.1186,48.6497 2.2863,48.2039 2.4337,47.7801 2.5621,47.3792 2.6727,47.0018 2.7667,46.6485 2.8454,46.3199 2.9101,46.0166 2.9622,45.7389 3.0028,45.4874 3.0335,45.2624 3.0555,45.0642 3.0702,44.8931 3.079,44.7494 3.0832,44.6331 3.0842,44.5445 3.0833,44.4836 3.0821,44.4504 2.8905,41.6856 9.2982,40.7381 9.915,43.44 9.9234,43.4721 9.9402,43.5307 9.9668,43.6152 10.0045,43.7253 10.0545,43.8603 10.118,44.0198 10.1965,44.2031 10.291,44.4097 10.4027,44.6386 10.5329,44.8893 10.6826,45.161 10.8531,45.4527 11.0453,45.7637 11.2604,46.0929 11.4993,46.4395 11.763,46.8025 12.0526,47.1807 12.3689,47.5732 12.7127,47.9788 13.085,48.3963 13.4866,48.8247 13.9181,49.2626 14.3803,49.7089 14.8739,50.1623 15.3995,50.6214 15.9577,51.085 16.5491,51.5517 17.174,52.0201 17.833,52.4888 18.5264,52.9565 19.2546,53.4216 19.9001,53.5658 21.5516,52.9229 21.9298,52.3803 22.1519,51.5452 22.3467,50.7318 22.5153,49.9409 22.6591,49.1733 22.7793,48.4296 22.8772,47.7107 22.9541,47.017 23.0113,46.3492 23.0501,45.7079 23.072,45.0935 23.0783,44.5064 23.0703,43.947 23.0494,43.4156 23.0171,42.9126 22.9748,42.4382 22.9237,41.9924 22.8655,41.5755 22.8013,41.1875 22.7327,40.8284 22.6611,40.4983 22.5878,40.1969 22.5142,39.9241 22.4417,39.6799 22.3717,39.4638 22.3056,39.2757 22.2446,39.1152 22.1901,38.9819 22.1434,38.8753 22.1059,38.7951 22.0787,38.7405 22.0632,38.7111 20.6909,36.3033 26.053,32.6694 27.781,34.8361 27.8025,34.8614 27.8431,34.9069 27.9037,34.9715 27.9854,35.0543 28.089,35.1543 28.2155,35.2704 28.3657,35.4016 28.5405,35.5466 28.7405,35.7045 28.9665,35.8739 29.2193,36.0536 29.4995,36.2425 29.8076,36.4393 30.1442,36.6426 30.5098,36.8512 30.9049,37.0638 31.3299,37.2789 31.7852,37.4953 32.271,37.7115 32.7876,37.9262 33.3352,38.1379 33.914,38.3453 34.5241,38.5468 35.1655,38.7411 35.8383,38.9267 36.5424,39.1022 37.2776,39.2661 38.0439,39.417 38.841,39.5534 39.6687,39.6738 40.5266,39.777 41.1707,39.6267 42.3797,38.331 42.485,37.678 42.3228,36.8293 42.1454,36.0119 41.9542,35.2262 41.7507,34.4722 41.5363,33.75 41.3125,33.0598 41.0808,32.4015 40.8426,31.775 40.5994,31.1803 40.3525,30.6172 40.1034,30.0856 39.8535,29.585 39.6042,29.1154 39.3568,28.6762 39.1128,28.2671 38.8734,27.8876 38.64,27.5373 38.4139,27.2156 38.1963,26.9218 37.9885,26.6554 37.7916,26.4156 37.607,26.2018 37.4357,26.0132 37.2789,25.8489 37.1377,25.7082 37.0131,25.59 36.9062,25.4935 36.8179,25.4178 36.7492,25.3618 36.7011,25.3244 36.6744,25.3047 34.3933,23.7307 37.6476,18.1301 40.1446,19.3325 40.175,19.346 40.2313,19.3693 40.314,19.4012 40.4235,19.4404 40.5602,19.4856 40.7246,19.5353 40.9168,19.5883 41.1372,19.6432 41.3859,19.6986 41.663,19.7531 41.9688,19.8054 42.3031,19.854 42.6661,19.8976 43.0576,19.9348 43.4776,19.9641 43.9258,19.9841 44.402,19.9936 44.9061,19.991 45.4376,19.9751 45.9961,19.9443 46.5814,19.8975 47.1929,19.8331 47.83,19.75 48.4922,19.6468 49.1789,19.5221 49.8894,19.3747 50.6229,19.2034 51.3788,19.0068 52.1561,18.7839 52.9541,18.5333 53.7718,18.254 54.2869,17.8392 54.814,16.1471 54.6256,15.5131 54.1112,14.8188 53.5967,14.1594 53.0835,13.5345 52.573,12.9434 52.0665,12.3858 51.5654,11.861 51.071,11.3684 50.5846,10.9073 50.1074,10.4771 49.6406,10.0769 49.1855,9.706 48.7432,9.3634 48.3148,9.0484 47.9014,8.7601 47.504,8.4974 47.1237,8.2593 46.7614,8.045 46.4181,7.8532 46.0946,7.683 45.7918,7.5331 45.5104,7.4025 45.2513,7.29 45.0151,7.1943 44.8026,7.1144 44.6143,7.0488 44.4508,6.9964 44.3126,6.9559 44.2002,6.9259 44.114,6.9053 44.0544,6.8925 44.0218,6.8863 41.2837,6.4579 "/><g class="guides"><polyline fill="none" stroke="#444" stroke-width="0.5" stroke-miterlimit="10" points="10,0 -10,0"/><polyline fill="none" stroke="#444" stroke-width="0.5" stroke-miterlimit="10" points="0,10 0,-10"/></g><circle fill="#c00" class="firstmarker" stroke="none" stroke-miterlimit="10" cx="49.4621" cy="-7.3144" r="2.8036"/><g class="geartext"><g class="text"><polyline fill="none" stroke="#444" stroke-width="0.5" stroke-linecap="square" stroke-miterlimit="1"  points="-19.61 -25.08 -20.38 -24.46 -21.14 -23.81 -21.87 -23.13 -22.58 -22.44 "/><polyline fill="none" stroke="#444" stroke-width="0.5" stroke-linecap="square" stroke-miterlimit="1"  points="-19.82 -22.32 -22.46 -25.29 "/><polyline fill="none" stroke="#444" stroke-width="0.5" stroke-linecap="square" stroke-miterlimit="1"  points="-20.84 -26.65 -21.02 -25.22 -21.14 -23.81 -21.19 -22.41 -21.17 -21.04 "/><polyline fill="none" stroke="#444" stroke-width="0.5" stroke-linecap="square" stroke-miterlimit="1"  points="-18.38 -23.51 -19.75 -23.69 -21.14 -23.81 -22.55 -23.86 -23.99 -23.84 "/><polyline fill="none" stroke="#444" stroke-width="0.5" stroke-linecap="square" stroke-miterlimit="1"  points="-14.5 -26.09 -14.8 -24.77 -15.57 -24.29 -16.88 -24.62 -19.13 -27.9 -18.79 -29.32 -17.86 -29.89 -16.43 -29.57 -14.5 -26.09 "/><polyline fill="none" stroke="#444" stroke-width="0.5" stroke-linecap="square" stroke-miterlimit="1"  points="-5.67 -34.36 -4.7 -28.47 -5.87 -29.77 -7.14 -31.03 -8.48 -32.23 -9.91 -33.38 -8.21 -27.66 "/><polyline fill="none" stroke="#444" stroke-width="0.5" stroke-linecap="square" stroke-miterlimit="1"  points="0.79 -32.82 -0.24 -32.83 -1.27 -32.81 -2.29 -32.75 -3.31 -32.66 "/><polyline fill="none" stroke="#444" stroke-width="0.5" stroke-linecap="square" stroke-miterlimit="1"  points="0.74 -30.83 -0.23 -30.84 -1.19 -30.82 -2.15 -30.77 -3.11 -30.68 "/><polyline fill="none" stroke="#444" stroke-width="0.5" stroke-linecap="square" stroke-miterlimit="1"  points="2.92 -33.7 4.09 -34.58 3.39 -28.65 "/><polyline fill="none" stroke="#444" stroke-width="0.5" stroke-linecap="square" stroke-miterlimit="1"  points="4.28 -28.53 3.39 -28.65 2.49 -28.74 "/><polyline fill="none" stroke="#444" stroke-width="0.5" stroke-linecap="square" stroke-miterlimit="1"  points="10.18 -29.11 9.27 -29.42 8.34 -29.69 7.41 -29.94 6.47 -30.16 7.73 -31.23 9.06 -32.25 10.46 -33.21 8.67 -27.52 "/><polyline fill="none" stroke="#444" stroke-width="0.5" stroke-linecap="square" stroke-miterlimit="1"  points="16.78 -27.06 17.62 -26.52 18.44 -25.95 19.24 -25.37 20.65 -25.53 21.27 -26.3 21.04 -27.74 20.17 -28.39 19.27 -29 18.35 -29.59 15.21 -24.52 "/><polyline fill="none" stroke="#444" stroke-width="0.5" stroke-linecap="square" stroke-miterlimit="1"  points="19.51 -21.25 22.2 -24.19 "/><polyline fill="none" stroke="#444" stroke-width="0.5" stroke-linecap="square" stroke-miterlimit="1"  points="22.88 -24.92 23.55 -25.65 "/><polyline fill="none" stroke="#444" stroke-width="0.5" stroke-linecap="square" stroke-miterlimit="1"  points="23.93 -17.84 22.58 -17.96 22.77 -19.3 26.56 -22.52 "/><polyline fill="none" stroke="#444" stroke-width="0.5" stroke-linecap="square" stroke-miterlimit="1"  points="26.32 -19.62 25.7 -20.44 25.04 -21.23 24.37 -22 23.67 -22.75 "/><polyline fill="none" stroke="#444" stroke-width="0.5" stroke-linecap="square" stroke-miterlimit="1"  points="25.94 -12.63 25.53 -13.44 25.1 -14.23 24.64 -15 25 -16.31 26.66 -17.4 28.04 -17.07 28.56 -16.19 29.05 -15.29 29.52 -14.37 "/><polyline fill="none" stroke="#444" stroke-width="0.5" stroke-linecap="square" stroke-miterlimit="1"  points="28.52 -11.74 29.8 -11.2 31.08 -10.58 31.4 -9.6 30.72 -8.36 27.84 -7.57 "/><polyline fill="none" stroke="#444" stroke-width="0.5" stroke-linecap="square" stroke-miterlimit="1"  points="26.68 -10.99 32.2 -13.26 "/><polyline fill="none" stroke="#444" stroke-width="0.5" stroke-linecap="square" stroke-miterlimit="1"  points="28.82 -1.35 28.85 -0.45 28.85 0.45 28.82 1.35 29.76 2.33 33.72 2.64 34.78 1.63 34.82 0.54 34.82 -0.54 34.78 -1.63 "/><polyline fill="none" stroke="#444" stroke-width="0.5" stroke-linecap="square" stroke-miterlimit="1"  points="34.82 -0.54 28.85 -0.45 "/><polyline fill="none" stroke="#444" stroke-width="0.5" stroke-linecap="square" stroke-miterlimit="1"  points="31.68 8.62 31.93 7.62 32.16 6.62 32.35 5.62 32.51 4.6 "/><polyline fill="none" stroke="#444" stroke-width="0.5" stroke-linecap="square" stroke-miterlimit="1"  points="29.76 8.1 30 7.16 30.21 6.22 30.39 5.27 30.54 4.32 "/><polyline fill="none" stroke="#444" stroke-width="0.5" stroke-linecap="square" stroke-miterlimit="1"  points="32.02 10.9 32.6 12.25 27.01 10.15 "/><polyline fill="none" stroke="#444" stroke-width="0.5" stroke-linecap="square" stroke-miterlimit="1"  points="26.68 10.99 27.01 10.15 27.31 9.3 "/><polyline fill="none" stroke="#444" stroke-width="0.5" stroke-linecap="square" stroke-miterlimit="1"  points="26.11 18.22 25.52 19.03 24.92 19.82 24.29 20.59 24.37 22 25.11 22.67 26.56 22.52 27.25 21.67 27.92 20.81 28.55 19.93 23.66 16.51 "/><polyline fill="none" stroke="#444" stroke-width="0.5" stroke-linecap="square" stroke-miterlimit="1"  points="19.84 26.16 20.65 25.53 21.44 24.87 22.2 24.19 22.95 23.48 "/><polyline fill="none" stroke="#444" stroke-width="0.5" stroke-linecap="square" stroke-miterlimit="1"  points="18.64 24.57 19.4 23.98 20.14 23.36 20.86 22.72 21.56 22.06 "/><polyline fill="none" stroke="#444" stroke-width="0.5" stroke-linecap="square" stroke-miterlimit="1"  points="18.72 28.18 18.35 29.59 15.21 24.52 "/><polyline fill="none" stroke="#444" stroke-width="0.5" stroke-linecap="square" stroke-miterlimit="1"  points="14.43 24.98 15.21 24.52 15.97 24.03 "/><polyline fill="none" stroke="#444" stroke-width="0.5" stroke-linecap="square" stroke-miterlimit="1"  points="10.18 29.11 11.09 28.78 11.98 28.42 12.86 28.03 13.73 27.62 13.42 29.24 13.01 30.86 12.52 32.49 10.37 26.92 "/><polyline fill="none" stroke="#444" stroke-width="0.5" stroke-linecap="square" stroke-miterlimit="1"  points="3.74 31.62 2.75 31.72 1.76 31.79 0.76 31.83 -0.24 32.83 -0.25 33.83 0.83 34.81 1.92 34.77 3.01 34.69 4.09 34.58 3.39 28.65 "/><polyline fill="none" stroke="#444" stroke-width="0.5" stroke-linecap="square" stroke-miterlimit="1"  points="-2.01 28.78 -2.15 30.77 -3.31 32.66 -4.59 34.52 -5.35 32.39 -5.97 30.26 -5.59 28.31 "/><polyline fill="none" stroke="#444" stroke-width="0.5" stroke-linecap="square" stroke-miterlimit="1"  points="-2.15 30.77 -3.11 30.68 -4.07 30.57 -5.02 30.43 -5.97 30.26 "/><polyline fill="none" stroke="#444" stroke-width="0.5" stroke-linecap="square" stroke-miterlimit="1"  points="-12.25 30.46 -11.29 30.83 -10.32 31.17 -9.34 31.47 -8.36 31.75 "/><polyline fill="none" stroke="#444" stroke-width="0.5" stroke-linecap="square" stroke-miterlimit="1"  points="-11.51 28.62 -10.61 28.96 -9.7 29.28 -8.78 29.57 -7.85 29.83 "/><polyline fill="none" stroke="#444" stroke-width="0.5" stroke-linecap="square" stroke-miterlimit="1"  points="-15.57 24.29 -14.8 24.77 -14.02 25.22 -13.22 25.64 -12.42 26.04 -13.27 27.84 -14.59 28.3 -15.47 27.83 -16.33 27.33 -17.71 27.64 -18.25 28.48 -17.86 29.89 -16.92 30.44 -15.96 30.95 -14.56 30.53 "/><polyline fill="none" stroke="#444" stroke-width="0.5" stroke-linecap="square" stroke-miterlimit="1"  points="-20.58 28.09 -21.45 27.43 -22.29 26.75 -23.12 26.04 -23.92 25.3 -21.14 23.81 -18.47 22.16 "/></g></g><g class="guides gearguides" opacity="0.2"><circle class="pitch" fill="none" stroke="#f00" stroke-miterlimit="10" cx="0" cy="0" r="50"/><circle class="outer" fill="none" stroke="#ccc" stroke-miterlimit="10" stroke-dasharray="2,2" cx="0" cy="0" r="57.14"/><circle class="base" fill="none" stroke="#00f" stroke-miterlimit="10" stroke-dasharray="2,2" cx="0" cy="0" r="44.55"/></g></svg>