<?xml version="1.0" encoding="utf-8"?><!-- Generator: Iparigrafika Gear Generator by Abel Vincze http://geargenerator.com/ --><svg version="1.2" class="svggear" xmlns="http://www.w3.org/2000/svg" xmlns:xlink="http://www.w3.org/1999/xlink" x="0px" y="0px" width="60px" height="60px" viewBox="-30 -30 60 60" overflow="scroll" xml:space="preserve"><polygon id="gearpoly2" data-id="2" class="gear" fill="#ddd" stroke="#444" stroke-width="1" stroke-miterlimit="10" points="19.25,0 22.4733,0 22.5006,-0.0011 22.5552,-0.005 22.6369,-0.0136 22.7454,-0.029 22.8801,-0.0528 23.0408,-0.087 23.2267,-0.1335 23.4372,-0.1939 23.6716,-0.2701 23.9288,-0.3639 24.208,-0.4767 24.5081,-0.6104 24.8279,-0.7665 25.1663,-0.9465 25.5219,-1.1519 25.8934,-1.3841 26.2792,-1.6445 26.6778,-1.9342 27.0876,-2.2545 27.507,-2.6065 27.9342,-2.9913 28.3674,-3.4097 28.8048,-3.8627 29.2444,-4.3511 29.6034,-4.8621 29.3214,-6.3446 28.7999,-6.6883 28.2117,-6.9811 27.6386,-7.242 27.082,-7.4722 26.5434,-7.6732 26.0241,-7.8467 25.5252,-7.9942 25.0481,-8.1174 24.5937,-8.2179 24.1629,-8.2975 23.7567,-8.358 23.3759,-8.4013 23.0211,-8.429 22.6929,-8.4432 22.3917,-8.4458 22.118,-8.4385 21.8721,-8.4234 21.6541,-8.4023 21.4641,-8.3773 21.3021,-8.3501 21.168,-8.3228 21.0615,-8.2973 20.9823,-8.2753 20.9301,-8.2589 20.9043,-8.2498 17.906,-7.0666 15.5736,-11.3149 18.1812,-13.2095 18.2028,-13.2264 18.2447,-13.2617 18.3056,-13.3167 18.3844,-13.3928 18.4794,-13.4913 18.5892,-13.6135 18.7124,-13.7603 18.8471,-13.933 18.9919,-14.1323 19.1449,-14.3594 19.3045,-14.6148 19.4687,-14.8993 19.6357,-15.2136 19.8036,-15.5582 19.9706,-15.9333 20.1346,-16.3395 20.2937,-16.7769 20.4459,-17.2456 20.5892,-17.7456 20.7216,-18.2769 20.8411,-18.8393 20.9456,-19.4325 21.0331,-20.0561 21.1017,-20.7095 21.0917,-21.334 19.9922,-22.3676 19.3683,-22.3391 18.7204,-22.2303 18.1034,-22.1044 17.5178,-21.9635 16.9639,-21.8096 16.4417,-21.6447 15.9515,-21.4708 15.4931,-21.29 15.0663,-21.1042 14.6711,-20.9154 14.3069,-20.7257 13.9734,-20.5368 13.67,-20.3507 13.3961,-20.1693 13.151,-19.9943 12.9338,-19.8275 12.7438,-19.6708 12.5798,-19.5256 12.4408,-19.3936 12.3257,-19.2765 12.2332,-19.1755 12.1621,-19.0923 12.1109,-19.028 12.0783,-18.984 12.0628,-18.9615 10.3326,-16.2419 5.9486,-18.3078 6.9446,-21.3734 6.9521,-21.3997 6.9652,-21.4529 6.9822,-21.5332 7.0012,-21.6411 7.0201,-21.7766 7.0372,-21.94 7.0505,-22.1312 7.0581,-22.3501 7.058,-22.5965 7.0484,-22.8701 7.0273,-23.1705 6.9929,-23.4972 6.9432,-23.8496 6.8766,-24.2271 6.7912,-24.6288 6.6851,-25.0538 6.5567,-25.5011 6.4044,-25.9698 6.2264,-26.4586 6.0212,-26.9662 5.7873,-27.4914 5.5232,-28.0327 5.2275,-28.5886 4.8989,-29.1576 4.5238,-29.657 3.0267,-29.8469 2.5387,-29.4571 2.0785,-28.9882 1.6533,-28.5238 1.2624,-28.0656 0.9047,-27.6154 0.5792,-27.1751 0.2848,-26.7463 0.0202,-26.3306 -0.2158,-25.9294 -0.4247,-25.5444 -0.6077,-25.1768 -0.7665,-24.8279 -0.9026,-24.4991 -1.0175,-24.1913 -1.113,-23.9057 -1.1906,-23.6431 -1.2523,-23.4046 -1.2996,-23.1907 -1.3345,-23.0023 -1.3587,-22.8398 -1.3742,-22.7038 -1.3828,-22.5946 -1.3864,-22.5126 -1.387,-22.4578 -1.3863,-22.4305 -1.1875,-19.2133 -5.9486,-18.3078 -6.9447,-21.3733 -6.9541,-21.399 -6.9747,-21.4498 -7.0082,-21.5248 -7.0562,-21.6232 -7.1206,-21.744 -7.2028,-21.8862 -7.3044,-22.0487 -7.4269,-22.2302 -7.5718,-22.4295 -7.7404,-22.6452 -7.9341,-22.8758 -8.154,-23.1199 -8.4013,-23.3759 -8.677,-23.6421 -8.9823,-23.9168 -9.3179,-24.1983 -9.6847,-24.4848 -10.0834,-24.7744 -10.5147,-25.0652 -10.9791,-25.3553 -11.477,-25.6427 -12.0089,-25.9254 -12.5748,-26.2013 -13.1751,-26.4685 -13.7721,-26.652 -15.0949,-25.9257 -15.2606,-25.3235 -15.3574,-24.6737 -15.4283,-24.048 -15.4753,-23.4475 -15.5001,-22.8731 -15.5046,-22.3256 -15.4907,-21.8056 -15.4604,-21.3137 -15.4155,-20.8505 -15.3582,-20.4162 -15.2902,-20.0112 -15.2136,-19.6357 -15.1304,-19.2896 -15.0425,-18.9731 -14.9518,-18.6859 -14.8603,-18.4279 -14.77,-18.1986 -14.6826,-17.9978 -14.6,-17.8249 -14.5242,-17.6792 -14.4567,-17.56 -14.3995,-17.4667 -14.3542,-17.3981 -14.3225,-17.3535 -14.3058,-17.3318 -12.254,-14.8459 -15.5736,-11.3149 -18.1813,-13.2094 -18.204,-13.2247 -18.2505,-13.2536 -18.3217,-13.2946 -18.4184,-13.346 -18.5415,-13.4059 -18.6916,-13.4726 -18.8693,-13.5443 -19.0751,-13.6192 -19.3095,-13.6952 -19.5727,-13.7706 -19.8649,-13.8434 -20.1863,-13.9116 -20.5368,-13.9734 -20.9163,-14.0266 -21.3248,-14.0695 -21.7617,-14.1 -22.2269,-14.1161 -22.7197,-14.116 -23.2395,-14.0978 -23.7857,-14.0595 -24.3575,-13.9994 -24.9539,-13.9154 -25.574,-13.806 -26.2167,-13.6693 -26.8075,-13.4669 -27.4508,-12.1018 -27.2309,-11.5172 -26.9272,-10.9346 -26.6168,-10.3867 -26.3019,-9.8733 -25.9843,-9.394 -25.6661,-8.9484 -25.3492,-8.5359 -25.0356,-8.1558 -24.727,-7.8074 -24.4254,-7.4898 -24.1323,-7.2021 -23.8496,-6.9432 -23.5789,-6.7122 -23.3217,-6.5078 -23.0796,-6.3288 -22.8539,-6.1738 -22.646,-6.0415 -22.4573,-5.9303 -22.2889,-5.8389 -22.1418,-5.7657 -22.0173,-5.7089 -21.9161,-5.667 -21.8392,-5.6382 -21.7873,-5.6208 -21.761,-5.6129 -18.6399,-4.8079 -19.25,0 -22.4733,0 -22.5006,0.0011 -22.5552,0.005 -22.6369,0.0136 -22.7454,0.029 -22.8801,0.0528 -23.0408,0.087 -23.2267,0.1335 -23.4372,0.1939 -23.6716,0.2701 -23.9288,0.3639 -24.208,0.4767 -24.5081,0.6104 -24.8279,0.7665 -25.1663,0.9465 -25.5219,1.1519 -25.8934,1.3841 -26.2792,1.6445 -26.6778,1.9342 -27.0876,2.2545 -27.507,2.6065 -27.9342,2.9913 -28.3674,3.4097 -28.8048,3.8627 -29.2444,4.3511 -29.6034,4.8621 -29.3214,6.3446 -28.7999,6.6883 -28.2117,6.9811 -27.6386,7.242 -27.082,7.4722 -26.5434,7.6732 -26.0241,7.8467 -25.5252,7.9942 -25.0481,8.1174 -24.5937,8.2179 -24.1629,8.2975 -23.7567,8.358 -23.3759,8.4013 -23.0211,8.429 -22.6929,8.4432 -22.3917,8.4458 -22.118,8.4385 -21.8721,8.4234 -21.6541,8.4023 -21.4641,8.3773 -21.3021,8.3501 -21.168,8.3228 -21.0615,8.2973 -20.9823,8.2753 -20.9301,8.2589 -20.9043,8.2498 -17.906,7.0666 -15.5736,11.3149 -18.1812,13.2095 -18.2028,13.2264 -18.2447,13.2617 -18.3056,13.3167 -18.3844,13.3928 -18.4794,13.4913 -18.5892,13.6135 -18.7124,13.7603 -18.8471,13.933 -18.9919,14.1323 -19.1449,14.3594 -19.3045,14.6148 -19.4687,14.8993 -19.6357,15.2136 -19.8036,15.5582 -19.9706,15.9333 -20.1346,16.3395 -20.2937,16.7769 -20.4459,17.2456 -20.5892,17.7456 -20.7216,18.2769 -20.8411,18.8393 -20.9456,19.4325 -21.0331,20.0561 -21.1017,20.7095 -21.0917,21.334 -19.9922,22.3676 -19.3683,22.3391 -18.7204,22.2303 -18.1034,22.1044 -17.5178,21.9635 -16.9639,21.8096 -16.4417,21.6447 -15.9515,21.4708 -15.4931,21.29 -15.0663,21.1042 -14.6711,20.9154 -14.3069,20.7257 -13.9734,20.5368 -13.67,20.3507 -13.3961,20.1693 -13.151,19.9943 -12.9338,19.8275 -12.7438,19.6708 -12.5798,19.5256 -12.4408,19.3936 -12.3257,19.2765 -12.2332,19.1755 -12.1621,19.0923 -12.1109,19.028 -12.0783,18.984 -12.0628,18.9615 -10.3326,16.2419 -5.9486,18.3078 -6.9446,21.3734 -6.9521,21.3997 -6.9652,21.4529 -6.9822,21.5332 -7.0012,21.6411 -7.0201,21.7766 -7.0372,21.94 -7.0505,22.1312 -7.0581,22.3501 -7.058,22.5965 -7.0484,22.8701 -7.0273,23.1705 -6.9929,23.4972 -6.9432,23.8496 -6.8766,24.2271 -6.7912,24.6288 -6.6851,25.0538 -6.5567,25.5011 -6.4044,25.9698 -6.2264,26.4586 -6.0212,26.9662 -5.7873,27.4914 -5.5232,28.0327 -5.2275,28.5886 -4.8989,29.1576 -4.5238,29.657 -3.0267,29.8469 -2.5387,29.4571 -2.0785,28.9882 -1.6533,28.5238 -1.2624,28.0656 -0.9047,27.6154 -0.5792,27.1751 -0.2848,26.7463 -0.0202,26.3306 0.2158,25.9294 0.4247,25.5444 0.6077,25.1768 0.7665,24.8279 0.9026,24.4991 1.0175,24.1913 1.113,23.9057 1.1906,23.6431 1.2523,23.4046 1.2996,23.1907 1.3345,23.0023 1.3587,22.8398 1.3742,22.7038 1.3828,22.5946 1.3864,22.5126 1.387,22.4578 1.3863,22.4305 1.1875,19.2133 5.9486,18.3078 6.9447,21.3733 6.9541,21.399 6.9747,21.4498 7.0082,21.5248 7.0562,21.6232 7.1206,21.744 7.2028,21.8862 7.3044,22.0487 7.4269,22.2302 7.5718,22.4295 7.7404,22.6452 7.9341,22.8758 8.154,23.1199 8.4013,23.3759 8.677,23.6421 8.9823,23.9168 9.3179,24.1983 9.6847,24.4848 10.0834,24.7744 10.5147,25.0652 10.9791,25.3553 11.477,25.6427 12.0089,25.9254 12.5748,26.2013 13.1751,26.4685 13.7721,26.652 15.0949,25.9257 15.2606,25.3235 15.3574,24.6737 15.4283,24.048 15.4753,23.4475 15.5001,22.8731 15.5046,22.3256 15.4907,21.8056 15.4604,21.3137 15.4155,20.8505 15.3582,20.4162 15.2902,20.0112 15.2136,19.6357 15.1304,19.2896 15.0425,18.9731 14.9518,18.6859 14.8603,18.4279 14.77,18.1986 14.6826,17.9978 14.6,17.8249 14.5242,17.6792 14.4567,17.56 14.3995,17.4667 14.3542,17.3981 14.3225,17.3535 14.3058,17.3318 12.254,14.8459 15.5736,11.3149 18.1813,13.2094 18.204,13.2247 18.2505,13.2536 18.3217,13.2946 18.4184,13.346 18.5415,13.4059 18.6916,13.4726 18.8693,13.5443 19.0751,13.6192 19.3095,13.6952 19.5727,13.7706 19.8649,13.8434 20.1863,13.9116 20.5368,13.9734 20.9163,14.0266 21.3248,14.0695 21.7617,14.1 22.2269,14.1161 22.7197,14.116 23.2395,14.0978 23.7857,14.0595 24.3575,13.9994 24.9539,13.9154 25.574,13.806 26.2167,13.6693 26.8075,13.4669 27.4508,12.1018 27.2309,11.5172 26.9272,10.9346 26.6168,10.3867 26.3019,9.8733 25.9843,9.394 25.6661,8.9484 25.3492,8.5359 25.0356,8.1558 24.727,7.8074 24.4254,7.4898 24.1323,7.2021 23.8496,6.9432 23.5789,6.7122 23.3217,6.5078 23.0796,6.3288 22.8539,6.1738 22.646,6.0415 22.4573,5.9303 22.2889,5.8389 22.1418,5.7657 22.0173,5.7089 21.9161,5.667 21.8392,5.6382 21.7873,5.6208 21.761,5.6129 18.6399,4.8079 "/><g class="guides"><polyline fill="none" stroke="#444" stroke-width="0.5" stroke-miterlimit="10" points="10,0 -10,0"/><polyline fill="none" stroke="#444" stroke-width="0.5" stroke-miterlimit="10" points="0,10 0,-10"/></g><circle fill="#c00" class="firstmarker" stroke="none" stroke-miterlimit="10" cx="24.5598" cy="-4.671" r="1.9625"/><g class="geartext"><g class="text"><polyline fill="none" stroke="#444" stroke-width="0.5" stroke-linecap="square" stroke-miterlimit="1"  points="-10.72 -10.01 -11.03 -9.67 -11.33 -9.32 -11.61 -8.96 -11.89 -8.59 "/><polyline fill="none" stroke="#444" stroke-width="0.5" stroke-linecap="square" stroke-miterlimit="1"  points="-10.62 -8.74 -12.03 -9.9 "/><polyline fill="none" stroke="#444" stroke-width="0.5" stroke-linecap="square" stroke-miterlimit="1"  points="-11.39 -10.63 -11.37 -9.97 -11.33 -9.32 -11.25 -8.68 -11.14 -8.06 "/><polyline fill="none" stroke="#444" stroke-width="0.5" stroke-linecap="square" stroke-miterlimit="1"  points="-10.05 -9.38 -10.68 -9.37 -11.33 -9.32 -11.97 -9.24 -12.63 -9.13 "/><polyline fill="none" stroke="#444" stroke-width="0.5" stroke-linecap="square" stroke-miterlimit="1"  points="-7.86 -10.72 -8.19 -10.47 -8.51 -10.21 -8.82 -9.94 -9.13 -9.66 -9.76 -10.32 -9.74 -10.97 -9.39 -11.27 -9.03 -11.55 -8.94 -12.2 -9.21 -12.57 -9.88 -12.64 -10.27 -12.32 -10.65 -12 -10.71 -11.32 "/><polyline fill="none" stroke="#444" stroke-width="0.5" stroke-linecap="square" stroke-miterlimit="1"  points="-4.57 -15.38 -3.78 -12.74 -4.4 -13.27 -5.04 -13.77 -5.73 -14.25 -6.45 -14.69 -5.34 -12.17 "/><polyline fill="none" stroke="#444" stroke-width="0.5" stroke-linecap="square" stroke-miterlimit="1"  points="-1.53 -15.05 -2 -14.99 -2.46 -14.92 -2.93 -14.84 -3.39 -14.74 "/><polyline fill="none" stroke="#444" stroke-width="0.5" stroke-linecap="square" stroke-miterlimit="1"  points="-1.43 -14.14 -1.87 -14.08 -2.31 -14.02 -2.75 -13.94 -3.18 -13.85 "/><polyline fill="none" stroke="#444" stroke-width="0.5" stroke-linecap="square" stroke-miterlimit="1"  points="-0.6 -15.57 -0.12 -16.04 -0.1 -13.29 "/><polyline fill="none" stroke="#444" stroke-width="0.5" stroke-linecap="square" stroke-miterlimit="1"  points="0.32 -13.29 -0.1 -13.29 -0.51 -13.28 "/><polyline fill="none" stroke="#444" stroke-width="0.5" stroke-linecap="square" stroke-miterlimit="1"  points="2.46 -13.53 1.97 -13.14 1.56 -13.2 1.19 -13.7 1.35 -15.53 1.88 -15.93 2.38 -15.86 2.79 -15.33 2.46 -13.53 "/><polyline fill="none" stroke="#444" stroke-width="0.5" stroke-linecap="square" stroke-miterlimit="1"  points="5.7 -13.52 6.12 -13.33 6.53 -13.13 6.94 -12.92 7.57 -13.1 7.8 -13.49 7.59 -14.13 7.14 -14.36 6.69 -14.58 6.23 -14.78 5.16 -12.25 "/><polyline fill="none" stroke="#444" stroke-width="0.5" stroke-linecap="square" stroke-miterlimit="1"  points="7.36 -11.07 8.37 -12.6 "/><polyline fill="none" stroke="#444" stroke-width="0.5" stroke-linecap="square" stroke-miterlimit="1"  points="8.62 -12.98 8.88 -13.36 "/><polyline fill="none" stroke="#444" stroke-width="0.5" stroke-linecap="square" stroke-miterlimit="1"  points="9.61 -9.83 8.99 -9.79 8.98 -10.41 10.47 -12.15 "/><polyline fill="none" stroke="#444" stroke-width="0.5" stroke-linecap="square" stroke-miterlimit="1"  points="10.57 -10.82 10.23 -11.14 9.88 -11.46 9.51 -11.76 9.14 -12.05 "/><polyline fill="none" stroke="#444" stroke-width="0.5" stroke-linecap="square" stroke-miterlimit="1"  points="10.9 -7.61 10.66 -7.94 10.4 -8.27 10.14 -8.59 10.21 -9.21 10.89 -9.83 11.54 -9.78 11.84 -9.41 12.13 -9.04 12.4 -8.66 "/><polyline fill="none" stroke="#444" stroke-width="0.5" stroke-linecap="square" stroke-miterlimit="1"  points="12.14 -7.39 12.76 -7.23 13.39 -7.04 13.6 -6.62 13.38 -6.01 12.13 -5.44 "/><polyline fill="none" stroke="#444" stroke-width="0.5" stroke-linecap="square" stroke-miterlimit="1"  points="11.35 -6.91 13.7 -8.34 "/><polyline fill="none" stroke="#444" stroke-width="0.5" stroke-linecap="square" stroke-miterlimit="1"  points="13.02 -2.68 13.1 -2.27 13.16 -1.86 13.21 -1.45 13.71 -1.07 15.54 -1.22 15.95 -1.75 15.88 -2.25 15.81 -2.74 15.71 -3.24 "/><polyline fill="none" stroke="#444" stroke-width="0.5" stroke-linecap="square" stroke-miterlimit="1"  points="15.81 -2.74 13.1 -2.27 "/><polyline fill="none" stroke="#444" stroke-width="0.5" stroke-linecap="square" stroke-miterlimit="1"  points="15.03 1.65 15.08 1.18 15.11 0.71 15.12 0.24 15.12 -0.24 "/><polyline fill="none" stroke="#444" stroke-width="0.5" stroke-linecap="square" stroke-miterlimit="1"  points="14.12 1.55 14.16 1.11 14.19 0.67 14.21 0.22 14.21 -0.22 "/><polyline fill="none" stroke="#444" stroke-width="0.5" stroke-linecap="square" stroke-miterlimit="1"  points="13.27 3.61 12.93 3.09 13.02 2.68 13.55 2.35 15.35 2.67 15.71 3.24 15.6 3.73 15.04 4.09 13.27 3.61 "/><polyline fill="none" stroke="#444" stroke-width="0.5" stroke-linecap="square" stroke-miterlimit="1"  points="13.02 4.43 12.58 4.28 "/><polyline fill="none" stroke="#444" stroke-width="0.5" stroke-linecap="square" stroke-miterlimit="1"  points="13.96 7.91 14.2 7.47 14.42 7.02 14.64 6.57 14.83 6.11 13.99 5.76 13.8 6.19 13.6 6.62 13.39 7.04 12.76 7.23 11.96 6.78 11.76 6.19 11.95 5.82 12.13 5.44 12.71 5.24 "/><polyline fill="none" stroke="#444" stroke-width="0.5" stroke-linecap="square" stroke-miterlimit="1"  points="10.89 9.83 10.57 10.16 10.25 10.49 9.92 10.8 9.88 11.46 10.17 11.8 10.85 11.82 11.21 11.47 11.57 11.12 11.91 10.75 9.87 8.91 "/><polyline fill="none" stroke="#444" stroke-width="0.5" stroke-linecap="square" stroke-miterlimit="1"  points="7.57 13.1 7.97 12.85 8.37 12.6 8.76 12.33 9.14 12.05 "/><polyline fill="none" stroke="#444" stroke-width="0.5" stroke-linecap="square" stroke-miterlimit="1"  points="7.11 12.3 7.49 12.07 7.86 11.83 8.23 11.58 8.59 11.32 "/><polyline fill="none" stroke="#444" stroke-width="0.5" stroke-linecap="square" stroke-miterlimit="1"  points="4.39 12.55 4.78 12.4 5.16 12.25 5.54 12.08 5.92 11.9 6.33 12.72 6.12 13.33 5.7 13.52 5.27 13.69 4.99 14.28 5.14 14.71 5.77 14.97 6.23 14.78 6.69 14.58 6.94 13.95 "/><polyline fill="none" stroke="#444" stroke-width="0.5" stroke-linecap="square" stroke-miterlimit="1"  points="2.46 13.53 2.79 13 3.19 12.9 3.72 13.24 4.22 15 3.85 15.57 3.37 15.68 2.79 15.33 2.46 13.53 "/><polyline fill="none" stroke="#444" stroke-width="0.5" stroke-linecap="square" stroke-miterlimit="1"  points="-0.57 14.66 -1.02 14.63 -1.48 14.59 -1.94 14.54 -2.46 14.92 -2.54 15.38 -2.12 15.9 -1.62 15.96 -1.12 16 -0.62 16.03 -0.51 13.28 "/><polyline fill="none" stroke="#444" stroke-width="0.5" stroke-linecap="square" stroke-miterlimit="1"  points="-2.98 12.95 -3.18 13.85 -3.85 14.63 -4.57 15.38 -4.76 14.36 -4.89 13.34 -4.57 12.48 "/><polyline fill="none" stroke="#444" stroke-width="0.5" stroke-linecap="square" stroke-miterlimit="1"  points="-3.18 13.85 -3.62 13.74 -4.04 13.62 -4.47 13.49 -4.89 13.34 "/><polyline fill="none" stroke="#444" stroke-width="0.5" stroke-linecap="square" stroke-miterlimit="1"  points="-7.76 12.98 -7.35 13.22 -6.93 13.44 -6.51 13.65 -6.08 13.85 "/><polyline fill="none" stroke="#444" stroke-width="0.5" stroke-linecap="square" stroke-miterlimit="1"  points="-7.29 12.2 -6.9 12.42 -6.51 12.63 -6.11 12.83 -5.71 13.01 "/><polyline fill="none" stroke="#444" stroke-width="0.5" stroke-linecap="square" stroke-miterlimit="1"  points="-8.82 9.94 -8.51 10.21 -8.19 10.47 -7.86 10.72 -7.52 10.96 -8.04 11.72 -8.67 11.83 -9.03 11.55 -9.39 11.27 -10.04 11.31 -10.35 11.65 -10.27 12.32 -9.88 12.64 -9.48 12.94 -8.81 12.85 "/><polyline fill="none" stroke="#444" stroke-width="0.5" stroke-linecap="square" stroke-miterlimit="1"  points="-10.4 10.34 -10.72 10.01 -11.03 9.67 -11.33 9.32 -11.25 8.68 -10.89 8.4 -10.26 8.44 -10 8.76 -9.72 9.07 -9.75 9.69 -10.73 10.66 -11.39 10.63 -12.06 10.57 -12.39 10.19 "/></g></g><g class="guides gearguides" opacity="0.2"><circle class="pitch" fill="none" stroke="#f00" stroke-miterlimit="10" cx="0" cy="0" r="25"/><circle class="outer" fill="none" stroke="#ccc" stroke-miterlimit="10" stroke-dasharray="2,2" cx="0" cy="0" r="30"/><circle class="base" fill="none" stroke="#00f" stroke-miterlimit="10" stroke-dasharray="2,2" cx="0" cy="0" r="22.47"/></g></svg>