<?xml version="1.0" encoding="utf-8"?><!-- Generator: Iparigrafika Gear Generator by Abel Vincze http://geargenerator.com/ --><svg version="1.2" class="svggear" xmlns="http://www.w3.org/2000/svg" xmlns:xlink="http://www.w3.org/1999/xlink" x="0px" y="0px" width="310px" height="310px" viewBox="-155 -155 310 310" overflow="scroll" xml:space="preserve"><polygon id="gearpoly1" data-id="1" class="gear" fill="#ddd" stroke="#444" stroke-width="1" stroke-miterlimit="10" points="144.2466,-0.9868 144.3943,-2.5068 144.6753,-2.6213 144.9599,-2.7391 145.248,-2.8604 145.5395,-2.9852 145.8345,-3.1135 146.133,-3.2453 146.4348,-3.3808 146.74,-3.5198 147.0485,-3.6626 147.3603,-3.8091 147.6754,-3.9594 147.9937,-4.1135 148.3152,-4.2715 148.6399,-4.4333 148.9676,-4.5992 149.2985,-4.769 149.6324,-4.9428 149.9694,-5.1207 150.3093,-5.3027 150.6522,-5.4889 150.9979,-5.6792 151.3466,-5.8738 151.6981,-6.0727 152.0523,-6.2759 152.4094,-6.4834 152.7691,-6.6953 153.1315,-6.9116 153.4966,-7.1324 153.8643,-7.3577 154.2345,-7.5876 154.6073,-7.822 154.7908,-8.0511 154.6581,-10.29 154.4488,-10.4958 154.051,-10.6845 153.6562,-10.869 153.2645,-11.0493 152.8759,-11.2255 152.4904,-11.3975 152.1082,-11.5654 151.7291,-11.7293 151.3533,-11.8892 150.9808,-12.0452 150.6116,-12.1972 150.2458,-12.3454 149.8833,-12.4897 149.5243,-12.6303 149.1687,-12.7672 148.8166,-12.9003 148.4679,-13.0299 148.1229,-13.1558 147.7814,-13.2782 147.4435,-13.3971 147.1092,-13.5125 146.7786,-13.6245 146.4516,-13.7332 146.1284,-13.8385 145.8089,-13.9406 145.4932,-14.0394 145.1813,-14.1351 144.8732,-14.2276 144.5689,-14.317 144.2685,-14.4035 143.972,-14.4869 143.6795,-14.5674 143.3533,-16.0593 143.3533,-16.0593 143.3413,-17.5863 143.6088,-17.7296 143.8795,-17.8766 144.1533,-18.0273 144.4302,-18.1819 144.7102,-18.3403 144.9932,-18.5026 145.2792,-18.6688 145.5682,-18.8391 145.8601,-19.0133 146.1549,-19.1916 146.4526,-19.374 146.753,-19.5605 147.0562,-19.7512 147.3622,-19.9462 147.6708,-20.1453 147.9821,-20.3488 148.2961,-20.5566 148.6126,-20.7687 148.9316,-20.9853 149.2531,-21.2062 149.5771,-21.4317 149.9035,-21.6617 150.2323,-21.8962 150.5634,-22.1353 150.8968,-22.379 151.2324,-22.6273 151.5702,-22.8804 151.9102,-23.1381 152.2523,-23.4006 152.5965,-23.6679 152.9427,-23.94 153.1012,-24.187 152.7352,-26.3998 152.5056,-26.5825 152.0902,-26.7287 151.6783,-26.8709 151.2699,-27.0093 150.865,-27.1438 150.4637,-27.2746 150.066,-27.4017 149.6719,-27.5251 149.2814,-27.6448 148.8946,-27.761 148.5116,-27.8736 148.1323,-27.9827 147.7567,-28.0884 147.3849,-28.1907 147.017,-28.2896 146.6529,-28.3852 146.2926,-28.4776 145.9363,-28.5668 145.5839,-28.6528 145.2354,-28.7357 144.8909,-28.8156 144.5504,-28.8924 144.2139,-28.9663 143.8814,-29.0373 143.553,-29.1054 143.2287,-29.1707 142.9085,-29.2332 142.5924,-29.293 142.2804,-29.3502 141.9726,-29.4047 141.669,-29.4567 141.3697,-29.5062 140.8893,-30.9558 140.8893,-30.9558 140.7177,-32.4732 140.9688,-32.6437 141.2227,-32.8181 141.4792,-32.9967 141.7385,-33.1793 142.0004,-33.3661 142.2649,-33.5572 142.532,-33.7524 142.8016,-33.9519 143.0737,-34.1557 143.3482,-34.3638 143.6251,-34.5763 143.9044,-34.7932 144.1861,-35.0146 144.47,-35.2404 144.7561,-35.4708 145.0444,-35.7057 145.3349,-35.9451 145.6275,-36.1892 145.9222,-36.4379 146.2188,-36.6913 146.5175,-36.9494 146.8181,-37.2122 147.1205,-37.4798 147.4248,-37.7522 147.7309,-38.0294 148.0387,-38.3115 148.3482,-38.5984 148.6594,-38.8903 148.9722,-39.1871 149.2866,-39.489 149.6024,-39.7958 149.7343,-40.058 149.139,-42.2203 148.8915,-42.3781 148.4631,-42.48 148.0386,-42.5784 147.618,-42.6733 147.2013,-42.7648 146.7885,-42.853 146.3796,-42.9377 145.9748,-43.0192 145.574,-43.0975 145.1772,-43.1726 144.7844,-43.2446 144.3958,-43.3135 144.0112,-43.3793 143.6308,-43.4422 143.2545,-43.5021 142.8824,-43.5591 142.5145,-43.6134 142.1508,-43.6648 141.7913,-43.7135 141.4361,-43.7595 141.0851,-43.8029 140.7384,-43.8438 140.396,-43.8821 140.058,-43.9179 139.7242,-43.9513 139.3949,-43.9823 139.0699,-44.0111 138.7493,-44.0375 138.4331,-44.0618 138.1213,-44.0838 137.8139,-44.1038 137.511,-44.1217 136.8818,-45.5132 136.8818,-45.5132 136.5525,-47.0044 136.7844,-47.2001 137.0186,-47.4001 137.2551,-47.6045 137.4938,-47.8133 137.7348,-48.0264 137.9779,-48.2441 138.2231,-48.4661 138.4703,-48.6927 138.7196,-48.9238 138.9709,-49.1595 139.2241,-49.3998 139.4792,-49.6448 139.7362,-49.8943 139.9949,-50.1486 140.2554,-50.4076 140.5176,-50.6713 140.7815,-50.9398 141.047,-51.2132 141.314,-51.4913 141.5826,-51.7743 141.8526,-52.0622 142.124,-52.355 142.3969,-52.6527 142.671,-52.9554 142.9464,-53.2631 143.2231,-53.5758 143.5009,-53.8936 143.7799,-54.2164 144.06,-54.5443 144.341,-54.8773 144.6231,-55.2155 144.7268,-55.49 143.9088,-57.5783 143.6462,-57.7094 143.2095,-57.7659 142.777,-57.8194 142.3487,-57.8699 141.9247,-57.9173 141.505,-57.9618 141.0895,-58.0034 140.6784,-58.0421 140.2716,-58.0781 139.8691,-58.1113 139.471,-58.1418 139.0773,-58.1696 138.688,-58.1949 138.303,-58.2177 137.9226,-58.238 137.5465,-58.2558 137.175,-58.2713 136.8079,-58.2844 136.4452,-58.2953 136.0871,-58.3039 135.7336,-58.3104 135.3845,-58.3148 135.04,-58.3171 134.7,-58.3174 134.3647,-58.3157 134.0339,-58.3121 133.7076,-58.3067 133.386,-58.2995 133.069,-58.2906 132.7566,-58.2799 132.4488,-58.2677 132.1457,-58.2538 131.3745,-59.5719 131.3745,-59.5719 130.8912,-61.0205 131.1013,-61.2394 131.3133,-61.4628 131.5272,-61.6908 131.7428,-61.9234 131.9601,-62.1606 132.1791,-62.4024 132.3998,-62.6489 132.622,-62.9001 132.8458,-63.156 133.0711,-63.4167 133.2978,-63.6821 133.5259,-63.9523 133.7553,-64.2274 133.9861,-64.5073 134.2181,-64.7921 134.4513,-65.0818 134.6856,-65.3765 134.9211,-65.676 135.1576,-65.9806 135.3951,-66.2901 135.6335,-66.6046 135.8729,-66.9242 136.1131,-67.2488 136.3541,-67.5785 136.5959,-67.9133 136.8383,-68.2532 137.0814,-68.5983 137.3251,-68.9485 137.5694,-69.3039 137.8141,-69.6644 138.0593,-70.0302 138.1337,-70.3141 137.1019,-72.3054 136.827,-72.4083 136.3868,-72.419 135.9511,-72.4269 135.5199,-72.4323 135.0932,-72.4352 134.6712,-72.4356 134.2536,-72.4335 133.8407,-72.429 133.4324,-72.4223 133.0286,-72.4132 132.6295,-72.402 132.235,-72.3885 131.8452,-72.373 131.46,-72.3554 131.0795,-72.3358 130.7036,-72.3142 130.3325,-72.2907 129.966,-72.2654 129.6043,-72.2383 129.2472,-72.2095 128.8949,-72.179 128.5473,-72.1468 128.2044,-72.1131 127.8663,-72.0779 127.5329,-72.0412 127.2043,-72.003 126.8805,-71.9636 126.5614,-71.9228 126.247,-71.8807 125.9374,-71.8375 125.6326,-71.7931 125.3326,-71.7477 124.4278,-72.9779 124.4278,-72.9779 123.7957,-74.3681 123.9819,-74.6077 124.1694,-74.8521 124.3582,-75.1012 124.5483,-75.355 124.7397,-75.6136 124.9322,-75.877 125.1259,-76.1452 125.3206,-76.4183 125.5164,-76.6962 125.7132,-76.979 125.9109,-77.2667 126.1096,-77.5593 126.309,-77.8568 126.5092,-78.1593 126.7102,-78.4668 126.9118,-78.7793 127.1141,-79.0968 127.3169,-79.4193 127.5203,-79.7469 127.7242,-80.0796 127.9284,-80.4173 128.1331,-80.7602 128.338,-81.1081 128.5433,-81.4612 128.7487,-81.8194 128.9543,-82.1828 129.16,-82.5514 129.3658,-82.9252 129.5715,-83.3041 129.7772,-83.6883 129.9828,-84.0777 130.0272,-84.3678 128.7928,-86.2404 128.5087,-86.314 128.0698,-86.2785 127.6356,-86.2409 127.2063,-86.2012 126.7817,-86.1595 126.3618,-86.1157 125.9468,-86.07 125.5366,-86.0224 125.1312,-85.973 124.7306,-85.9218 124.3349,-85.8689 123.944,-85.8143 123.5579,-85.7581 123.1767,-85.7003 122.8003,-85.641 122.4287,-85.5803 122.0621,-85.5182 121.7003,-85.4547 121.3433,-85.3899 120.9913,-85.3239 120.644,-85.2568 120.3017,-85.1885 119.9643,-85.1191 119.6317,-85.0487 119.304,-84.9773 118.9811,-84.9051 118.6632,-84.832 118.3501,-84.758 118.0418,-84.6834 117.7385,-84.608 117.44,-84.532 117.1464,-84.4555 116.1179,-85.5844 116.1179,-85.5844 115.344,-86.9009 115.504,-87.1587 115.665,-87.4213 115.8267,-87.6887 115.9893,-87.9611 116.1526,-88.2382 116.3165,-88.5203 116.4811,-88.8073 116.6462,-89.0992 116.8119,-89.3961 116.9781,-89.6979 117.1446,-90.0047 117.3116,-90.3164 117.4788,-90.6332 117.6463,-90.955 117.814,-91.2818 117.9819,-91.6136 118.1499,-91.9505 118.3179,-92.2925 118.4859,-92.6396 118.6539,-92.9917 118.8217,-93.3489 118.9894,-93.7113 119.1569,-94.0788 119.3241,-94.4514 119.4909,-94.8291 119.6574,-95.212 119.8235,-95.6001 119.989,-95.9933 120.1541,-96.3917 120.3185,-96.7953 120.4822,-97.204 120.496,-97.4972 119.0727,-99.2305 118.7825,-99.274 118.3497,-99.1928 117.9218,-99.1101 117.4989,-99.0257 117.081,-98.9398 116.6681,-98.8524 116.2601,-98.7635 115.8571,-98.6733 115.4591,-98.5818 115.0661,-98.489 114.678,-98.395 114.2949,-98.2999 113.9169,-98.2036 113.5438,-98.1063 113.1756,-98.008 112.8125,-97.9088 112.4543,-97.8087 112.1011,-97.7077 111.7529,-97.606 111.4097,-97.5036 111.0714,-97.4005 110.7381,-97.2967 110.4097,-97.1925 110.0863,-97.0877 109.7678,-96.9825 109.4543,-96.8769 109.1457,-96.7709 108.8421,-96.6647 108.5434,-96.5582 108.2495,-96.4516 107.9606,-96.3448 107.6766,-96.2379 106.5358,-97.2532 106.5358,-97.2532 105.6285,-98.4815 105.7607,-98.7547 105.8933,-99.0327 106.0263,-99.3156 106.1595,-99.6034 106.2929,-99.8961 106.4264,-100.1938 106.5601,-100.4964 106.6938,-100.804 106.8276,-101.1165 106.9613,-101.434 107.0949,-101.7565 107.2283,-102.0841 107.3615,-102.4166 107.4945,-102.7541 107.6271,-103.0966 107.7593,-103.4442 107.8912,-103.7968 108.0225,-104.1545 108.1534,-104.5172 108.2836,-104.885 108.4132,-105.2578 108.5421,-105.6357 108.6702,-106.0187 108.7975,-106.4067 108.924,-106.7999 109.0496,-107.1981 109.1741,-107.6013 109.2977,-108.0097 109.4202,-108.4232 109.5415,-108.8417 109.6616,-109.2654 109.6447,-109.5584 108.048,-111.1334 107.7548,-111.1463 107.3328,-111.0204 106.916,-110.8933 106.5043,-110.7652 106.0976,-110.6361 105.6961,-110.506 105.2996,-110.375 104.9083,-110.2432 104.522,-110.1105 104.1408,-109.9772 103.7647,-109.8431 103.3937,-109.7084 103.0277,-109.5732 102.6668,-109.4374 102.311,-109.3012 101.9602,-109.1645 101.6145,-109.0275 101.2738,-108.8902 100.9381,-108.7527 100.6075,-108.6149 100.2818,-108.477 99.9612,-108.339 99.6455,-108.201 99.3348,-108.063 99.0291,-107.9251 98.7283,-107.7873 98.4325,-107.6496 98.1416,-107.5122 97.8557,-107.3751 97.5746,-107.2383 97.2984,-107.102 97.0272,-106.966 95.7865,-107.8564 95.7865,-107.8564 94.7557,-108.9832 94.8587,-109.2687 94.9615,-109.559 95.0641,-109.8543 95.1665,-110.1544 95.2686,-110.4595 95.3703,-110.7695 95.4716,-111.0844 95.5725,-111.4043 95.6728,-111.7291 95.7726,-112.0589 95.8717,-112.3936 95.9702,-112.7332 96.0679,-113.0778 96.1649,-113.4274 96.261,-113.782 96.3562,-114.1415 96.4504,-114.5059 96.5437,-114.8754 96.6359,-115.2498 96.7269,-115.6291 96.8168,-116.0135 96.9055,-116.4028 96.9929,-116.797 97.079,-117.1963 97.1637,-117.6005 97.2469,-118.0096 97.3287,-118.4237 97.4089,-118.8427 97.4874,-119.2667 97.5644,-119.6957 97.6396,-120.1296 97.5921,-120.4192 95.8395,-121.8187 95.5466,-121.8009 95.1401,-121.6315 94.7388,-121.4616 94.3427,-121.2911 93.9518,-121.1202 93.566,-120.9489 93.1854,-120.7772 92.81,-120.6051 92.4397,-120.4329 92.0746,-120.2604 91.7146,-120.0878 91.3596,-119.915 91.0098,-119.7423 90.6651,-119.5695 90.3255,-119.3968 89.9909,-119.2243 89.6614,-119.0519 89.3369,-118.8797 89.0174,-118.7078 88.703,-118.5362 88.3935,-118.3651 88.089,-118.1943 87.7895,-118.0241 87.495,-117.8543 87.2054,-117.6852 86.9207,-117.5167 86.6408,-117.3489 86.3659,-117.1819 86.0959,-117.0156 85.8306,-116.8502 85.5702,-116.6857 85.3146,-116.5221 83.9877,-117.278 83.9877,-117.278 82.8448,-118.2909 82.9174,-118.5855 82.9893,-118.885 83.0605,-119.1894 83.1309,-119.4986 83.2005,-119.8127 83.2693,-120.1316 83.3371,-120.4554 83.404,-120.7841 83.4698,-121.1176 83.5346,-121.456 83.5982,-121.7992 83.6606,-122.1473 83.7218,-122.5002 83.7817,-122.858 83.8402,-123.2207 83.8973,-123.5881 83.9529,-123.9605 84.007,-124.3376 84.0596,-124.7196 84.1105,-125.1064 84.1598,-125.4981 84.2073,-125.8945 84.253,-126.2957 84.2968,-126.7018 84.3388,-127.1126 84.3788,-127.5282 84.4168,-127.9486 84.4528,-128.3737 84.4866,-128.8036 84.5183,-129.2382 84.5477,-129.6776 84.4702,-129.9607 82.581,-131.1693 82.2915,-131.121 81.9049,-130.91 81.5236,-130.6991 81.1475,-130.4882 80.7766,-130.2773 80.4109,-130.0666 80.0503,-129.8561 79.6949,-129.6457 79.3447,-129.4357 78.9996,-129.226 78.6595,-129.0167 78.3246,-128.8078 77.9948,-128.5994 77.67,-128.3916 77.3503,-128.1843 77.0356,-127.9778 76.7259,-127.7719 76.4212,-127.5667 76.1214,-127.3624 75.8266,-127.1589 75.5368,-126.9563 75.2518,-126.7547 74.9717,-126.554 74.6965,-126.3544 74.4262,-126.156 74.1607,-125.9586 73.8999,-125.7625 73.644,-125.5676 73.3927,-125.3741 73.1463,-125.1818 72.9045,-124.991 72.6674,-124.8016 71.2687,-125.4146 71.2687,-125.4146 70.0262,-126.3025 70.0676,-126.6031 70.1078,-126.9085 70.1468,-127.2186 70.1845,-127.5335 70.2209,-127.8532 70.256,-128.1775 70.2896,-128.5066 70.3217,-128.8405 70.3523,-129.1791 70.3814,-129.5224 70.4088,-129.8704 70.4344,-130.2231 70.4584,-130.5805 70.4805,-130.9426 70.5008,-131.3093 70.5192,-131.6808 70.5356,-132.0569 70.55,-132.4376 70.5624,-132.823 70.5726,-133.213 70.5806,-133.6077 70.5864,-134.0069 70.5899,-134.4107 70.5911,-134.8191 70.5899,-135.2321 70.5863,-135.6496 70.5801,-136.0716 70.5714,-136.4982 70.5601,-136.9293 70.5462,-137.3648 70.5296,-137.8048 70.4229,-138.0783 68.4177,-139.0828 68.1348,-139.0045 67.7724,-138.7543 67.4152,-138.5047 67.0632,-138.2556 66.7164,-138.0071 66.3747,-137.7593 66.0381,-137.5122 65.7067,-137.2659 65.3803,-137.0204 65.059,-136.7758 64.7427,-136.5321 64.4315,-136.2893 64.1252,-136.0476 63.824,-135.807 63.5276,-135.5674 63.2362,-135.3291 62.9498,-135.0919 62.6682,-134.8561 62.3914,-134.6215 62.1195,-134.3883 61.8524,-134.1565 61.5901,-133.9262 61.3325,-133.6974 61.0797,-133.4702 60.8316,-133.2445 60.5881,-133.0205 60.3493,-132.7982 60.1151,-132.5777 59.8855,-132.3589 59.6605,-132.1419 59.44,-131.9269 59.224,-131.7138 57.7689,-132.1772 57.7689,-132.1772 56.4404,-132.9303 56.4501,-133.2336 56.4582,-133.5415 56.4645,-133.8541 56.4691,-134.1712 56.4719,-134.4928 56.4729,-134.8191 56.4719,-135.1499 56.469,-135.4853 56.4641,-135.8252 56.457,-136.1697 56.4479,-136.5186 56.4366,-136.8721 56.423,-137.23 56.4072,-137.5925 56.3891,-137.9594 56.3685,-138.3307 56.3455,-138.7064 56.32,-139.0866 56.292,-139.4712 56.2614,-139.8601 56.2282,-140.2534 56.1922,-140.6511 56.1535,-141.053 56.112,-141.4593 56.0676,-141.8699 56.0203,-142.2848 55.9701,-142.7038 55.9169,-143.1272 55.8606,-143.5547 55.8012,-143.9864 55.7387,-144.4223 55.604,-144.6831 53.5048,-145.4725 53.2316,-145.365 52.8974,-145.0783 52.5683,-144.7927 52.2442,-144.5082 51.9252,-144.2249 51.6113,-143.9427 51.3024,-143.6618 50.9985,-143.3822 50.6996,-143.1039 50.4056,-142.827 50.1166,-142.5516 49.8324,-142.2777 49.5531,-142.0052 49.2786,-141.7344 49.009,-141.4652 48.7441,-141.1977 48.484,-140.9319 48.2286,-140.6679 47.9779,-140.4057 47.7318,-140.1454 47.4904,-139.887 47.2536,-139.6305 47.0214,-139.376 46.7937,-139.1236 46.5705,-138.8732 46.3518,-138.625 46.1375,-138.379 45.9277,-138.1351 45.7222,-137.8935 45.5211,-137.6543 45.3243,-137.4173 45.1317,-137.1828 43.6362,-137.4916 43.6362,-137.4916 42.2362,-138.1018 42.2142,-138.4044 42.19,-138.7115 42.1637,-139.0229 42.1351,-139.3388 42.1043,-139.659 42.0711,-139.9836 42.0356,-140.3125 41.9976,-140.6457 41.9571,-140.9833 41.9142,-141.3251 41.8686,-141.6712 41.8204,-142.0215 41.7695,-142.3761 41.7159,-142.7349 41.6595,-143.0979 41.6002,-143.465 41.5381,-143.8363 41.473,-144.2117 41.4049,-144.5912 41.3338,-144.9749 41.2597,-145.3625 41.1823,-145.7543 41.1018,-146.15 41.0181,-146.5497 40.931,-146.9534 40.8407,-147.361 40.7469,-147.7726 40.6497,-148.188 40.549,-148.6073 40.4449,-149.0304 40.3371,-149.4574 40.1759,-149.7027 38.0056,-150.2683 37.7453,-150.1329 37.4428,-149.8129 37.1453,-149.4944 36.8528,-149.1776 36.5652,-148.8624 36.2825,-148.549 36.0046,-148.2374 35.7316,-147.9275 35.4634,-147.6195 35.2,-147.3134 34.9413,-147.0093 34.6873,-146.7071 34.438,-146.407 34.1934,-146.109 33.9533,-145.8131 33.7179,-145.5194 33.487,-145.2279 33.2606,-144.9386 33.0386,-144.6516 32.8212,-144.367 32.6081,-144.0847 32.3994,-143.8049 32.195,-143.5276 31.995,-143.2527 31.7992,-142.9804 31.6076,-142.7107 31.4202,-142.4436 31.237,-142.1792 31.0579,-141.9174 30.8829,-141.6584 30.7119,-141.4022 30.545,-141.1489 29.0253,-141.2997 29.0253,-141.2997 27.5693,-141.7601 27.5157,-142.0588 27.4596,-142.3617 27.4008,-142.6687 27.3394,-142.9798 27.2753,-143.295 27.2084,-143.6144 27.1386,-143.9378 27.066,-144.2652 26.9905,-144.5967 26.9121,-144.9321 26.8306,-145.2716 26.746,-145.6149 26.6583,-145.9622 26.5675,-146.3135 26.4735,-146.6686 26.3762,-147.0275 26.2755,-147.3903 26.1716,-147.7568 26.0642,-148.1272 25.9534,-148.5012 25.8391,-148.879 25.7213,-149.2605 25.5998,-149.6457 25.4747,-150.0344 25.346,-150.4268 25.2135,-150.8228 25.0772,-151.2223 24.9372,-151.6253 24.7932,-152.0317 24.6454,-152.4417 24.4936,-152.855 24.3076,-153.0821 22.0901,-153.4178 21.8453,-153.2559 21.578,-152.906 21.3154,-152.5582 21.0576,-152.2126 20.8045,-151.8691 20.5561,-151.5278 20.3124,-151.1888 20.0733,-150.8521 19.8387,-150.5178 19.6087,-150.1858 19.3833,-149.8563 19.1623,-149.5293 18.9457,-149.2048 18.7335,-148.8828 18.5257,-148.5634 18.3223,-148.2467 18.1231,-147.9326 17.9282,-147.6213 17.7374,-147.3127 17.5509,-147.0069 17.3685,-146.7039 17.1902,-146.4038 17.0159,-146.1066 16.8457,-145.8123 16.6795,-145.5211 16.5171,-145.2328 16.3587,-144.9476 16.2041,-144.6654 16.0534,-144.3864 15.9064,-144.1106 15.7631,-143.8379 15.6236,-143.5684 14.0965,-143.5596 14.0965,-143.5596 12.6003,-143.8653 12.5158,-144.1568 12.4283,-144.4521 12.3378,-144.7513 12.2442,-145.0543 12.1474,-145.3611 12.0475,-145.6717 11.9444,-145.986 11.8379,-146.3041 11.7282,-146.6258 11.6151,-146.9512 11.4986,-147.2803 11.3786,-147.613 11.2551,-147.9492 11.128,-148.289 10.9974,-148.6323 10.8631,-148.9791 10.7251,-149.3294 10.5834,-149.6831 10.4379,-150.0402 10.2886,-150.4006 10.1355,-150.7644 9.9784,-151.1315 9.8174,-151.5018 9.6523,-151.8754 9.4833,-152.2521 9.3101,-152.6321 9.1328,-153.0151 8.9514,-153.4013 8.7658,-153.7905 8.5759,-154.1827 8.3817,-154.5779 8.173,-154.7844 5.9326,-154.8864 5.706,-154.6998 5.4767,-154.3239 5.252,-153.9506 5.0317,-153.5798 4.8159,-153.2118 4.6046,-152.8464 4.3976,-152.4838 4.195,-152.124 3.9967,-151.7669 3.8026,-151.4128 3.6128,-151.0615 3.4272,-150.7131 3.2458,-150.3678 3.0684,-150.0254 2.8951,-149.686 2.7259,-149.3498 2.5606,-149.0166 2.3993,-148.6866 2.2419,-148.3598 2.0884,-148.0361 1.9386,-147.7158 1.7927,-147.3987 1.6504,-147.0849 1.5119,-146.7744 1.377,-146.4674 1.2457,-146.1637 1.1179,-145.8635 0.9937,-145.5667 0.873,-145.2735 0.7556,-144.9838 0.6416,-144.6976 0.531,-144.4151 -0.9868,-144.2466 -0.9868,-144.2466 -2.5068,-144.3943 -2.6213,-144.6753 -2.7391,-144.9599 -2.8604,-145.248 -2.9852,-145.5395 -3.1135,-145.8345 -3.2453,-146.133 -3.3808,-146.4348 -3.5198,-146.74 -3.6626,-147.0485 -3.8091,-147.3603 -3.9594,-147.6754 -4.1135,-147.9937 -4.2715,-148.3152 -4.4333,-148.6399 -4.5992,-148.9676 -4.769,-149.2985 -4.9428,-149.6324 -5.1207,-149.9694 -5.3027,-150.3093 -5.4889,-150.6522 -5.6792,-150.9979 -5.8738,-151.3466 -6.0727,-151.6981 -6.2759,-152.0523 -6.4834,-152.4094 -6.6953,-152.7691 -6.9116,-153.1315 -7.1324,-153.4966 -7.3577,-153.8643 -7.5876,-154.2345 -7.822,-154.6073 -8.0511,-154.7908 -10.29,-154.6581 -10.4958,-154.4488 -10.6845,-154.051 -10.869,-153.6562 -11.0493,-153.2645 -11.2255,-152.8759 -11.3975,-152.4904 -11.5654,-152.1082 -11.7293,-151.7291 -11.8892,-151.3533 -12.0452,-150.9808 -12.1972,-150.6116 -12.3454,-150.2458 -12.4897,-149.8833 -12.6303,-149.5243 -12.7672,-149.1687 -12.9003,-148.8166 -13.0299,-148.4679 -13.1558,-148.1229 -13.2782,-147.7814 -13.3971,-147.4435 -13.5125,-147.1092 -13.6245,-146.7786 -13.7332,-146.4516 -13.8385,-146.1284 -13.9406,-145.8089 -14.0394,-145.4932 -14.1351,-145.1813 -14.2276,-144.8732 -14.317,-144.5689 -14.4035,-144.2685 -14.4869,-143.972 -14.5674,-143.6795 -16.0593,-143.3533 -16.0593,-143.3533 -17.5863,-143.3413 -17.7296,-143.6088 -17.8766,-143.8795 -18.0273,-144.1533 -18.1819,-144.4302 -18.3403,-144.7102 -18.5026,-144.9932 -18.6688,-145.2792 -18.8391,-145.5682 -19.0133,-145.8601 -19.1916,-146.1549 -19.374,-146.4526 -19.5605,-146.753 -19.7512,-147.0562 -19.9462,-147.3622 -20.1453,-147.6708 -20.3488,-147.9821 -20.5566,-148.2961 -20.7687,-148.6126 -20.9853,-148.9316 -21.2062,-149.2531 -21.4317,-149.5771 -21.6617,-149.9035 -21.8962,-150.2323 -22.1353,-150.5634 -22.379,-150.8968 -22.6273,-151.2324 -22.8804,-151.5702 -23.1381,-151.9102 -23.4006,-152.2523 -23.6679,-152.5965 -23.94,-152.9427 -24.187,-153.1012 -26.3998,-152.7352 -26.5825,-152.5056 -26.7287,-152.0902 -26.8709,-151.6783 -27.0093,-151.2699 -27.1438,-150.865 -27.2746,-150.4637 -27.4017,-150.066 -27.5251,-149.6719 -27.6448,-149.2814 -27.761,-148.8946 -27.8736,-148.5116 -27.9827,-148.1323 -28.0884,-147.7567 -28.1907,-147.3849 -28.2896,-147.017 -28.3852,-146.6529 -28.4776,-146.2926 -28.5668,-145.9363 -28.6528,-145.5839 -28.7357,-145.2354 -28.8156,-144.8909 -28.8924,-144.5504 -28.9663,-144.2139 -29.0373,-143.8814 -29.1054,-143.553 -29.1707,-143.2287 -29.2332,-142.9085 -29.293,-142.5924 -29.3502,-142.2804 -29.4047,-141.9726 -29.4567,-141.669 -29.5062,-141.3697 -30.9558,-140.8893 -30.9558,-140.8893 -32.4732,-140.7177 -32.6437,-140.9688 -32.8181,-141.2227 -32.9967,-141.4792 -33.1793,-141.7385 -33.3661,-142.0004 -33.5572,-142.2649 -33.7524,-142.532 -33.9519,-142.8016 -34.1557,-143.0737 -34.3638,-143.3482 -34.5763,-143.6251 -34.7932,-143.9044 -35.0146,-144.1861 -35.2404,-144.47 -35.4708,-144.7561 -35.7057,-145.0444 -35.9451,-145.3349 -36.1892,-145.6275 -36.4379,-145.9222 -36.6913,-146.2188 -36.9494,-146.5175 -37.2122,-146.8181 -37.4798,-147.1205 -37.7522,-147.4248 -38.0294,-147.7309 -38.3115,-148.0387 -38.5984,-148.3482 -38.8903,-148.6594 -39.1871,-148.9722 -39.489,-149.2866 -39.7958,-149.6024 -40.058,-149.7343 -42.2203,-149.139 -42.3781,-148.8915 -42.48,-148.4631 -42.5784,-148.0386 -42.6733,-147.618 -42.7648,-147.2013 -42.853,-146.7885 -42.9377,-146.3796 -43.0192,-145.9748 -43.0975,-145.574 -43.1726,-145.1772 -43.2446,-144.7844 -43.3135,-144.3958 -43.3793,-144.0112 -43.4422,-143.6308 -43.5021,-143.2545 -43.5591,-142.8824 -43.6134,-142.5145 -43.6648,-142.1508 -43.7135,-141.7913 -43.7595,-141.4361 -43.8029,-141.0851 -43.8438,-140.7384 -43.8821,-140.396 -43.9179,-140.058 -43.9513,-139.7242 -43.9823,-139.3949 -44.0111,-139.0699 -44.0375,-138.7493 -44.0618,-138.4331 -44.0838,-138.1213 -44.1038,-137.8139 -44.1217,-137.511 -45.5132,-136.8818 -45.5132,-136.8818 -47.0044,-136.5525 -47.2001,-136.7844 -47.4001,-137.0186 -47.6045,-137.2551 -47.8133,-137.4938 -48.0264,-137.7348 -48.2441,-137.9779 -48.4661,-138.2231 -48.6927,-138.4703 -48.9238,-138.7196 -49.1595,-138.9709 -49.3998,-139.2241 -49.6448,-139.4792 -49.8943,-139.7362 -50.1486,-139.9949 -50.4076,-140.2554 -50.6713,-140.5176 -50.9398,-140.7815 -51.2132,-141.047 -51.4913,-141.314 -51.7743,-141.5826 -52.0622,-141.8526 -52.355,-142.124 -52.6527,-142.3969 -52.9554,-142.671 -53.2631,-142.9464 -53.5758,-143.2231 -53.8936,-143.5009 -54.2164,-143.7799 -54.5443,-144.06 -54.8773,-144.341 -55.2155,-144.6231 -55.49,-144.7268 -57.5783,-143.9088 -57.7094,-143.6462 -57.7659,-143.2095 -57.8194,-142.777 -57.8699,-142.3487 -57.9173,-141.9247 -57.9618,-141.505 -58.0034,-141.0895 -58.0421,-140.6784 -58.0781,-140.2716 -58.1113,-139.8691 -58.1418,-139.471 -58.1696,-139.0773 -58.1949,-138.688 -58.2177,-138.303 -58.238,-137.9226 -58.2558,-137.5465 -58.2713,-137.175 -58.2844,-136.8079 -58.2953,-136.4452 -58.3039,-136.0871 -58.3104,-135.7336 -58.3148,-135.3845 -58.3171,-135.04 -58.3174,-134.7 -58.3157,-134.3647 -58.3121,-134.0339 -58.3067,-133.7076 -58.2995,-133.386 -58.2906,-133.069 -58.2799,-132.7566 -58.2677,-132.4488 -58.2538,-132.1457 -59.5719,-131.3745 -59.5719,-131.3745 -61.0205,-130.8912 -61.2394,-131.1013 -61.4628,-131.3133 -61.6908,-131.5272 -61.9234,-131.7428 -62.1606,-131.9601 -62.4024,-132.1791 -62.6489,-132.3998 -62.9001,-132.622 -63.156,-132.8458 -63.4167,-133.0711 -63.6821,-133.2978 -63.9523,-133.5259 -64.2274,-133.7553 -64.5073,-133.9861 -64.7921,-134.2181 -65.0818,-134.4513 -65.3765,-134.6856 -65.676,-134.9211 -65.9806,-135.1576 -66.2901,-135.3951 -66.6046,-135.6335 -66.9242,-135.8729 -67.2488,-136.1131 -67.5785,-136.3541 -67.9133,-136.5959 -68.2532,-136.8383 -68.5983,-137.0814 -68.9485,-137.3251 -69.3039,-137.5694 -69.6644,-137.8141 -70.0302,-138.0593 -70.3141,-138.1337 -72.3054,-137.1019 -72.4083,-136.827 -72.419,-136.3868 -72.4269,-135.9511 -72.4323,-135.5199 -72.4352,-135.0932 -72.4356,-134.6712 -72.4335,-134.2536 -72.429,-133.8407 -72.4223,-133.4324 -72.4132,-133.0286 -72.402,-132.6295 -72.3885,-132.235 -72.373,-131.8452 -72.3554,-131.46 -72.3358,-131.0795 -72.3142,-130.7036 -72.2907,-130.3325 -72.2654,-129.966 -72.2383,-129.6043 -72.2095,-129.2472 -72.179,-128.8949 -72.1468,-128.5473 -72.1131,-128.2044 -72.0779,-127.8663 -72.0412,-127.5329 -72.003,-127.2043 -71.9636,-126.8805 -71.9228,-126.5614 -71.8807,-126.247 -71.8375,-125.9374 -71.7931,-125.6326 -71.7477,-125.3326 -72.9779,-124.4278 -72.9779,-124.4278 -74.3681,-123.7957 -74.6077,-123.9819 -74.8521,-124.1694 -75.1012,-124.3582 -75.355,-124.5483 -75.6136,-124.7397 -75.877,-124.9322 -76.1452,-125.1259 -76.4183,-125.3206 -76.6962,-125.5164 -76.979,-125.7132 -77.2667,-125.9109 -77.5593,-126.1096 -77.8568,-126.309 -78.1593,-126.5092 -78.4668,-126.7102 -78.7793,-126.9118 -79.0968,-127.1141 -79.4193,-127.3169 -79.7469,-127.5203 -80.0796,-127.7242 -80.4173,-127.9284 -80.7602,-128.1331 -81.1081,-128.338 -81.4612,-128.5433 -81.8194,-128.7487 -82.1828,-128.9543 -82.5514,-129.16 -82.9252,-129.3658 -83.3041,-129.5715 -83.6883,-129.7772 -84.0777,-129.9828 -84.3678,-130.0272 -86.2404,-128.7928 -86.314,-128.5087 -86.2785,-128.0698 -86.2409,-127.6356 -86.2012,-127.2063 -86.1595,-126.7817 -86.1157,-126.3618 -86.07,-125.9468 -86.0224,-125.5366 -85.973,-125.1312 -85.9218,-124.7306 -85.8689,-124.3349 -85.8143,-123.944 -85.7581,-123.5579 -85.7003,-123.1767 -85.641,-122.8003 -85.5803,-122.4287 -85.5182,-122.0621 -85.4547,-121.7003 -85.3899,-121.3433 -85.3239,-120.9913 -85.2568,-120.644 -85.1885,-120.3017 -85.1191,-119.9643 -85.0487,-119.6317 -84.9773,-119.304 -84.9051,-118.9811 -84.832,-118.6632 -84.758,-118.3501 -84.6834,-118.0418 -84.608,-117.7385 -84.532,-117.44 -84.4555,-117.1464 -85.5844,-116.1179 -85.5844,-116.1179 -86.9009,-115.344 -87.1587,-115.504 -87.4213,-115.665 -87.6887,-115.8267 -87.9611,-115.9893 -88.2382,-116.1526 -88.5203,-116.3165 -88.8073,-116.4811 -89.0992,-116.6462 -89.3961,-116.8119 -89.6979,-116.9781 -90.0047,-117.1446 -90.3164,-117.3116 -90.6332,-117.4788 -90.955,-117.6463 -91.2818,-117.814 -91.6136,-117.9819 -91.9505,-118.1499 -92.2925,-118.3179 -92.6396,-118.4859 -92.9917,-118.6539 -93.3489,-118.8217 -93.7113,-118.9894 -94.0788,-119.1569 -94.4514,-119.3241 -94.8291,-119.4909 -95.212,-119.6574 -95.6001,-119.8235 -95.9933,-119.989 -96.3917,-120.1541 -96.7953,-120.3185 -97.204,-120.4822 -97.4972,-120.496 -99.2305,-119.0727 -99.274,-118.7825 -99.1928,-118.3497 -99.1101,-117.9218 -99.0257,-117.4989 -98.9398,-117.081 -98.8524,-116.6681 -98.7635,-116.2601 -98.6733,-115.8571 -98.5818,-115.4591 -98.489,-115.0661 -98.395,-114.678 -98.2999,-114.2949 -98.2036,-113.9169 -98.1063,-113.5438 -98.008,-113.1756 -97.9088,-112.8125 -97.8087,-112.4543 -97.7077,-112.1011 -97.606,-111.7529 -97.5036,-111.4097 -97.4005,-111.0714 -97.2967,-110.7381 -97.1925,-110.4097 -97.0877,-110.0863 -96.9825,-109.7678 -96.8769,-109.4543 -96.7709,-109.1457 -96.6647,-108.8421 -96.5582,-108.5434 -96.4516,-108.2495 -96.3448,-107.9606 -96.2379,-107.6766 -97.2532,-106.5358 -97.2532,-106.5358 -98.4815,-105.6285 -98.7547,-105.7607 -99.0327,-105.8933 -99.3156,-106.0263 -99.6034,-106.1595 -99.8961,-106.2929 -100.1938,-106.4264 -100.4964,-106.5601 -100.804,-106.6938 -101.1165,-106.8276 -101.434,-106.9613 -101.7565,-107.0949 -102.0841,-107.2283 -102.4166,-107.3615 -102.7541,-107.4945 -103.0966,-107.6271 -103.4442,-107.7593 -103.7968,-107.8912 -104.1545,-108.0225 -104.5172,-108.1534 -104.885,-108.2836 -105.2578,-108.4132 -105.6357,-108.5421 -106.0187,-108.6702 -106.4067,-108.7975 -106.7999,-108.924 -107.1981,-109.0496 -107.6013,-109.1741 -108.0097,-109.2977 -108.4232,-109.4202 -108.8417,-109.5415 -109.2654,-109.6616 -109.5584,-109.6447 -111.1334,-108.048 -111.1463,-107.7548 -111.0204,-107.3328 -110.8933,-106.916 -110.7652,-106.5043 -110.6361,-106.0976 -110.506,-105.6961 -110.375,-105.2996 -110.2432,-104.9083 -110.1105,-104.522 -109.9772,-104.1408 -109.8431,-103.7647 -109.7084,-103.3937 -109.5732,-103.0277 -109.4374,-102.6668 -109.3012,-102.311 -109.1645,-101.9602 -109.0275,-101.6145 -108.8902,-101.2738 -108.7527,-100.9381 -108.6149,-100.6075 -108.477,-100.2818 -108.339,-99.9612 -108.201,-99.6455 -108.063,-99.3348 -107.9251,-99.0291 -107.7873,-98.7283 -107.6496,-98.4325 -107.5122,-98.1416 -107.3751,-97.8557 -107.2383,-97.5746 -107.102,-97.2984 -106.966,-97.0272 -107.8564,-95.7865 -107.8564,-95.7865 -108.9832,-94.7557 -109.2687,-94.8587 -109.559,-94.9615 -109.8543,-95.0641 -110.1544,-95.1665 -110.4595,-95.2686 -110.7695,-95.3703 -111.0844,-95.4716 -111.4043,-95.5725 -111.7291,-95.6728 -112.0589,-95.7726 -112.3936,-95.8717 -112.7332,-95.9702 -113.0778,-96.0679 -113.4274,-96.1649 -113.782,-96.261 -114.1415,-96.3562 -114.5059,-96.4504 -114.8754,-96.5437 -115.2498,-96.6359 -115.6291,-96.7269 -116.0135,-96.8168 -116.4028,-96.9055 -116.797,-96.9929 -117.1963,-97.079 -117.6005,-97.1637 -118.0096,-97.2469 -118.4237,-97.3287 -118.8427,-97.4089 -119.2667,-97.4874 -119.6957,-97.5644 -120.1296,-97.6396 -120.4192,-97.5921 -121.8187,-95.8395 -121.8009,-95.5466 -121.6315,-95.1401 -121.4616,-94.7388 -121.2911,-94.3427 -121.1202,-93.9518 -120.9489,-93.566 -120.7772,-93.1854 -120.6051,-92.81 -120.4329,-92.4397 -120.2604,-92.0746 -120.0878,-91.7146 -119.915,-91.3596 -119.7423,-91.0098 -119.5695,-90.6651 -119.3968,-90.3255 -119.2243,-89.9909 -119.0519,-89.6614 -118.8797,-89.3369 -118.7078,-89.0174 -118.5362,-88.703 -118.3651,-88.3935 -118.1943,-88.089 -118.0241,-87.7895 -117.8543,-87.495 -117.6852,-87.2054 -117.5167,-86.9207 -117.3489,-86.6408 -117.1819,-86.3659 -117.0156,-86.0959 -116.8502,-85.8306 -116.6857,-85.5702 -116.5221,-85.3146 -117.278,-83.9877 -117.278,-83.9877 -118.2909,-82.8448 -118.5855,-82.9174 -118.885,-82.9893 -119.1894,-83.0605 -119.4986,-83.1309 -119.8127,-83.2005 -120.1316,-83.2693 -120.4554,-83.3371 -120.7841,-83.404 -121.1176,-83.4698 -121.456,-83.5346 -121.7992,-83.5982 -122.1473,-83.6606 -122.5002,-83.7218 -122.858,-83.7817 -123.2207,-83.8402 -123.5881,-83.8973 -123.9605,-83.9529 -124.3376,-84.007 -124.7196,-84.0596 -125.1064,-84.1105 -125.4981,-84.1598 -125.8945,-84.2073 -126.2957,-84.253 -126.7018,-84.2968 -127.1126,-84.3388 -127.5282,-84.3788 -127.9486,-84.4168 -128.3737,-84.4528 -128.8036,-84.4866 -129.2382,-84.5183 -129.6776,-84.5477 -129.9607,-84.4702 -131.1693,-82.581 -131.121,-82.2915 -130.91,-81.9049 -130.6991,-81.5236 -130.4882,-81.1475 -130.2773,-80.7766 -130.0666,-80.4109 -129.8561,-80.0503 -129.6457,-79.6949 -129.4357,-79.3447 -129.226,-78.9996 -129.0167,-78.6595 -128.8078,-78.3246 -128.5994,-77.9948 -128.3916,-77.67 -128.1843,-77.3503 -127.9778,-77.0356 -127.7719,-76.7259 -127.5667,-76.4212 -127.3624,-76.1214 -127.1589,-75.8266 -126.9563,-75.5368 -126.7547,-75.2518 -126.554,-74.9717 -126.3544,-74.6965 -126.156,-74.4262 -125.9586,-74.1607 -125.7625,-73.8999 -125.5676,-73.644 -125.3741,-73.3927 -125.1818,-73.1463 -124.991,-72.9045 -124.8016,-72.6674 -125.4146,-71.2687 -125.4146,-71.2687 -126.3025,-70.0262 -126.6031,-70.0676 -126.9085,-70.1078 -127.2186,-70.1468 -127.5335,-70.1845 -127.8532,-70.2209 -128.1775,-70.256 -128.5066,-70.2896 -128.8405,-70.3217 -129.1791,-70.3523 -129.5224,-70.3814 -129.8704,-70.4088 -130.2231,-70.4344 -130.5805,-70.4584 -130.9426,-70.4805 -131.3093,-70.5008 -131.6808,-70.5192 -132.0569,-70.5356 -132.4376,-70.55 -132.823,-70.5624 -133.213,-70.5726 -133.6077,-70.5806 -134.0069,-70.5864 -134.4107,-70.5899 -134.8191,-70.5911 -135.2321,-70.5899 -135.6496,-70.5863 -136.0716,-70.5801 -136.4982,-70.5714 -136.9293,-70.5601 -137.3648,-70.5462 -137.8048,-70.5296 -138.0783,-70.4229 -139.0828,-68.4177 -139.0045,-68.1348 -138.7543,-67.7724 -138.5047,-67.4152 -138.2556,-67.0632 -138.0071,-66.7164 -137.7593,-66.3747 -137.5122,-66.0381 -137.2659,-65.7067 -137.0204,-65.3803 -136.7758,-65.059 -136.5321,-64.7427 -136.2893,-64.4315 -136.0476,-64.1252 -135.807,-63.824 -135.5674,-63.5276 -135.3291,-63.2362 -135.0919,-62.9498 -134.8561,-62.6682 -134.6215,-62.3914 -134.3883,-62.1195 -134.1565,-61.8524 -133.9262,-61.5901 -133.6974,-61.3325 -133.4702,-61.0797 -133.2445,-60.8316 -133.0205,-60.5881 -132.7982,-60.3493 -132.5777,-60.1151 -132.3589,-59.8855 -132.1419,-59.6605 -131.9269,-59.44 -131.7138,-59.224 -132.1772,-57.7689 -132.1772,-57.7689 -132.9303,-56.4404 -133.2336,-56.4501 -133.5415,-56.4582 -133.8541,-56.4645 -134.1712,-56.4691 -134.4928,-56.4719 -134.8191,-56.4729 -135.1499,-56.4719 -135.4853,-56.469 -135.8252,-56.4641 -136.1697,-56.457 -136.5186,-56.4479 -136.8721,-56.4366 -137.23,-56.423 -137.5925,-56.4072 -137.9594,-56.3891 -138.3307,-56.3685 -138.7064,-56.3455 -139.0866,-56.32 -139.4712,-56.292 -139.8601,-56.2614 -140.2534,-56.2282 -140.6511,-56.1922 -141.053,-56.1535 -141.4593,-56.112 -141.8699,-56.0676 -142.2848,-56.0203 -142.7038,-55.9701 -143.1272,-55.9169 -143.5547,-55.8606 -143.9864,-55.8012 -144.4223,-55.7387 -144.6831,-55.604 -145.4725,-53.5048 -145.365,-53.2316 -145.0783,-52.8974 -144.7927,-52.5683 -144.5082,-52.2442 -144.2249,-51.9252 -143.9427,-51.6113 -143.6618,-51.3024 -143.3822,-50.9985 -143.1039,-50.6996 -142.827,-50.4056 -142.5516,-50.1166 -142.2777,-49.8324 -142.0052,-49.5531 -141.7344,-49.2786 -141.4652,-49.009 -141.1977,-48.7441 -140.9319,-48.484 -140.6679,-48.2286 -140.4057,-47.9779 -140.1454,-47.7318 -139.887,-47.4904 -139.6305,-47.2536 -139.376,-47.0214 -139.1236,-46.7937 -138.8732,-46.5705 -138.625,-46.3518 -138.379,-46.1375 -138.1351,-45.9277 -137.8935,-45.7222 -137.6543,-45.5211 -137.4173,-45.3243 -137.1828,-45.1317 -137.4916,-43.6362 -137.4916,-43.6362 -138.1018,-42.2362 -138.4044,-42.2142 -138.7115,-42.19 -139.0229,-42.1637 -139.3388,-42.1351 -139.659,-42.1043 -139.9836,-42.0711 -140.3125,-42.0356 -140.6457,-41.9976 -140.9833,-41.9571 -141.3251,-41.9142 -141.6712,-41.8686 -142.0215,-41.8204 -142.3761,-41.7695 -142.7349,-41.7159 -143.0979,-41.6595 -143.465,-41.6002 -143.8363,-41.5381 -144.2117,-41.473 -144.5912,-41.4049 -144.9749,-41.3338 -145.3625,-41.2597 -145.7543,-41.1823 -146.15,-41.1018 -146.5497,-41.0181 -146.9534,-40.931 -147.361,-40.8407 -147.7726,-40.7469 -148.188,-40.6497 -148.6073,-40.549 -149.0304,-40.4449 -149.4574,-40.3371 -149.7027,-40.1759 -150.2683,-38.0056 -150.1329,-37.7453 -149.8129,-37.4428 -149.4944,-37.1453 -149.1776,-36.8528 -148.8624,-36.5652 -148.549,-36.2825 -148.2374,-36.0046 -147.9275,-35.7316 -147.6195,-35.4634 -147.3134,-35.2 -147.0093,-34.9413 -146.7071,-34.6873 -146.407,-34.438 -146.109,-34.1934 -145.8131,-33.9533 -145.5194,-33.7179 -145.2279,-33.487 -144.9386,-33.2606 -144.6516,-33.0386 -144.367,-32.8212 -144.0847,-32.6081 -143.8049,-32.3994 -143.5276,-32.195 -143.2527,-31.995 -142.9804,-31.7992 -142.7107,-31.6076 -142.4436,-31.4202 -142.1792,-31.237 -141.9174,-31.0579 -141.6584,-30.8829 -141.4022,-30.7119 -141.1489,-30.545 -141.2997,-29.0253 -141.2997,-29.0253 -141.7601,-27.5693 -142.0588,-27.5157 -142.3617,-27.4596 -142.6687,-27.4008 -142.9798,-27.3394 -143.295,-27.2753 -143.6144,-27.2084 -143.9378,-27.1386 -144.2652,-27.066 -144.5967,-26.9905 -144.9321,-26.9121 -145.2716,-26.8306 -145.6149,-26.746 -145.9622,-26.6583 -146.3135,-26.5675 -146.6686,-26.4735 -147.0275,-26.3762 -147.3903,-26.2755 -147.7568,-26.1716 -148.1272,-26.0642 -148.5012,-25.9534 -148.879,-25.8391 -149.2605,-25.7213 -149.6457,-25.5998 -150.0344,-25.4747 -150.4268,-25.346 -150.8228,-25.2135 -151.2223,-25.0772 -151.6253,-24.9372 -152.0317,-24.7932 -152.4417,-24.6454 -152.855,-24.4936 -153.0821,-24.3076 -153.4178,-22.0901 -153.2559,-21.8453 -152.906,-21.578 -152.5582,-21.3154 -152.2126,-21.0576 -151.8691,-20.8045 -151.5278,-20.5561 -151.1888,-20.3124 -150.8521,-20.0733 -150.5178,-19.8387 -150.1858,-19.6087 -149.8563,-19.3833 -149.5293,-19.1623 -149.2048,-18.9457 -148.8828,-18.7335 -148.5634,-18.5257 -148.2467,-18.3223 -147.9326,-18.1231 -147.6213,-17.9282 -147.3127,-17.7374 -147.0069,-17.5509 -146.7039,-17.3685 -146.4038,-17.1902 -146.1066,-17.0159 -145.8123,-16.8457 -145.5211,-16.6795 -145.2328,-16.5171 -144.9476,-16.3587 -144.6654,-16.2041 -144.3864,-16.0534 -144.1106,-15.9064 -143.8379,-15.7631 -143.5684,-15.6236 -143.5596,-14.0965 -143.5596,-14.0965 -143.8653,-12.6003 -144.1568,-12.5158 -144.4521,-12.4283 -144.7513,-12.3378 -145.0543,-12.2442 -145.3611,-12.1474 -145.6717,-12.0475 -145.986,-11.9444 -146.3041,-11.8379 -146.6258,-11.7282 -146.9512,-11.6151 -147.2803,-11.4986 -147.613,-11.3786 -147.9492,-11.2551 -148.289,-11.128 -148.6323,-10.9974 -148.9791,-10.8631 -149.3294,-10.7251 -149.6831,-10.5834 -150.0402,-10.4379 -150.4006,-10.2886 -150.7644,-10.1355 -151.1315,-9.9784 -151.5018,-9.8174 -151.8754,-9.6523 -152.2521,-9.4833 -152.6321,-9.3101 -153.0151,-9.1328 -153.4013,-8.9514 -153.7905,-8.7658 -154.1827,-8.5759 -154.5779,-8.3817 -154.7844,-8.173 -154.8864,-5.9326 -154.6998,-5.706 -154.3239,-5.4767 -153.9506,-5.252 -153.5798,-5.0317 -153.2118,-4.8159 -152.8464,-4.6046 -152.4838,-4.3976 -152.124,-4.195 -151.7669,-3.9967 -151.4128,-3.8026 -151.0615,-3.6128 -150.7131,-3.4272 -150.3678,-3.2458 -150.0254,-3.0684 -149.686,-2.8951 -149.3498,-2.7259 -149.0166,-2.5606 -148.6866,-2.3993 -148.3598,-2.2419 -148.0361,-2.0884 -147.7158,-1.9386 -147.3987,-1.7927 -147.0849,-1.6504 -146.7744,-1.5119 -146.4674,-1.377 -146.1637,-1.2457 -145.8635,-1.1179 -145.5667,-0.9937 -145.2735,-0.873 -144.9838,-0.7556 -144.6976,-0.6416 -144.4151,-0.531 -144.2466,0.9868 -144.2466,0.9868 -144.3943,2.5068 -144.6753,2.6213 -144.9599,2.7391 -145.248,2.8604 -145.5395,2.9852 -145.8345,3.1135 -146.133,3.2453 -146.4348,3.3808 -146.74,3.5198 -147.0485,3.6626 -147.3603,3.8091 -147.6754,3.9594 -147.9937,4.1135 -148.3152,4.2715 -148.6399,4.4333 -148.9676,4.5992 -149.2985,4.769 -149.6324,4.9428 -149.9694,5.1207 -150.3093,5.3027 -150.6522,5.4889 -150.9979,5.6792 -151.3466,5.8738 -151.6981,6.0727 -152.0523,6.2759 -152.4094,6.4834 -152.7691,6.6953 -153.1315,6.9116 -153.4966,7.1324 -153.8643,7.3577 -154.2345,7.5876 -154.6073,7.822 -154.7908,8.0511 -154.6581,10.29 -154.4488,10.4958 -154.051,10.6845 -153.6562,10.869 -153.2645,11.0493 -152.8759,11.2255 -152.4904,11.3975 -152.1082,11.5654 -151.7291,11.7293 -151.3533,11.8892 -150.9808,12.0452 -150.6116,12.1972 -150.2458,12.3454 -149.8833,12.4897 -149.5243,12.6303 -149.1687,12.7672 -148.8166,12.9003 -148.4679,13.0299 -148.1229,13.1558 -147.7814,13.2782 -147.4435,13.3971 -147.1092,13.5125 -146.7786,13.6245 -146.4516,13.7332 -146.1284,13.8385 -145.8089,13.9406 -145.4932,14.0394 -145.1813,14.1351 -144.8732,14.2276 -144.5689,14.317 -144.2685,14.4035 -143.972,14.4869 -143.6795,14.5674 -143.3533,16.0593 -143.3533,16.0593 -143.3413,17.5863 -143.6088,17.7296 -143.8795,17.8766 -144.1533,18.0273 -144.4302,18.1819 -144.7102,18.3403 -144.9932,18.5026 -145.2792,18.6688 -145.5682,18.8391 -145.8601,19.0133 -146.1549,19.1916 -146.4526,19.374 -146.753,19.5605 -147.0562,19.7512 -147.3622,19.9462 -147.6708,20.1453 -147.9821,20.3488 -148.2961,20.5566 -148.6126,20.7687 -148.9316,20.9853 -149.2531,21.2062 -149.5771,21.4317 -149.9035,21.6617 -150.2323,21.8962 -150.5634,22.1353 -150.8968,22.379 -151.2324,22.6273 -151.5702,22.8804 -151.9102,23.1381 -152.2523,23.4006 -152.5965,23.6679 -152.9427,23.94 -153.1012,24.187 -152.7352,26.3998 -152.5056,26.5825 -152.0902,26.7287 -151.6783,26.8709 -151.2699,27.0093 -150.865,27.1438 -150.4637,27.2746 -150.066,27.4017 -149.6719,27.5251 -149.2814,27.6448 -148.8946,27.761 -148.5116,27.8736 -148.1323,27.9827 -147.7567,28.0884 -147.3849,28.1907 -147.017,28.2896 -146.6529,28.3852 -146.2926,28.4776 -145.9363,28.5668 -145.5839,28.6528 -145.2354,28.7357 -144.8909,28.8156 -144.5504,28.8924 -144.2139,28.9663 -143.8814,29.0373 -143.553,29.1054 -143.2287,29.1707 -142.9085,29.2332 -142.5924,29.293 -142.2804,29.3502 -141.9726,29.4047 -141.669,29.4567 -141.3697,29.5062 -140.8893,30.9558 -140.8893,30.9558 -140.7177,32.4732 -140.9688,32.6437 -141.2227,32.8181 -141.4792,32.9967 -141.7385,33.1793 -142.0004,33.3661 -142.2649,33.5572 -142.532,33.7524 -142.8016,33.9519 -143.0737,34.1557 -143.3482,34.3638 -143.6251,34.5763 -143.9044,34.7932 -144.1861,35.0146 -144.47,35.2404 -144.7561,35.4708 -145.0444,35.7057 -145.3349,35.9451 -145.6275,36.1892 -145.9222,36.4379 -146.2188,36.6913 -146.5175,36.9494 -146.8181,37.2122 -147.1205,37.4798 -147.4248,37.7522 -147.7309,38.0294 -148.0387,38.3115 -148.3482,38.5984 -148.6594,38.8903 -148.9722,39.1871 -149.2866,39.489 -149.6024,39.7958 -149.7343,40.058 -149.139,42.2203 -148.8915,42.3781 -148.4631,42.48 -148.0386,42.5784 -147.618,42.6733 -147.2013,42.7648 -146.7885,42.853 -146.3796,42.9377 -145.9748,43.0192 -145.574,43.0975 -145.1772,43.1726 -144.7844,43.2446 -144.3958,43.3135 -144.0112,43.3793 -143.6308,43.4422 -143.2545,43.5021 -142.8824,43.5591 -142.5145,43.6134 -142.1508,43.6648 -141.7913,43.7135 -141.4361,43.7595 -141.0851,43.8029 -140.7384,43.8438 -140.396,43.8821 -140.058,43.9179 -139.7242,43.9513 -139.3949,43.9823 -139.0699,44.0111 -138.7493,44.0375 -138.4331,44.0618 -138.1213,44.0838 -137.8139,44.1038 -137.511,44.1217 -136.8818,45.5132 -136.8818,45.5132 -136.5525,47.0044 -136.7844,47.2001 -137.0186,47.4001 -137.2551,47.6045 -137.4938,47.8133 -137.7348,48.0264 -137.9779,48.2441 -138.2231,48.4661 -138.4703,48.6927 -138.7196,48.9238 -138.9709,49.1595 -139.2241,49.3998 -139.4792,49.6448 -139.7362,49.8943 -139.9949,50.1486 -140.2554,50.4076 -140.5176,50.6713 -140.7815,50.9398 -141.047,51.2132 -141.314,51.4913 -141.5826,51.7743 -141.8526,52.0622 -142.124,52.355 -142.3969,52.6527 -142.671,52.9554 -142.9464,53.2631 -143.2231,53.5758 -143.5009,53.8936 -143.7799,54.2164 -144.06,54.5443 -144.341,54.8773 -144.6231,55.2155 -144.7268,55.49 -143.9088,57.5783 -143.6462,57.7094 -143.2095,57.7659 -142.777,57.8194 -142.3487,57.8699 -141.9247,57.9173 -141.505,57.9618 -141.0895,58.0034 -140.6784,58.0421 -140.2716,58.0781 -139.8691,58.1113 -139.471,58.1418 -139.0773,58.1696 -138.688,58.1949 -138.303,58.2177 -137.9226,58.238 -137.5465,58.2558 -137.175,58.2713 -136.8079,58.2844 -136.4452,58.2953 -136.0871,58.3039 -135.7336,58.3104 -135.3845,58.3148 -135.04,58.3171 -134.7,58.3174 -134.3647,58.3157 -134.0339,58.3121 -133.7076,58.3067 -133.386,58.2995 -133.069,58.2906 -132.7566,58.2799 -132.4488,58.2677 -132.1457,58.2538 -131.3745,59.5719 -131.3745,59.5719 -130.8912,61.0205 -131.1013,61.2394 -131.3133,61.4628 -131.5272,61.6908 -131.7428,61.9234 -131.9601,62.1606 -132.1791,62.4024 -132.3998,62.6489 -132.622,62.9001 -132.8458,63.156 -133.0711,63.4167 -133.2978,63.6821 -133.5259,63.9523 -133.7553,64.2274 -133.9861,64.5073 -134.2181,64.7921 -134.4513,65.0818 -134.6856,65.3765 -134.9211,65.676 -135.1576,65.9806 -135.3951,66.2901 -135.6335,66.6046 -135.8729,66.9242 -136.1131,67.2488 -136.3541,67.5785 -136.5959,67.9133 -136.8383,68.2532 -137.0814,68.5983 -137.3251,68.9485 -137.5694,69.3039 -137.8141,69.6644 -138.0593,70.0302 -138.1337,70.3141 -137.1019,72.3054 -136.827,72.4083 -136.3868,72.419 -135.9511,72.4269 -135.5199,72.4323 -135.0932,72.4352 -134.6712,72.4356 -134.2536,72.4335 -133.8407,72.429 -133.4324,72.4223 -133.0286,72.4132 -132.6295,72.402 -132.235,72.3885 -131.8452,72.373 -131.46,72.3554 -131.0795,72.3358 -130.7036,72.3142 -130.3325,72.2907 -129.966,72.2654 -129.6043,72.2383 -129.2472,72.2095 -128.8949,72.179 -128.5473,72.1468 -128.2044,72.1131 -127.8663,72.0779 -127.5329,72.0412 -127.2043,72.003 -126.8805,71.9636 -126.5614,71.9228 -126.247,71.8807 -125.9374,71.8375 -125.6326,71.7931 -125.3326,71.7477 -124.4278,72.9779 -124.4278,72.9779 -123.7957,74.3681 -123.9819,74.6077 -124.1694,74.8521 -124.3582,75.1012 -124.5483,75.355 -124.7397,75.6136 -124.9322,75.877 -125.1259,76.1452 -125.3206,76.4183 -125.5164,76.6962 -125.7132,76.979 -125.9109,77.2667 -126.1096,77.5593 -126.309,77.8568 -126.5092,78.1593 -126.7102,78.4668 -126.9118,78.7793 -127.1141,79.0968 -127.3169,79.4193 -127.5203,79.7469 -127.7242,80.0796 -127.9284,80.4173 -128.1331,80.7602 -128.338,81.1081 -128.5433,81.4612 -128.7487,81.8194 -128.9543,82.1828 -129.16,82.5514 -129.3658,82.9252 -129.5715,83.3041 -129.7772,83.6883 -129.9828,84.0777 -130.0272,84.3678 -128.7928,86.2404 -128.5087,86.314 -128.0698,86.2785 -127.6356,86.2409 -127.2063,86.2012 -126.7817,86.1595 -126.3618,86.1157 -125.9468,86.07 -125.5366,86.0224 -125.1312,85.973 -124.7306,85.9218 -124.3349,85.8689 -123.944,85.8143 -123.5579,85.7581 -123.1767,85.7003 -122.8003,85.641 -122.4287,85.5803 -122.0621,85.5182 -121.7003,85.4547 -121.3433,85.3899 -120.9913,85.3239 -120.644,85.2568 -120.3017,85.1885 -119.9643,85.1191 -119.6317,85.0487 -119.304,84.9773 -118.9811,84.9051 -118.6632,84.832 -118.3501,84.758 -118.0418,84.6834 -117.7385,84.608 -117.44,84.532 -117.1464,84.4555 -116.1179,85.5844 -116.1179,85.5844 -115.344,86.9009 -115.504,87.1587 -115.665,87.4213 -115.8267,87.6887 -115.9893,87.9611 -116.1526,88.2382 -116.3165,88.5203 -116.4811,88.8073 -116.6462,89.0992 -116.8119,89.3961 -116.9781,89.6979 -117.1446,90.0047 -117.3116,90.3164 -117.4788,90.6332 -117.6463,90.955 -117.814,91.2818 -117.9819,91.6136 -118.1499,91.9505 -118.3179,92.2925 -118.4859,92.6396 -118.6539,92.9917 -118.8217,93.3489 -118.9894,93.7113 -119.1569,94.0788 -119.3241,94.4514 -119.4909,94.8291 -119.6574,95.212 -119.8235,95.6001 -119.989,95.9933 -120.1541,96.3917 -120.3185,96.7953 -120.4822,97.204 -120.496,97.4972 -119.0727,99.2305 -118.7825,99.274 -118.3497,99.1928 -117.9218,99.1101 -117.4989,99.0257 -117.081,98.9398 -116.6681,98.8524 -116.2601,98.7635 -115.8571,98.6733 -115.4591,98.5818 -115.0661,98.489 -114.678,98.395 -114.2949,98.2999 -113.9169,98.2036 -113.5438,98.1063 -113.1756,98.008 -112.8125,97.9088 -112.4543,97.8087 -112.1011,97.7077 -111.7529,97.606 -111.4097,97.5036 -111.0714,97.4005 -110.7381,97.2967 -110.4097,97.1925 -110.0863,97.0877 -109.7678,96.9825 -109.4543,96.8769 -109.1457,96.7709 -108.8421,96.6647 -108.5434,96.5582 -108.2495,96.4516 -107.9606,96.3448 -107.6766,96.2379 -106.5358,97.2532 -106.5358,97.2532 -105.6285,98.4815 -105.7607,98.7547 -105.8933,99.0327 -106.0263,99.3156 -106.1595,99.6034 -106.2929,99.8961 -106.4264,100.1938 -106.5601,100.4964 -106.6938,100.804 -106.8276,101.1165 -106.9613,101.434 -107.0949,101.7565 -107.2283,102.0841 -107.3615,102.4166 -107.4945,102.7541 -107.6271,103.0966 -107.7593,103.4442 -107.8912,103.7968 -108.0225,104.1545 -108.1534,104.5172 -108.2836,104.885 -108.4132,105.2578 -108.5421,105.6357 -108.6702,106.0187 -108.7975,106.4067 -108.924,106.7999 -109.0496,107.1981 -109.1741,107.6013 -109.2977,108.0097 -109.4202,108.4232 -109.5415,108.8417 -109.6616,109.2654 -109.6447,109.5584 -108.048,111.1334 -107.7548,111.1463 -107.3328,111.0204 -106.916,110.8933 -106.5043,110.7652 -106.0976,110.6361 -105.6961,110.506 -105.2996,110.375 -104.9083,110.2432 -104.522,110.1105 -104.1408,109.9772 -103.7647,109.8431 -103.3937,109.7084 -103.0277,109.5732 -102.6668,109.4374 -102.311,109.3012 -101.9602,109.1645 -101.6145,109.0275 -101.2738,108.8902 -100.9381,108.7527 -100.6075,108.6149 -100.2818,108.477 -99.9612,108.339 -99.6455,108.201 -99.3348,108.063 -99.0291,107.9251 -98.7283,107.7873 -98.4325,107.6496 -98.1416,107.5122 -97.8557,107.3751 -97.5746,107.2383 -97.2984,107.102 -97.0272,106.966 -95.7865,107.8564 -95.7865,107.8564 -94.7557,108.9832 -94.8587,109.2687 -94.9615,109.559 -95.0641,109.8543 -95.1665,110.1544 -95.2686,110.4595 -95.3703,110.7695 -95.4716,111.0844 -95.5725,111.4043 -95.6728,111.7291 -95.7726,112.0589 -95.8717,112.3936 -95.9702,112.7332 -96.0679,113.0778 -96.1649,113.4274 -96.261,113.782 -96.3562,114.1415 -96.4504,114.5059 -96.5437,114.8754 -96.6359,115.2498 -96.7269,115.6291 -96.8168,116.0135 -96.9055,116.4028 -96.9929,116.797 -97.079,117.1963 -97.1637,117.6005 -97.2469,118.0096 -97.3287,118.4237 -97.4089,118.8427 -97.4874,119.2667 -97.5644,119.6957 -97.6396,120.1296 -97.5921,120.4192 -95.8395,121.8187 -95.5466,121.8009 -95.1401,121.6315 -94.7388,121.4616 -94.3427,121.2911 -93.9518,121.1202 -93.566,120.9489 -93.1854,120.7772 -92.81,120.6051 -92.4397,120.4329 -92.0746,120.2604 -91.7146,120.0878 -91.3596,119.915 -91.0098,119.7423 -90.6651,119.5695 -90.3255,119.3968 -89.9909,119.2243 -89.6614,119.0519 -89.3369,118.8797 -89.0174,118.7078 -88.703,118.5362 -88.3935,118.3651 -88.089,118.1943 -87.7895,118.0241 -87.495,117.8543 -87.2054,117.6852 -86.9207,117.5167 -86.6408,117.3489 -86.3659,117.1819 -86.0959,117.0156 -85.8306,116.8502 -85.5702,116.6857 -85.3146,116.5221 -83.9877,117.278 -83.9877,117.278 -82.8448,118.2909 -82.9174,118.5855 -82.9893,118.885 -83.0605,119.1894 -83.1309,119.4986 -83.2005,119.8127 -83.2693,120.1316 -83.3371,120.4554 -83.404,120.7841 -83.4698,121.1176 -83.5346,121.456 -83.5982,121.7992 -83.6606,122.1473 -83.7218,122.5002 -83.7817,122.858 -83.8402,123.2207 -83.8973,123.5881 -83.9529,123.9605 -84.007,124.3376 -84.0596,124.7196 -84.1105,125.1064 -84.1598,125.4981 -84.2073,125.8945 -84.253,126.2957 -84.2968,126.7018 -84.3388,127.1126 -84.3788,127.5282 -84.4168,127.9486 -84.4528,128.3737 -84.4866,128.8036 -84.5183,129.2382 -84.5477,129.6776 -84.4702,129.9607 -82.581,131.1693 -82.2915,131.121 -81.9049,130.91 -81.5236,130.6991 -81.1475,130.4882 -80.7766,130.2773 -80.4109,130.0666 -80.0503,129.8561 -79.6949,129.6457 -79.3447,129.4357 -78.9996,129.226 -78.6595,129.0167 -78.3246,128.8078 -77.9948,128.5994 -77.67,128.3916 -77.3503,128.1843 -77.0356,127.9778 -76.7259,127.7719 -76.4212,127.5667 -76.1214,127.3624 -75.8266,127.1589 -75.5368,126.9563 -75.2518,126.7547 -74.9717,126.554 -74.6965,126.3544 -74.4262,126.156 -74.1607,125.9586 -73.8999,125.7625 -73.644,125.5676 -73.3927,125.3741 -73.1463,125.1818 -72.9045,124.991 -72.6674,124.8016 -71.2687,125.4146 -71.2687,125.4146 -70.0262,126.3025 -70.0676,126.6031 -70.1078,126.9085 -70.1468,127.2186 -70.1845,127.5335 -70.2209,127.8532 -70.256,128.1775 -70.2896,128.5066 -70.3217,128.8405 -70.3523,129.1791 -70.3814,129.5224 -70.4088,129.8704 -70.4344,130.2231 -70.4584,130.5805 -70.4805,130.9426 -70.5008,131.3093 -70.5192,131.6808 -70.5356,132.0569 -70.55,132.4376 -70.5624,132.823 -70.5726,133.213 -70.5806,133.6077 -70.5864,134.0069 -70.5899,134.4107 -70.5911,134.8191 -70.5899,135.2321 -70.5863,135.6496 -70.5801,136.0716 -70.5714,136.4982 -70.5601,136.9293 -70.5462,137.3648 -70.5296,137.8048 -70.4229,138.0783 -68.4177,139.0828 -68.1348,139.0045 -67.7724,138.7543 -67.4152,138.5047 -67.0632,138.2556 -66.7164,138.0071 -66.3747,137.7593 -66.0381,137.5122 -65.7067,137.2659 -65.3803,137.0204 -65.059,136.7758 -64.7427,136.5321 -64.4315,136.2893 -64.1252,136.0476 -63.824,135.807 -63.5276,135.5674 -63.2362,135.3291 -62.9498,135.0919 -62.6682,134.8561 -62.3914,134.6215 -62.1195,134.3883 -61.8524,134.1565 -61.5901,133.9262 -61.3325,133.6974 -61.0797,133.4702 -60.8316,133.2445 -60.5881,133.0205 -60.3493,132.7982 -60.1151,132.5777 -59.8855,132.3589 -59.6605,132.1419 -59.44,131.9269 -59.224,131.7138 -57.7689,132.1772 -57.7689,132.1772 -56.4404,132.9303 -56.4501,133.2336 -56.4582,133.5415 -56.4645,133.8541 -56.4691,134.1712 -56.4719,134.4928 -56.4729,134.8191 -56.4719,135.1499 -56.469,135.4853 -56.4641,135.8252 -56.457,136.1697 -56.4479,136.5186 -56.4366,136.8721 -56.423,137.23 -56.4072,137.5925 -56.3891,137.9594 -56.3685,138.3307 -56.3455,138.7064 -56.32,139.0866 -56.292,139.4712 -56.2614,139.8601 -56.2282,140.2534 -56.1922,140.6511 -56.1535,141.053 -56.112,141.4593 -56.0676,141.8699 -56.0203,142.2848 -55.9701,142.7038 -55.9169,143.1272 -55.8606,143.5547 -55.8012,143.9864 -55.7387,144.4223 -55.604,144.6831 -53.5048,145.4725 -53.2316,145.365 -52.8974,145.0783 -52.5683,144.7927 -52.2442,144.5082 -51.9252,144.2249 -51.6113,143.9427 -51.3024,143.6618 -50.9985,143.3822 -50.6996,143.1039 -50.4056,142.827 -50.1166,142.5516 -49.8324,142.2777 -49.5531,142.0052 -49.2786,141.7344 -49.009,141.4652 -48.7441,141.1977 -48.484,140.9319 -48.2286,140.6679 -47.9779,140.4057 -47.7318,140.1454 -47.4904,139.887 -47.2536,139.6305 -47.0214,139.376 -46.7937,139.1236 -46.5705,138.8732 -46.3518,138.625 -46.1375,138.379 -45.9277,138.1351 -45.7222,137.8935 -45.5211,137.6543 -45.3243,137.4173 -45.1317,137.1828 -43.6362,137.4916 -43.6362,137.4916 -42.2362,138.1018 -42.2142,138.4044 -42.19,138.7115 -42.1637,139.0229 -42.1351,139.3388 -42.1043,139.659 -42.0711,139.9836 -42.0356,140.3125 -41.9976,140.6457 -41.9571,140.9833 -41.9142,141.3251 -41.8686,141.6712 -41.8204,142.0215 -41.7695,142.3761 -41.7159,142.7349 -41.6595,143.0979 -41.6002,143.465 -41.5381,143.8363 -41.473,144.2117 -41.4049,144.5912 -41.3338,144.9749 -41.2597,145.3625 -41.1823,145.7543 -41.1018,146.15 -41.0181,146.5497 -40.931,146.9534 -40.8407,147.361 -40.7469,147.7726 -40.6497,148.188 -40.549,148.6073 -40.4449,149.0304 -40.3371,149.4574 -40.1759,149.7027 -38.0056,150.2683 -37.7453,150.1329 -37.4428,149.8129 -37.1453,149.4944 -36.8528,149.1776 -36.5652,148.8624 -36.2825,148.549 -36.0046,148.2374 -35.7316,147.9275 -35.4634,147.6195 -35.2,147.3134 -34.9413,147.0093 -34.6873,146.7071 -34.438,146.407 -34.1934,146.109 -33.9533,145.8131 -33.7179,145.5194 -33.487,145.2279 -33.2606,144.9386 -33.0386,144.6516 -32.8212,144.367 -32.6081,144.0847 -32.3994,143.8049 -32.195,143.5276 -31.995,143.2527 -31.7992,142.9804 -31.6076,142.7107 -31.4202,142.4436 -31.237,142.1792 -31.0579,141.9174 -30.8829,141.6584 -30.7119,141.4022 -30.545,141.1489 -29.0253,141.2997 -29.0253,141.2997 -27.5693,141.7601 -27.5157,142.0588 -27.4596,142.3617 -27.4008,142.6687 -27.3394,142.9798 -27.2753,143.295 -27.2084,143.6144 -27.1386,143.9378 -27.066,144.2652 -26.9905,144.5967 -26.9121,144.9321 -26.8306,145.2716 -26.746,145.6149 -26.6583,145.9622 -26.5675,146.3135 -26.4735,146.6686 -26.3762,147.0275 -26.2755,147.3903 -26.1716,147.7568 -26.0642,148.1272 -25.9534,148.5012 -25.8391,148.879 -25.7213,149.2605 -25.5998,149.6457 -25.4747,150.0344 -25.346,150.4268 -25.2135,150.8228 -25.0772,151.2223 -24.9372,151.6253 -24.7932,152.0317 -24.6454,152.4417 -24.4936,152.855 -24.3076,153.0821 -22.0901,153.4178 -21.8453,153.2559 -21.578,152.906 -21.3154,152.5582 -21.0576,152.2126 -20.8045,151.8691 -20.5561,151.5278 -20.3124,151.1888 -20.0733,150.8521 -19.8387,150.5178 -19.6087,150.1858 -19.3833,149.8563 -19.1623,149.5293 -18.9457,149.2048 -18.7335,148.8828 -18.5257,148.5634 -18.3223,148.2467 -18.1231,147.9326 -17.9282,147.6213 -17.7374,147.3127 -17.5509,147.0069 -17.3685,146.7039 -17.1902,146.4038 -17.0159,146.1066 -16.8457,145.8123 -16.6795,145.5211 -16.5171,145.2328 -16.3587,144.9476 -16.2041,144.6654 -16.0534,144.3864 -15.9064,144.1106 -15.7631,143.8379 -15.6236,143.5684 -14.0965,143.5596 -14.0965,143.5596 -12.6003,143.8653 -12.5158,144.1568 -12.4283,144.4521 -12.3378,144.7513 -12.2442,145.0543 -12.1474,145.3611 -12.0475,145.6717 -11.9444,145.986 -11.8379,146.3041 -11.7282,146.6258 -11.6151,146.9512 -11.4986,147.2803 -11.3786,147.613 -11.2551,147.9492 -11.128,148.289 -10.9974,148.6323 -10.8631,148.9791 -10.7251,149.3294 -10.5834,149.6831 -10.4379,150.0402 -10.2886,150.4006 -10.1355,150.7644 -9.9784,151.1315 -9.8174,151.5018 -9.6523,151.8754 -9.4833,152.2521 -9.3101,152.6321 -9.1328,153.0151 -8.9514,153.4013 -8.7658,153.7905 -8.5759,154.1827 -8.3817,154.5779 -8.173,154.7844 -5.9326,154.8864 -5.706,154.6998 -5.4767,154.3239 -5.252,153.9506 -5.0317,153.5798 -4.8159,153.2118 -4.6046,152.8464 -4.3976,152.4838 -4.195,152.124 -3.9967,151.7669 -3.8026,151.4128 -3.6128,151.0615 -3.4272,150.7131 -3.2458,150.3678 -3.0684,150.0254 -2.8951,149.686 -2.7259,149.3498 -2.5606,149.0166 -2.3993,148.6866 -2.2419,148.3598 -2.0884,148.0361 -1.9386,147.7158 -1.7927,147.3987 -1.6504,147.0849 -1.5119,146.7744 -1.377,146.4674 -1.2457,146.1637 -1.1179,145.8635 -0.9937,145.5667 -0.873,145.2735 -0.7556,144.9838 -0.6416,144.6976 -0.531,144.4151 0.9868,144.2466 0.9868,144.2466 2.5068,144.3943 2.6213,144.6753 2.7391,144.9599 2.8604,145.248 2.9852,145.5395 3.1135,145.8345 3.2453,146.133 3.3808,146.4348 3.5198,146.74 3.6626,147.0485 3.8091,147.3603 3.9594,147.6754 4.1135,147.9937 4.2715,148.3152 4.4333,148.6399 4.5992,148.9676 4.769,149.2985 4.9428,149.6324 5.1207,149.9694 5.3027,150.3093 5.4889,150.6522 5.6792,150.9979 5.8738,151.3466 6.0727,151.6981 6.2759,152.0523 6.4834,152.4094 6.6953,152.7691 6.9116,153.1315 7.1324,153.4966 7.3577,153.8643 7.5876,154.2345 7.822,154.6073 8.0511,154.7908 10.29,154.6581 10.4958,154.4488 10.6845,154.051 10.869,153.6562 11.0493,153.2645 11.2255,152.8759 11.3975,152.4904 11.5654,152.1082 11.7293,151.7291 11.8892,151.3533 12.0452,150.9808 12.1972,150.6116 12.3454,150.2458 12.4897,149.8833 12.6303,149.5243 12.7672,149.1687 12.9003,148.8166 13.0299,148.4679 13.1558,148.1229 13.2782,147.7814 13.3971,147.4435 13.5125,147.1092 13.6245,146.7786 13.7332,146.4516 13.8385,146.1284 13.9406,145.8089 14.0394,145.4932 14.1351,145.1813 14.2276,144.8732 14.317,144.5689 14.4035,144.2685 14.4869,143.972 14.5674,143.6795 16.0593,143.3533 16.0593,143.3533 17.5863,143.3413 17.7296,143.6088 17.8766,143.8795 18.0273,144.1533 18.1819,144.4302 18.3403,144.7102 18.5026,144.9932 18.6688,145.2792 18.8391,145.5682 19.0133,145.8601 19.1916,146.1549 19.374,146.4526 19.5605,146.753 19.7512,147.0562 19.9462,147.3622 20.1453,147.6708 20.3488,147.9821 20.5566,148.2961 20.7687,148.6126 20.9853,148.9316 21.2062,149.2531 21.4317,149.5771 21.6617,149.9035 21.8962,150.2323 22.1353,150.5634 22.379,150.8968 22.6273,151.2324 22.8804,151.5702 23.1381,151.9102 23.4006,152.2523 23.6679,152.5965 23.94,152.9427 24.187,153.1012 26.3998,152.7352 26.5825,152.5056 26.7287,152.0902 26.8709,151.6783 27.0093,151.2699 27.1438,150.865 27.2746,150.4637 27.4017,150.066 27.5251,149.6719 27.6448,149.2814 27.761,148.8946 27.8736,148.5116 27.9827,148.1323 28.0884,147.7567 28.1907,147.3849 28.2896,147.017 28.3852,146.6529 28.4776,146.2926 28.5668,145.9363 28.6528,145.5839 28.7357,145.2354 28.8156,144.8909 28.8924,144.5504 28.9663,144.2139 29.0373,143.8814 29.1054,143.553 29.1707,143.2287 29.2332,142.9085 29.293,142.5924 29.3502,142.2804 29.4047,141.9726 29.4567,141.669 29.5062,141.3697 30.9558,140.8893 30.9558,140.8893 32.4732,140.7177 32.6437,140.9688 32.8181,141.2227 32.9967,141.4792 33.1793,141.7385 33.3661,142.0004 33.5572,142.2649 33.7524,142.532 33.9519,142.8016 34.1557,143.0737 34.3638,143.3482 34.5763,143.6251 34.7932,143.9044 35.0146,144.1861 35.2404,144.47 35.4708,144.7561 35.7057,145.0444 35.9451,145.3349 36.1892,145.6275 36.4379,145.9222 36.6913,146.2188 36.9494,146.5175 37.2122,146.8181 37.4798,147.1205 37.7522,147.4248 38.0294,147.7309 38.3115,148.0387 38.5984,148.3482 38.8903,148.6594 39.1871,148.9722 39.489,149.2866 39.7958,149.6024 40.058,149.7343 42.2203,149.139 42.3781,148.8915 42.48,148.4631 42.5784,148.0386 42.6733,147.618 42.7648,147.2013 42.853,146.7885 42.9377,146.3796 43.0192,145.9748 43.0975,145.574 43.1726,145.1772 43.2446,144.7844 43.3135,144.3958 43.3793,144.0112 43.4422,143.6308 43.5021,143.2545 43.5591,142.8824 43.6134,142.5145 43.6648,142.1508 43.7135,141.7913 43.7595,141.4361 43.8029,141.0851 43.8438,140.7384 43.8821,140.396 43.9179,140.058 43.9513,139.7242 43.9823,139.3949 44.0111,139.0699 44.0375,138.7493 44.0618,138.4331 44.0838,138.1213 44.1038,137.8139 44.1217,137.511 45.5132,136.8818 45.5132,136.8818 47.0044,136.5525 47.2001,136.7844 47.4001,137.0186 47.6045,137.2551 47.8133,137.4938 48.0264,137.7348 48.2441,137.9779 48.4661,138.2231 48.6927,138.4703 48.9238,138.7196 49.1595,138.9709 49.3998,139.2241 49.6448,139.4792 49.8943,139.7362 50.1486,139.9949 50.4076,140.2554 50.6713,140.5176 50.9398,140.7815 51.2132,141.047 51.4913,141.314 51.7743,141.5826 52.0622,141.8526 52.355,142.124 52.6527,142.3969 52.9554,142.671 53.2631,142.9464 53.5758,143.2231 53.8936,143.5009 54.2164,143.7799 54.5443,144.06 54.8773,144.341 55.2155,144.6231 55.49,144.7268 57.5783,143.9088 57.7094,143.6462 57.7659,143.2095 57.8194,142.777 57.8699,142.3487 57.9173,141.9247 57.9618,141.505 58.0034,141.0895 58.0421,140.6784 58.0781,140.2716 58.1113,139.8691 58.1418,139.471 58.1696,139.0773 58.1949,138.688 58.2177,138.303 58.238,137.9226 58.2558,137.5465 58.2713,137.175 58.2844,136.8079 58.2953,136.4452 58.3039,136.0871 58.3104,135.7336 58.3148,135.3845 58.3171,135.04 58.3174,134.7 58.3157,134.3647 58.3121,134.0339 58.3067,133.7076 58.2995,133.386 58.2906,133.069 58.2799,132.7566 58.2677,132.4488 58.2538,132.1457 59.5719,131.3745 59.5719,131.3745 61.0205,130.8912 61.2394,131.1013 61.4628,131.3133 61.6908,131.5272 61.9234,131.7428 62.1606,131.9601 62.4024,132.1791 62.6489,132.3998 62.9001,132.622 63.156,132.8458 63.4167,133.0711 63.6821,133.2978 63.9523,133.5259 64.2274,133.7553 64.5073,133.9861 64.7921,134.2181 65.0818,134.4513 65.3765,134.6856 65.676,134.9211 65.9806,135.1576 66.2901,135.3951 66.6046,135.6335 66.9242,135.8729 67.2488,136.1131 67.5785,136.3541 67.9133,136.5959 68.2532,136.8383 68.5983,137.0814 68.9485,137.3251 69.3039,137.5694 69.6644,137.8141 70.0302,138.0593 70.3141,138.1337 72.3054,137.1019 72.4083,136.827 72.419,136.3868 72.4269,135.9511 72.4323,135.5199 72.4352,135.0932 72.4356,134.6712 72.4335,134.2536 72.429,133.8407 72.4223,133.4324 72.4132,133.0286 72.402,132.6295 72.3885,132.235 72.373,131.8452 72.3554,131.46 72.3358,131.0795 72.3142,130.7036 72.2907,130.3325 72.2654,129.966 72.2383,129.6043 72.2095,129.2472 72.179,128.8949 72.1468,128.5473 72.1131,128.2044 72.0779,127.8663 72.0412,127.5329 72.003,127.2043 71.9636,126.8805 71.9228,126.5614 71.8807,126.247 71.8375,125.9374 71.7931,125.6326 71.7477,125.3326 72.9779,124.4278 72.9779,124.4278 74.3681,123.7957 74.6077,123.9819 74.8521,124.1694 75.1012,124.3582 75.355,124.5483 75.6136,124.7397 75.877,124.9322 76.1452,125.1259 76.4183,125.3206 76.6962,125.5164 76.979,125.7132 77.2667,125.9109 77.5593,126.1096 77.8568,126.309 78.1593,126.5092 78.4668,126.7102 78.7793,126.9118 79.0968,127.1141 79.4193,127.3169 79.7469,127.5203 80.0796,127.7242 80.4173,127.9284 80.7602,128.1331 81.1081,128.338 81.4612,128.5433 81.8194,128.7487 82.1828,128.9543 82.5514,129.16 82.9252,129.3658 83.3041,129.5715 83.6883,129.7772 84.0777,129.9828 84.3678,130.0272 86.2404,128.7928 86.314,128.5087 86.2785,128.0698 86.2409,127.6356 86.2012,127.2063 86.1595,126.7817 86.1157,126.3618 86.07,125.9468 86.0224,125.5366 85.973,125.1312 85.9218,124.7306 85.8689,124.3349 85.8143,123.944 85.7581,123.5579 85.7003,123.1767 85.641,122.8003 85.5803,122.4287 85.5182,122.0621 85.4547,121.7003 85.3899,121.3433 85.3239,120.9913 85.2568,120.644 85.1885,120.3017 85.1191,119.9643 85.0487,119.6317 84.9773,119.304 84.9051,118.9811 84.832,118.6632 84.758,118.3501 84.6834,118.0418 84.608,117.7385 84.532,117.44 84.4555,117.1464 85.5844,116.1179 85.5844,116.1179 86.9009,115.344 87.1587,115.504 87.4213,115.665 87.6887,115.8267 87.9611,115.9893 88.2382,116.1526 88.5203,116.3165 88.8073,116.4811 89.0992,116.6462 89.3961,116.8119 89.6979,116.9781 90.0047,117.1446 90.3164,117.3116 90.6332,117.4788 90.955,117.6463 91.2818,117.814 91.6136,117.9819 91.9505,118.1499 92.2925,118.3179 92.6396,118.4859 92.9917,118.6539 93.3489,118.8217 93.7113,118.9894 94.0788,119.1569 94.4514,119.3241 94.8291,119.4909 95.212,119.6574 95.6001,119.8235 95.9933,119.989 96.3917,120.1541 96.7953,120.3185 97.204,120.4822 97.4972,120.496 99.2305,119.0727 99.274,118.7825 99.1928,118.3497 99.1101,117.9218 99.0257,117.4989 98.9398,117.081 98.8524,116.6681 98.7635,116.2601 98.6733,115.8571 98.5818,115.4591 98.489,115.0661 98.395,114.678 98.2999,114.2949 98.2036,113.9169 98.1063,113.5438 98.008,113.1756 97.9088,112.8125 97.8087,112.4543 97.7077,112.1011 97.606,111.7529 97.5036,111.4097 97.4005,111.0714 97.2967,110.7381 97.1925,110.4097 97.0877,110.0863 96.9825,109.7678 96.8769,109.4543 96.7709,109.1457 96.6647,108.8421 96.5582,108.5434 96.4516,108.2495 96.3448,107.9606 96.2379,107.6766 97.2532,106.5358 97.2532,106.5358 98.4815,105.6285 98.7547,105.7607 99.0327,105.8933 99.3156,106.0263 99.6034,106.1595 99.8961,106.2929 100.1938,106.4264 100.4964,106.5601 100.804,106.6938 101.1165,106.8276 101.434,106.9613 101.7565,107.0949 102.0841,107.2283 102.4166,107.3615 102.7541,107.4945 103.0966,107.6271 103.4442,107.7593 103.7968,107.8912 104.1545,108.0225 104.5172,108.1534 104.885,108.2836 105.2578,108.4132 105.6357,108.5421 106.0187,108.6702 106.4067,108.7975 106.7999,108.924 107.1981,109.0496 107.6013,109.1741 108.0097,109.2977 108.4232,109.4202 108.8417,109.5415 109.2654,109.6616 109.5584,109.6447 111.1334,108.048 111.1463,107.7548 111.0204,107.3328 110.8933,106.916 110.7652,106.5043 110.6361,106.0976 110.506,105.6961 110.375,105.2996 110.2432,104.9083 110.1105,104.522 109.9772,104.1408 109.8431,103.7647 109.7084,103.3937 109.5732,103.0277 109.4374,102.6668 109.3012,102.311 109.1645,101.9602 109.0275,101.6145 108.8902,101.2738 108.7527,100.9381 108.6149,100.6075 108.477,100.2818 108.339,99.9612 108.201,99.6455 108.063,99.3348 107.9251,99.0291 107.7873,98.7283 107.6496,98.4325 107.5122,98.1416 107.3751,97.8557 107.2383,97.5746 107.102,97.2984 106.966,97.0272 107.8564,95.7865 107.8564,95.7865 108.9832,94.7557 109.2687,94.8587 109.559,94.9615 109.8543,95.0641 110.1544,95.1665 110.4595,95.2686 110.7695,95.3703 111.0844,95.4716 111.4043,95.5725 111.7291,95.6728 112.0589,95.7726 112.3936,95.8717 112.7332,95.9702 113.0778,96.0679 113.4274,96.1649 113.782,96.261 114.1415,96.3562 114.5059,96.4504 114.8754,96.5437 115.2498,96.6359 115.6291,96.7269 116.0135,96.8168 116.4028,96.9055 116.797,96.9929 117.1963,97.079 117.6005,97.1637 118.0096,97.2469 118.4237,97.3287 118.8427,97.4089 119.2667,97.4874 119.6957,97.5644 120.1296,97.6396 120.4192,97.5921 121.8187,95.8395 121.8009,95.5466 121.6315,95.1401 121.4616,94.7388 121.2911,94.3427 121.1202,93.9518 120.9489,93.566 120.7772,93.1854 120.6051,92.81 120.4329,92.4397 120.2604,92.0746 120.0878,91.7146 119.915,91.3596 119.7423,91.0098 119.5695,90.6651 119.3968,90.3255 119.2243,89.9909 119.0519,89.6614 118.8797,89.3369 118.7078,89.0174 118.5362,88.703 118.3651,88.3935 118.1943,88.089 118.0241,87.7895 117.8543,87.495 117.6852,87.2054 117.5167,86.9207 117.3489,86.6408 117.1819,86.3659 117.0156,86.0959 116.8502,85.8306 116.6857,85.5702 116.5221,85.3146 117.278,83.9877 117.278,83.9877 118.2909,82.8448 118.5855,82.9174 118.885,82.9893 119.1894,83.0605 119.4986,83.1309 119.8127,83.2005 120.1316,83.2693 120.4554,83.3371 120.7841,83.404 121.1176,83.4698 121.456,83.5346 121.7992,83.5982 122.1473,83.6606 122.5002,83.7218 122.858,83.7817 123.2207,83.8402 123.5881,83.8973 123.9605,83.9529 124.3376,84.007 124.7196,84.0596 125.1064,84.1105 125.4981,84.1598 125.8945,84.2073 126.2957,84.253 126.7018,84.2968 127.1126,84.3388 127.5282,84.3788 127.9486,84.4168 128.3737,84.4528 128.8036,84.4866 129.2382,84.5183 129.6776,84.5477 129.9607,84.4702 131.1693,82.581 131.121,82.2915 130.91,81.9049 130.6991,81.5236 130.4882,81.1475 130.2773,80.7766 130.0666,80.4109 129.8561,80.0503 129.6457,79.6949 129.4357,79.3447 129.226,78.9996 129.0167,78.6595 128.8078,78.3246 128.5994,77.9948 128.3916,77.67 128.1843,77.3503 127.9778,77.0356 127.7719,76.7259 127.5667,76.4212 127.3624,76.1214 127.1589,75.8266 126.9563,75.5368 126.7547,75.2518 126.554,74.9717 126.3544,74.6965 126.156,74.4262 125.9586,74.1607 125.7625,73.8999 125.5676,73.644 125.3741,73.3927 125.1818,73.1463 124.991,72.9045 124.8016,72.6674 125.4146,71.2687 125.4146,71.2687 126.3025,70.0262 126.6031,70.0676 126.9085,70.1078 127.2186,70.1468 127.5335,70.1845 127.8532,70.2209 128.1775,70.256 128.5066,70.2896 128.8405,70.3217 129.1791,70.3523 129.5224,70.3814 129.8704,70.4088 130.2231,70.4344 130.5805,70.4584 130.9426,70.4805 131.3093,70.5008 131.6808,70.5192 132.0569,70.5356 132.4376,70.55 132.823,70.5624 133.213,70.5726 133.6077,70.5806 134.0069,70.5864 134.4107,70.5899 134.8191,70.5911 135.2321,70.5899 135.6496,70.5863 136.0716,70.5801 136.4982,70.5714 136.9293,70.5601 137.3648,70.5462 137.8048,70.5296 138.0783,70.4229 139.0828,68.4177 139.0045,68.1348 138.7543,67.7724 138.5047,67.4152 138.2556,67.0632 138.0071,66.7164 137.7593,66.3747 137.5122,66.0381 137.2659,65.7067 137.0204,65.3803 136.7758,65.059 136.5321,64.7427 136.2893,64.4315 136.0476,64.1252 135.807,63.824 135.5674,63.5276 135.3291,63.2362 135.0919,62.9498 134.8561,62.6682 134.6215,62.3914 134.3883,62.1195 134.1565,61.8524 133.9262,61.5901 133.6974,61.3325 133.4702,61.0797 133.2445,60.8316 133.0205,60.5881 132.7982,60.3493 132.5777,60.1151 132.3589,59.8855 132.1419,59.6605 131.9269,59.44 131.7138,59.224 132.1772,57.7689 132.1772,57.7689 132.9303,56.4404 133.2336,56.4501 133.5415,56.4582 133.8541,56.4645 134.1712,56.4691 134.4928,56.4719 134.8191,56.4729 135.1499,56.4719 135.4853,56.469 135.8252,56.4641 136.1697,56.457 136.5186,56.4479 136.8721,56.4366 137.23,56.423 137.5925,56.4072 137.9594,56.3891 138.3307,56.3685 138.7064,56.3455 139.0866,56.32 139.4712,56.292 139.8601,56.2614 140.2534,56.2282 140.6511,56.1922 141.053,56.1535 141.4593,56.112 141.8699,56.0676 142.2848,56.0203 142.7038,55.9701 143.1272,55.9169 143.5547,55.8606 143.9864,55.8012 144.4223,55.7387 144.6831,55.604 145.4725,53.5048 145.365,53.2316 145.0783,52.8974 144.7927,52.5683 144.5082,52.2442 144.2249,51.9252 143.9427,51.6113 143.6618,51.3024 143.3822,50.9985 143.1039,50.6996 142.827,50.4056 142.5516,50.1166 142.2777,49.8324 142.0052,49.5531 141.7344,49.2786 141.4652,49.009 141.1977,48.7441 140.9319,48.484 140.6679,48.2286 140.4057,47.9779 140.1454,47.7318 139.887,47.4904 139.6305,47.2536 139.376,47.0214 139.1236,46.7937 138.8732,46.5705 138.625,46.3518 138.379,46.1375 138.1351,45.9277 137.8935,45.7222 137.6543,45.5211 137.4173,45.3243 137.1828,45.1317 137.4916,43.6362 137.4916,43.6362 138.1018,42.2362 138.4044,42.2142 138.7115,42.19 139.0229,42.1637 139.3388,42.1351 139.659,42.1043 139.9836,42.0711 140.3125,42.0356 140.6457,41.9976 140.9833,41.9571 141.3251,41.9142 141.6712,41.8686 142.0215,41.8204 142.3761,41.7695 142.7349,41.7159 143.0979,41.6595 143.465,41.6002 143.8363,41.5381 144.2117,41.473 144.5912,41.4049 144.9749,41.3338 145.3625,41.2597 145.7543,41.1823 146.15,41.1018 146.5497,41.0181 146.9534,40.931 147.361,40.8407 147.7726,40.7469 148.188,40.6497 148.6073,40.549 149.0304,40.4449 149.4574,40.3371 149.7027,40.1759 150.2683,38.0056 150.1329,37.7453 149.8129,37.4428 149.4944,37.1453 149.1776,36.8528 148.8624,36.5652 148.549,36.2825 148.2374,36.0046 147.9275,35.7316 147.6195,35.4634 147.3134,35.2 147.0093,34.9413 146.7071,34.6873 146.407,34.438 146.109,34.1934 145.8131,33.9533 145.5194,33.7179 145.2279,33.487 144.9386,33.2606 144.6516,33.0386 144.367,32.8212 144.0847,32.6081 143.8049,32.3994 143.5276,32.195 143.2527,31.995 142.9804,31.7992 142.7107,31.6076 142.4436,31.4202 142.1792,31.237 141.9174,31.0579 141.6584,30.8829 141.4022,30.7119 141.1489,30.545 141.2997,29.0253 141.2997,29.0253 141.7601,27.5693 142.0588,27.5157 142.3617,27.4596 142.6687,27.4008 142.9798,27.3394 143.295,27.2753 143.6144,27.2084 143.9378,27.1386 144.2652,27.066 144.5967,26.9905 144.9321,26.9121 145.2716,26.8306 145.6149,26.746 145.9622,26.6583 146.3135,26.5675 146.6686,26.4735 147.0275,26.3762 147.3903,26.2755 147.7568,26.1716 148.1272,26.0642 148.5012,25.9534 148.879,25.8391 149.2605,25.7213 149.6457,25.5998 150.0344,25.4747 150.4268,25.346 150.8228,25.2135 151.2223,25.0772 151.6253,24.9372 152.0317,24.7932 152.4417,24.6454 152.855,24.4936 153.0821,24.3076 153.4178,22.0901 153.2559,21.8453 152.906,21.578 152.5582,21.3154 152.2126,21.0576 151.8691,20.8045 151.5278,20.5561 151.1888,20.3124 150.8521,20.0733 150.5178,19.8387 150.1858,19.6087 149.8563,19.3833 149.5293,19.1623 149.2048,18.9457 148.8828,18.7335 148.5634,18.5257 148.2467,18.3223 147.9326,18.1231 147.6213,17.9282 147.3127,17.7374 147.0069,17.5509 146.7039,17.3685 146.4038,17.1902 146.1066,17.0159 145.8123,16.8457 145.5211,16.6795 145.2328,16.5171 144.9476,16.3587 144.6654,16.2041 144.3864,16.0534 144.1106,15.9064 143.8379,15.7631 143.5684,15.6236 143.5596,14.0965 143.5596,14.0965 143.8653,12.6003 144.1568,12.5158 144.4521,12.4283 144.7513,12.3378 145.0543,12.2442 145.3611,12.1474 145.6717,12.0475 145.986,11.9444 146.3041,11.8379 146.6258,11.7282 146.9512,11.6151 147.2803,11.4986 147.613,11.3786 147.9492,11.2551 148.289,11.128 148.6323,10.9974 148.9791,10.8631 149.3294,10.7251 149.6831,10.5834 150.0402,10.4379 150.4006,10.2886 150.7644,10.1355 151.1315,9.9784 151.5018,9.8174 151.8754,9.6523 152.2521,9.4833 152.6321,9.3101 153.0151,9.1328 153.4013,8.9514 153.7905,8.7658 154.1827,8.5759 154.5779,8.3817 154.7844,8.173 154.8864,5.9326 154.6998,5.706 154.3239,5.4767 153.9506,5.252 153.5798,5.0317 153.2118,4.8159 152.8464,4.6046 152.4838,4.3976 152.124,4.195 151.7669,3.9967 151.4128,3.8026 151.0615,3.6128 150.7131,3.4272 150.3678,3.2458 150.0254,3.0684 149.686,2.8951 149.3498,2.7259 149.0166,2.5606 148.6866,2.3993 148.3598,2.2419 148.0361,2.0884 147.7158,1.9386 147.3987,1.7927 147.0849,1.6504 146.7744,1.5119 146.4674,1.377 146.1637,1.2457 145.8635,1.1179 145.5667,0.9937 145.2735,0.873 144.9838,0.7556 144.6976,0.6416 144.4151,0.531 144.2466,-0.9868 "/><g class="guides"><polyline fill="none" stroke="#444" stroke-width="0.5" stroke-miterlimit="10" points="10,0 -10,0"/><polyline fill="none" stroke="#444" stroke-width="0.5" stroke-miterlimit="10" points="0,10 0,-10"/></g><circle fill="#c00" class="firstmarker" stroke="none" stroke-miterlimit="10" cx="149.7372" cy="-8.8749" r="1.9625"/><g class="geartext"><g class="text"><polyline fill="none" stroke="#444" stroke-width="0.5" stroke-linecap="square" stroke-miterlimit="1"  points="-38.75 -107.48 -41.56 -106.42 -44.34 -105.29 -47.09 -104.09 -49.81 -102.82 "/><polyline fill="none" stroke="#444" stroke-width="0.5" stroke-linecap="square" stroke-miterlimit="1"  points="-42.01 -99.77 -46.67 -110.82 "/><polyline fill="none" stroke="#444" stroke-width="0.5" stroke-linecap="square" stroke-miterlimit="1"  points="-40.79 -113.12 -42.65 -109.22 -44.34 -105.29 -45.85 -101.36 -47.19 -97.42 "/><polyline fill="none" stroke="#444" stroke-width="0.5" stroke-linecap="square" stroke-miterlimit="1"  points="-36.72 -101.83 -40.47 -103.63 -44.34 -105.29 -48.33 -106.83 -52.42 -108.22 "/><polyline fill="none" stroke="#444" stroke-width="0.5" stroke-linecap="square" stroke-miterlimit="1"  points="-34.79 -115.11 -32.55 -118.87 -27.8 -101.51 "/><polyline fill="none" stroke="#444" stroke-width="0.5" stroke-linecap="square" stroke-miterlimit="1"  points="-25.12 -102.21 -27.8 -101.51 -30.45 -100.75 "/><polyline fill="none" stroke="#444" stroke-width="0.5" stroke-linecap="square" stroke-miterlimit="1"  points="5.89 -123.11 5.03 -105.13 2.37 -109.72 -0.54 -114.25 -3.68 -118.69 -7.05 -123.05 -6.02 -105.08 "/><polyline fill="none" stroke="#444" stroke-width="0.5" stroke-linecap="square" stroke-miterlimit="1"  points="23.91 -114.79 20.89 -115.37 17.85 -115.88 14.8 -116.31 11.74 -116.66 "/><polyline fill="none" stroke="#444" stroke-width="0.5" stroke-linecap="square" stroke-miterlimit="1"  points="22.69 -108.91 19.82 -109.47 16.94 -109.95 14.05 -110.36 11.14 -110.69 "/><polyline fill="none" stroke="#444" stroke-width="0.5" stroke-linecap="square" stroke-miterlimit="1"  points="29.14 -110.47 32.03 -109.67 34.9 -108.79 37.74 -107.84 39.49 -104 38.43 -101.2 34.77 -99.34 32.15 -100.22 29.51 -101.03 27.61 -104.67 29.9 -113.37 33.71 -115.43 37.65 -117.36 40.71 -116.33 "/><polyline fill="none" stroke="#444" stroke-width="0.5" stroke-linecap="square" stroke-miterlimit="1"  points="51.35 -95.3 47.47 -93.94 44.99 -95.15 43.69 -99.04 48.53 -110.02 52.69 -111.42 55.59 -110 57.04 -105.86 51.35 -95.3 "/><polyline fill="none" stroke="#444" stroke-width="0.5" stroke-linecap="square" stroke-miterlimit="1"  points="71.66 -88.98 73.97 -87.07 76.24 -85.1 78.44 -83.06 82.71 -83.1 84.83 -85.23 84.62 -89.61 82.24 -91.8 79.8 -93.93 77.31 -95.99 66.02 -81.97 "/><polyline fill="none" stroke="#444" stroke-width="0.5" stroke-linecap="square" stroke-miterlimit="1"  points="78.06 -70.6 86.96 -78.65 "/><polyline fill="none" stroke="#444" stroke-width="0.5" stroke-linecap="square" stroke-miterlimit="1"  points="89.19 -80.66 91.41 -82.67 "/><polyline fill="none" stroke="#444" stroke-width="0.5" stroke-linecap="square" stroke-miterlimit="1"  points="90.68 -59.11 86.63 -59.77 87.46 -63.79 99.58 -72.63 "/><polyline fill="none" stroke="#444" stroke-width="0.5" stroke-linecap="square" stroke-miterlimit="1"  points="98.22 -64.03 96.51 -66.58 94.73 -69.1 92.88 -71.56 90.97 -73.97 "/><polyline fill="none" stroke="#444" stroke-width="0.5" stroke-linecap="square" stroke-miterlimit="1"  points="96.1 -42.93 94.94 -45.44 93.71 -47.91 92.42 -50.36 93.66 -54.27 98.85 -57.28 102.96 -56.1 104.4 -53.38 105.76 -50.62 107.05 -47.82 "/><polyline fill="none" stroke="#444" stroke-width="0.5" stroke-linecap="square" stroke-miterlimit="1"  points="103.82 -39.98 107.66 -38.25 111.48 -36.34 112.39 -33.4 110.33 -29.66 101.64 -27.32 "/><polyline fill="none" stroke="#444" stroke-width="0.5" stroke-linecap="square" stroke-miterlimit="1"  points="98.22 -37.83 115.02 -44.29 "/><polyline fill="none" stroke="#444" stroke-width="0.5" stroke-linecap="square" stroke-miterlimit="1"  points="104.92 -8.28 105.1 -5.52 105.21 -2.76 105.25 0 108.21 2.84 120.21 3.16 123.25 0 123.21 -3.24 123.08 -6.47 122.87 -9.7 "/><polyline fill="none" stroke="#444" stroke-width="0.5" stroke-linecap="square" stroke-miterlimit="1"  points="123.08 -6.47 105.1 -5.52 "/><polyline fill="none" stroke="#444" stroke-width="0.5" stroke-linecap="square" stroke-miterlimit="1"  points="115.27 21.43 115.8 18.4 116.24 15.35 116.6 12.29 116.89 9.23 "/><polyline fill="none" stroke="#444" stroke-width="0.5" stroke-linecap="square" stroke-miterlimit="1"  points="109.38 20.33 109.87 17.45 110.29 14.56 110.64 11.66 110.91 8.75 "/><polyline fill="none" stroke="#444" stroke-width="0.5" stroke-linecap="square" stroke-miterlimit="1"  points="116.91 28.15 119.03 31.99 118.14 35.11 117.18 38.2 113.31 40.26 110.48 39.25 108.63 35.41 104.83 37.24 102 36.24 100.07 32.62 100.89 29.98 101.64 27.32 105.24 25.34 "/><polyline fill="none" stroke="#444" stroke-width="0.5" stroke-linecap="square" stroke-miterlimit="1"  points="109.52 32.54 108.63 35.41 "/><polyline fill="none" stroke="#444" stroke-width="0.5" stroke-linecap="square" stroke-miterlimit="1"  points="98.85 57.28 97.32 59.86 95.71 62.39 94.04 64.88 94.73 69.1 97.15 70.86 101.45 69.99 103.25 67.3 104.98 64.57 106.64 61.79 91.07 52.77 "/><polyline fill="none" stroke="#444" stroke-width="0.5" stroke-linecap="square" stroke-miterlimit="1"  points="82.71 83.1 84.87 80.9 86.96 78.65 89 76.34 90.97 73.97 "/><polyline fill="none" stroke="#444" stroke-width="0.5" stroke-linecap="square" stroke-miterlimit="1"  points="78.48 78.85 80.52 76.76 82.51 74.62 84.44 72.43 86.31 70.19 "/><polyline fill="none" stroke="#444" stroke-width="0.5" stroke-linecap="square" stroke-miterlimit="1"  points="61.62 85.32 63.84 83.68 66.02 81.97 68.15 80.21 70.23 78.39 74.23 82.86 73.97 87.07 71.66 88.98 69.3 90.83 68.65 95.05 70.41 97.48 74.76 97.99 77.31 95.99 79.8 93.93 80.24 89.56 "/><polyline fill="none" stroke="#444" stroke-width="0.5" stroke-linecap="square" stroke-miterlimit="1"  points="51.35 95.3 52.34 91.31 54.72 89.91 58.69 90.96 65.19 101.04 64.08 105.28 61.29 106.93 57.04 105.86 51.35 95.3 "/><polyline fill="none" stroke="#444" stroke-width="0.5" stroke-linecap="square" stroke-miterlimit="1"  points="34.9 108.79 32.03 109.67 29.14 110.47 26.23 111.2 23.91 114.79 24.52 117.72 28.29 119.96 31.43 119.17 34.55 118.31 37.65 117.36 32.15 100.22 "/><polyline fill="none" stroke="#444" stroke-width="0.5" stroke-linecap="square" stroke-miterlimit="1"  points="16.03 104.02 16.94 109.95 14.8 116.31 12.35 122.63 8.68 116.93 5.32 111.12 5.03 105.13 "/><polyline fill="none" stroke="#444" stroke-width="0.5" stroke-linecap="square" stroke-miterlimit="1"  points="16.94 109.95 14.05 110.36 11.14 110.69 8.23 110.94 5.32 111.12 "/><polyline fill="none" stroke="#444" stroke-width="0.5" stroke-linecap="square" stroke-miterlimit="1"  points="-12.84 116.54 -9.78 116.84 -6.7 117.06 -3.63 117.19 -0.55 117.25 "/><polyline fill="none" stroke="#444" stroke-width="0.5" stroke-linecap="square" stroke-miterlimit="1"  points="-12.18 110.58 -9.28 110.86 -6.36 111.07 -3.44 111.2 -0.52 111.25 "/><polyline fill="none" stroke="#444" stroke-width="0.5" stroke-linecap="square" stroke-miterlimit="1"  points="-27.8 101.51 -25.12 102.21 -22.43 102.83 -19.72 103.39 -17 103.87 -17.97 109.79 -21.41 112.23 -24.35 111.63 -27.27 110.95 -30.97 113.09 -31.76 115.98 -29.42 119.69 -26.27 120.42 -23.1 121.07 -19.42 118.67 "/><polyline fill="none" stroke="#444" stroke-width="0.5" stroke-linecap="square" stroke-miterlimit="1"  points="-35.92 108.46 -38.75 107.48 -41.56 106.42 -44.34 105.29 -45.85 101.36 -44.62 98.63 -40.85 97 -38.29 98.04 -35.7 99.01 -34.03 102.76 -36.86 111.31 -40.79 113.12 -44.83 114.81 -47.83 113.59 "/></g></g><g class="guides gearguides" opacity="0.2"><circle class="pitch" fill="none" stroke="#f00" stroke-miterlimit="10" cx="0" cy="0" r="150"/><circle class="outer" fill="none" stroke="#ccc" stroke-miterlimit="10" stroke-dasharray="2,2" cx="0" cy="0" r="155"/><circle class="base" fill="none" stroke="#00f" stroke-miterlimit="10" stroke-dasharray="2,2" cx="0" cy="0" r="134.82"/></g></svg>